$MeshFormat
4.1 0 8
$EndMeshFormat
$PhysicalNames
2
2 1 "genus2_surface"
3 2 "genus2_solid"
$EndPhysicalNames
$Entities
4 8 2 1
1 -1.045 1.08 -6.858022075225179e-17 0 
2 -3.33066907387547e-16 -0.272717802865909 -6.858022075225179e-17 0 
3 -2.220446049250313e-16 0.2727178028659067 -6.858022075225179e-17 0 
4 1.045 1.08 -6.858022075225179e-17 0 
1 -1.0450001 0.5199999000000001 -0.2800001 -1.0449999 1.0800001 0.2800001 0 2 1 -1 
2 -2.1250001 -1.0800001 -1.000000000685802e-07 9.999999606158383e-08 1.0800001 9.999999993141977e-08 0 2 1 -2 
3 -1.00000002713961e-07 -0.2727179028658926 -0.1355575515815228 1.000000024991115e-07 0.2727179028658926 1.000000000028756e-07 0 2 3 -2 
4 -1.0450001 0.2727177028659059 -1.000000000685802e-07 9.999999639465074e-08 1.0800001 9.999999993141977e-08 0 2 3 -1 
5 -1.00000000968668e-07 -0.2727179028658926 -1.000000000028756e-07 1.000000010553026e-07 0.2727179028658928 0.1355574621847165 0 2 2 -3 
6 1.0449999 0.5199999000000001 -0.2800001 1.0450001 1.0800001 0.2800001 0 2 4 -4 
7 -9.999999639465074e-08 0.2727177028659059 -1.000000000685802e-07 1.0450001 1.0800001 9.999999993141977e-08 0 2 4 -3 
8 -9.999999606158383e-08 -1.0800001 -1.000000000685802e-07 2.1250001 1.0800001 9.999999993141977e-08 0 2 2 -4 
1 -2.213983676315786 -1.168983676315786 -0.2800001 0.1239836763157856 1.168983676315786 0.2800001 1 1 8 -1 -4 3 -2 1 2 5 4 
2 -0.1239836763157856 -1.168983676315786 -0.2800001 2.213983676315786 1.168983676315786 0.2800001 1 1 8 -6 -8 -3 -7 6 7 -5 8 
100 -2.213983676315786 -1.168983676315786 -0.2800001 2.213983676315786 1.168983676315786 0.2800001 1 2 2 1 2 
$EndEntities
$Nodes
15 799 1 799
0 1 0 1
1
-1.045 1.08 -6.858022075225179e-17
0 2 0 1
2
-3.33066907387547e-16 -0.272717802865909 -6.858022075225179e-17
0 3 0 1
3
-2.220446049250313e-16 0.2727178028659067 -6.858022075225179e-17
0 4 0 1
4
1.045 1.08 -6.858022075225179e-17
1 1 0 9
5
6
7
8
9
10
11
12
13
-1.045 1.026524758424985 0.1645798706418928
-1.045 0.8865247584249848 0.2662958245626432
-1.045 0.7134752415750135 0.2662958245626426
-1.045 0.5734752415750136 0.164579870641891
-1.045 0.52 -1.333504655962067e-15
-1.045 0.5734752415750154 -0.1645798706418934
-1.045 0.7134752415750154 -0.2662958245626432
-1.045 0.886524758424986 -0.2662958245626428
-1.045 1.026524758424986 -0.1645798706418921
1 2 0 27
14
15
16
17
18
19
20
21
22
23
24
25
26
27
28
29
30
31
32
33
34
35
36
37
38
39
40
-1.216959801589692 1.066222221976842 -6.858022075225179e-17
-1.384532151373441 1.025240419698581 -6.858022075225179e-17
-1.5434415407621 0.9581002194148085 -6.858022075225179e-17
-1.689633491435683 0.8665146633031907 -6.858022075225179e-17
-1.819378002940202 0.7528205022197156 -6.858022075225179e-17
-1.929364721425228 0.6199185748938969 -6.858022075225179e-17
-2.01678740134857 0.4711997947582248 -6.858022075225179e-17
-2.079415505158057 0.3104586328137816 -6.858022075225179e-17
-2.115651114127209 0.1417963039651131 -6.858022075225179e-17
-2.124569698298783 -0.03048387303269522 -6.858022075225179e-17
-2.10594370531538 -0.2019862721861878 -6.858022075225179e-17
-2.060248366282157 -0.3683351120398535 -6.858022075225179e-17
-1.988649570528546 -0.5252861011308894 -6.858022075225179e-17
-1.892974118637174 -0.6688347285551999 -6.858022075225179e-17
-1.775663112716235 -0.7953184366754126 -6.858022075225179e-17
-1.639709673134715 -0.9015100690951825 -6.858022075225179e-17
-1.488582570840833 -0.9847002096304428 -6.858022075225179e-17
-1.326137723739569 -1.04276631144784 -6.858022075225179e-17
-1.156519815246417 -1.074226852581616 -6.858022075225179e-17
-0.9840565451613218 -1.078279136083197 -6.858022075225179e-17
-0.8131482109886932 -1.054819770355228 -6.858022075225179e-17
-0.6481554369702682 -1.004447307126532 -6.858022075225179e-17
-0.4932879153576227 -0.928446969761635 -6.858022075225179e-17
-0.3524969986244143 -0.8287578615529422 -6.858022075225179e-17
-0.2293748830640278 -0.7079234906564279 -6.858022075225179e-17
-0.1270629560430047 -0.569026873997611 -6.858022075225179e-17
-0.04817164537545138 -0.4156118759329611 -6.858022075225179e-17
1 3 0 4
41
42
43
44
-1.594503783711233e-17 0.2078403924636041 -0.08903145896375834
-1.710216645872094e-18 0.0777279348892457 -0.1302004680756746
9.139885044304056e-17 -0.07774444796249733 -0.1301981354282294
-1.52811669999443e-18 -0.2078404194611772 -0.08903144288579856
1 4 0 8
45
46
47
48
49
50
51
52
-0.0435932409670603 0.4044558108905638 -6.858022075225179e-17
-0.1143804509615737 0.5480394647719414 -6.858022075225179e-17
-0.2056185314525129 0.6795871910645931 -6.858022075225179e-17
-0.3153002577797039 0.7962024153465207 -6.858022075225179e-17
-0.4410156042386393 0.8953227628496798 -6.858022075225179e-17
-0.5800022399783846 0.9747702719999622 -6.858022075225179e-17
-0.729206225423658 1.032799250551058 -6.858022075225179e-17
-0.8853491161865088 1.068134633507205 -6.858022075225179e-17
1 5 0 4
53
54
55
56
1.780563153798334e-17 -0.207840316884935 0.08903150256840281
3.238353210065154e-20 -0.0777273215480261 0.1302005543590553
-3.733786209318339e-18 0.07774513949235742 0.1301980353621034
-2.061031070393964e-17 0.2078404115744247 0.08903144785406721
1 6 0 9
57
58
59
60
61
62
63
64
65
1.045 1.026524758424985 0.1645798706418928
1.045 0.8865247584249848 0.2662958245626432
1.045 0.7134752415750135 0.2662958245626426
1.045 0.5734752415750136 0.164579870641891
1.045 0.52 -1.333504655962067e-15
1.045 0.5734752415750154 -0.1645798706418934
1.045 0.7134752415750154 -0.2662958245626432
1.045 0.886524758424986 -0.2662958245626428
1.045 1.026524758424986 -0.1645798706418921
1 7 0 8
66
67
68
69
70
71
72
73
0.8853491161865091 1.068134633507205 -6.858022075225179e-17
0.7292062254236583 1.032799250551058 -6.858022075225179e-17
0.5800022399783838 0.9747702719999617 -6.858022075225179e-17
0.4410156042386375 0.8953227628496786 -6.858022075225179e-17
0.3153002577797026 0.7962024153465195 -6.858022075225179e-17
0.205618531452512 0.6795871910645921 -6.858022075225179e-17
0.1143804509615738 0.5480394647719415 -6.858022075225179e-17
0.0435932409670603 0.4044558108905642 -6.858022075225179e-17
1 8 0 27
74
75
76
77
78
79
80
81
82
83
84
85
86
87
88
89
90
91
92
93
94
95
96
97
98
99
100
0.0481716453754516 -0.4156118759329616 -6.858022075225179e-17
0.1270629560430058 -0.5690268739976129 -6.858022075225179e-17
0.2293748830640293 -0.7079234906564297 -6.858022075225179e-17
0.3524969986244165 -0.8287578615529438 -6.858022075225179e-17
0.4932879153576248 -0.9284469697616361 -6.858022075225179e-17
0.6481554369702709 -1.004447307126533 -6.858022075225179e-17
0.8131482109886964 -1.054819770355229 -6.858022075225179e-17
0.9840565451613257 -1.078279136083197 -6.858022075225179e-17
1.156519815246421 -1.074226852581616 -6.858022075225179e-17
1.326137723739574 -1.042766311447839 -6.858022075225179e-17
1.488582570840839 -0.9847002096304399 -6.858022075225179e-17
1.63970967313472 -0.9015100690951793 -6.858022075225179e-17
1.77566311271624 -0.7953184366754081 -6.858022075225179e-17
1.892974118637178 -0.6688347285551947 -6.858022075225179e-17
1.988649570528549 -0.5252861011308831 -6.858022075225179e-17
2.06024836628216 -0.3683351120398465 -6.858022075225179e-17
2.105943705315381 -0.2019862721861819 -6.858022075225179e-17
2.124569698298784 -0.03048387303268973 -6.858022075225179e-17
2.115651114127208 0.1417963039651173 -6.858022075225179e-17
2.079415505158056 0.3104586328137852 -6.858022075225179e-17
2.016787401348568 0.4711997947582283 -6.858022075225179e-17
1.929364721425226 0.6199185748938991 -6.858022075225179e-17
1.8193780029402 0.7528205022197176 -6.858022075225179e-17
1.689633491435681 0.8665146633031918 -6.858022075225179e-17
1.543441540762099 0.9581002194148089 -6.858022075225179e-17
1.38453215137344 1.025240419698582 -6.858022075225179e-17
1.216959801589691 1.066222221976842 -6.858022075225179e-17
2 1 0 351
101
102
103
104
105
106
107
108
109
110
111
112
113
114
115
116
117
118
119
120
121
122
123
124
125
126
127
128
129
130
131
132
133
134
135
136
137
138
139
140
141
142
143
144
145
146
147
148
149
150
151
152
153
154
155
156
157
158
159
160
161
162
163
164
165
166
167
168
169
170
171
172
173
174
175
176
177
178
179
180
181
182
183
184
185
186
187
188
189
190
191
192
193
194
195
196
197
198
199
200
201
202
203
204
205
206
207
208
209
210
211
212
213
214
215
216
217
218
219
220
221
222
223
224
225
226
227
228
229
230
231
232
233
234
235
236
237
238
239
240
241
242
243
244
245
246
247
248
249
250
251
252
253
254
255
256
257
258
259
260
261
262
263
264
265
266
267
268
269
270
271
272
273
274
275
276
277
278
279
280
281
282
283
284
285
286
287
288
289
290
291
292
293
294
295
296
297
298
299
300
301
302
303
304
305
306
307
308
309
310
311
312
313
314
315
316
317
318
319
320
321
322
323
324
325
326
327
328
329
330
331
332
333
334
335
336
337
338
339
340
341
342
343
344
345
346
347
348
349
350
351
352
353
354
355
356
357
358
359
360
361
362
363
364
365
366
367
368
369
370
371
372
373
374
375
376
377
378
379
380
381
382
383
384
385
386
387
388
389
390
391
392
393
394
395
396
397
398
399
400
401
402
403
404
405
406
407
408
409
410
411
412
413
414
415
416
417
418
419
420
421
422
423
424
425
426
427
428
429
430
431
432
433
434
435
436
437
438
439
440
441
442
443
444
445
446
447
448
449
450
451
-1.175992450759199 0.6336290421686427 -0.2345196397005803
-1.183751100541739 0.6359104791676318 0.2369826117792177
-1.234602494413281 -1.022232211795571 -0.1447744904233881
-0.05841852047102536 -0.1697532743817649 0.1948518170366431
-0.2835553615892246 0.7161720346356243 0.1349688532695593
-0.2788583575170417 0.7141385245056309 -0.1311949476622835
-0.05679701191272635 0.168797756183777 0.1933581422432969
-1.993680303609239 -0.4451396515926307 -0.1301304967561717
-0.2079150664554609 -0.6166008553079496 -0.1447744904125943
-0.444206024398304 -0.8485012667148696 0.144774490410788
-0.05959333874450845 0.1712385214331268 -0.1957809791615516
-1.698883653498448 -0.8132144942854533 -0.1382397352775526
-2.083134757152596 0.04772262354827869 -0.1454939647415428
-0.05666060081969415 -0.1790787010709797 -0.1913308521616136
-0.8980731794501589 0.5220114859214677 0.1094894973092246
-1.944902082929661 0.5262236689343868 -0.1400367722559562
-0.6527560711588476 0.9724363834728403 -0.1289015752481713
-0.6594145504397091 0.9690168706623756 0.1392578063499667
-1.845956882029464 0.662854338345659 0.1447744904123866
-0.4345427536065152 -0.8439691377639296 -0.1415160657210881
-0.2079150664553173 -0.6166008553080554 0.1447744904122989
-0.741421474845199 -0.9943580239526238 0.1447744904122993
-0.9044129627009039 -1.034419504794178 -0.1374717659152461
-1.069421800524901 -1.039380284781876 0.1447744904122994
-1.394945593710252 -0.9790024934477491 0.1447744904122992
-1.684982583488376 -0.8193473583076194 0.1447744904122999
-1.910121096096052 -0.5766049686082277 0.1447744904123001
-2.047960433909283 -0.26891926847404 0.1468731430480487
-2.08327684203078 0.05374941894311062 0.1447744904122999
-1.743593396435605 0.7747688686922104 -0.1387299468187258
-2.013734934664932 0.3774393025293729 0.1447744904122997
-0.1034167482942528 0.4642036162478261 0.1265060179400056
-0.09308433607474653 0.4450242149286991 -0.1244874693212308
-1.599406832634227 0.8726037027573286 0.1540246778532083
-0.8969804318350173 0.6296928505005777 -0.2344076814979825
-1.186585738730088 0.9580910545926293 -0.2236269505971954
-1.185090188977089 0.9610332086594386 0.2215715934317019
-0.8947552723029115 0.8080318409748424 0.2791437031971571
-0.07042548760178169 0.0346211666133715 0.2184232609446159
-0.07802244490154164 0.04220935127134468 -0.2240761993587662
-1.456256702457843 0.9587025064172762 -0.1387778000907128
-0.06308458362435088 -0.265929388792584 0.1765944942118755
-0.06386382250716749 -0.2695501182894747 -0.1763467972248278
-0.8965183714385465 0.9739064683987189 -0.2100373857879829
-0.05798533642869619 0.2747927832750647 0.1672600159152098
-0.06450668917624292 0.3099403150019991 -0.1620883023220707
-0.1769137920532997 0.5908730601356549 -0.1259018249374598
-0.1989745964346014 0.4885307174504047 -0.2170035001449496
-0.1680232724774764 0.1341846822414042 -0.2660810424709623
-0.2074430161922957 0.009163348085212615 -0.2774629802269118
-0.152074915193612 -0.2256932453829511 -0.2525024151406491
-0.1508944605423773 -0.2454979498898285 0.2494413092838196
-0.1194998856864513 -0.3701656566271853 0.1991911074445004
-0.136349843709848 -0.3654963293330149 -0.214974689704139
-0.1633067457459041 -0.1109811805381296 0.2655957045722944
-0.8799426274066221 0.5133251251441977 -0.1019224566261657
-0.7680338631063074 0.4401574156497558 0.005125327342292779
-0.1638733524017764 0.146807501319845 0.26400786304532
-0.3000441293510323 0.1064565534443505 -0.275945686008672
-0.3415527804848769 -0.02585118482128682 -0.2630000580155737
-0.2648552103699734 -0.3388305390890972 -0.2753995137361139
-0.4258966595853994 0.07478480725851884 -0.2174497289577603
-0.3993588043218002 0.2085761316824592 -0.252263216489392
-0.2687339813220522 -0.1817955966694015 0.2799866855387125
-0.4564253005055837 -0.06049501949942283 -0.1870852131678313
-0.5044548912946997 0.0376147386510387 -0.1084423800182009
-0.7482696300733499 0.4836824595373576 0.1559478496056706
-0.6672673708789456 0.3751046217023033 0.08220640775993711
-0.6135629457327889 0.4366486516756222 0.2091520623180025
-0.568237688511642 0.3171493514763762 0.1633869553704766
-0.4783798973592577 0.3895523722911455 0.256454274836565
-0.5253099916265067 -0.100458803081402 -0.07160468314528395
-0.5226701593211984 0.0006790877182569746 0.03604896357216784
-0.671117113231477 0.3732700870678987 -0.06773779161011079
-0.6761595631537975 0.5721673837484674 0.2533359937983274
-0.4461651200406002 0.2273456040386535 0.2301563537137512
-0.3393720858663857 0.3417168638441737 0.279543401593848
-0.2851932243077953 -0.05367121584815026 0.2773681890607617
-0.5340378919752571 -0.1411311129119306 0.07450547526850336
-0.5778518872280614 -0.2332693509264387 -0.03464222205487002
-0.5767954989954664 -0.2731857603250191 0.1089724003525763
-0.657419115235607 -0.3468430108808921 0.008004100651949109
-0.6497779826989125 -0.4024133176700344 0.1507352685595908
-0.7649271611475272 -0.4464981345024336 0.06251789486913277
-0.7315008203022018 -0.5193222922603105 0.2024866555108721
-0.8828176050916503 -0.5293806313128165 0.1331164143224842
-0.8738878540202191 -0.4957806862783566 -0.04987971795133692
-1.028036406038943 -0.5239002978081229 0.04817149616192932
-1.015878912284035 -0.5462533054437341 -0.1200236061997298
-1.165872807900622 -0.508984606771647 -0.04181622303378214
-0.8792357748350177 -0.567230039150208 -0.1862797541643388
-1.007956507597856 -0.6583171238610149 -0.2421156204731666
-0.5939752455531516 -0.5118699539581101 0.2540267833821024
-1.181474756732015 -0.5326589528601292 0.1258261074506624
-1.306578359662439 -0.4539718636956387 0.04680999360258947
-1.315944647153391 -0.4749558303114886 -0.1195471488201456
-1.423004686294384 -0.3618995990265919 -0.04295992704514301
-1.438750369735754 -0.38267970251801 0.1242438384302077
-1.508019188406989 -0.2462193353359393 0.04952491679421423
-1.566521476867049 -0.2962755051356382 0.1957580741514893
-1.58707510630239 -0.1358201710080464 0.1422593020027443
-1.556574818277494 -0.09674543292600943 -0.01895553851884679
-1.579379717623635 0.02676349091582983 0.09056065565847159
-1.57222846676229 0.06106926308380736 -0.07685271061220017
-1.534325698461404 0.1831441254484654 0.03715584106354551
-1.54945374521248 0.222872795156156 -0.1290150085604301
-1.625187769161431 -0.07738626019474808 -0.1797638924462461
-1.459552273513774 0.3167430914292604 -0.03088444182930303
-1.502897137684655 0.3175674400528302 0.1395301034329474
-1.501279178032341 0.3788037543694225 -0.1885811703339218
-0.6043552163195651 -0.3380896171250545 -0.1362801281220893
-1.460890727013922 -0.4294490929030581 -0.1937116864648564
-1.380993086920946 -0.5701393811610483 -0.2435050501432508
-1.532553930141154 -0.4552501225101765 0.2464253532847878
-0.6677677779896954 -0.6602200860114681 0.2771843060818474
-1.677085369111263 -0.01580679977513476 0.224211957138343
-1.639691960455117 0.308320767640417 -0.2479215531446571
-1.605637761483972 0.4752449434479172 -0.2723423431086245
-0.8543748129854165 -0.7029095638313986 -0.2706640063796033
-0.7278977956787491 -0.6010005697450584 -0.2527567982045271
-1.374754323767315 0.4211345737613988 0.09005120190602503
-1.478726282903104 0.4663785451159053 0.2275846217627595
-1.617297863409214 0.3747651289647893 0.254880285655237
-0.3721833650073492 0.4917603148154702 0.2780040429560027
-0.6964789681858785 -0.753684739008028 -0.2783485398686709
-0.5742117353220029 -0.6415917339386488 -0.2799683463233906
-0.7506196128569105 0.5477572956523596 -0.2160155200921325
-0.7489185706422324 0.6828226773042764 -0.2743941674740618
-0.6185493891130862 0.5908433719717769 -0.2707612304550358
-0.5983570255803177 0.7394609108115706 -0.2726152411710309
-1.546570290926462 -0.5513173925899256 -0.2746118915374693
-1.61827145828429 -0.3940915793476966 -0.2598345428157214
-1.71534142390608 -0.5401594108434132 -0.2732993481180898
-0.4811429631498169 0.6409956695443433 -0.2748015649313459
-0.5036186284027252 0.4912732338096265 -0.2713793536605661
-0.4761882838270424 0.7880577074412348 -0.2210244007314999
-0.5470866663473566 0.1513550688954582 -0.01513772467399576
-1.694056293222717 -0.3807638593748823 0.2759414484755615
-1.665948734135622 -0.5573705216403417 0.2778776451712137
-1.507289099047317 -0.6212994862986471 0.2788289710625798
-1.456497093693954 0.5275576496932018 -0.2474991349210637
-1.615397332196245 0.545232655215651 0.2797865959179445
-1.464573912360734 0.6286653880909001 0.2764923936762303
-1.765412356420832 0.4606093683974776 0.2745298435729188
-1.773670001434113 0.276841353842239 0.2792476434705281
-1.476594765458519 -0.7058438478355034 -0.2786621378477608
-1.299281867594122 -0.7268869758332567 -0.2783968790251475
-1.412618081911185 -0.8572156232555067 -0.2465483757941761
-0.982590157311516 -0.8082254679161984 -0.2797980908530289
-0.478432342062255 -0.197773828916883 0.1960555726583008
-1.782132818923659 -0.3751174470321828 -0.2786864387150365
-0.5166036780023576 -0.652342304784036 0.277200439722133
-0.4282077956696573 -0.5085709037973901 0.2799994052958578
-0.7085163638645674 0.8191676032516036 -0.2666000630656817
-0.3745990185366089 -0.1580542119771495 -0.256963476195338
-1.541276017490703 -0.2527012301837029 -0.1389490441311134
-1.676887839034821 0.1278399598353868 -0.232978170812531
-1.764072016703286 -0.03736263336422327 -0.2683406860086988
-1.820354990035542 0.1243006165380032 -0.2796115091181428
-1.569273066759704 0.6436159289446461 -0.2783749672357564
-1.427825723893297 0.6861401725009361 -0.2796352313090367
-1.723932399601037 0.6222524783009159 -0.2525298029830118
-0.4986448277331864 0.09699169716428653 0.1353692027957575
-1.706543033714865 -0.1890024895663959 0.2566296706498238
-1.855128049911472 -0.09548153258255213 0.279557504625374
-1.844052260234628 -0.2980015617710655 0.2749742209354459
-0.3766761573131359 0.556767745354866 -0.2711463265016549
-0.3887619271450707 0.427305437822387 -0.2794892362912568
-0.4814804060206266 0.3330635672497618 -0.2392810058654792
-0.4652475332128932 -0.05390996026576267 0.1760297908871845
-0.3988693452744007 0.07156542272951308 0.2364837270197016
-0.3120889839454626 0.1885174690210853 0.2766423153199963
-0.7209287887024232 -0.429512751736615 -0.09891865426388127
-1.349000046424367 -0.5293500844595689 0.2060681215969673
-1.197125041990146 -0.6517540797367497 0.2476091030770778
-1.012401458721504 -0.6175092821569529 0.2130967534493318
-1.076546806742194 -0.7563252370005589 0.2766758509656942
-0.9366783294619632 -0.7323804664394523 0.2735719362729386
-1.241983339156346 -0.8109778940887293 0.2778591781573933
-0.9654557623050894 -0.8719406633227951 0.2696117046739917
-0.4982214018637596 -0.3586477693535577 0.2388660507916221
-0.3640861549558257 -0.389542193112363 0.2795687615891634
-0.2931642711288017 -0.5130033128104907 0.2574104858128071
-0.2388221537205687 0.4387638977408285 0.2539939700398969
-0.205073997340008 0.3014600612650601 0.2643193421348137
-1.184819240697622 -0.5977148928350625 -0.2091611506712712
-1.632527673975962 0.1799708650117668 0.209714325383759
-1.205997894928269 0.5119206804550852 0.09508844584764009
-0.3623806745971918 -0.642562750439152 0.243928503343932
-0.7878586687381655 -0.8214091048671696 0.2733374974678363
-0.5977240967708928 -0.7968909934281498 0.2558163766705714
-0.8623138445978364 0.8166726342461015 -0.2775637135610885
-1.681578232308786 -0.2396078115186585 -0.2530671388817907
-1.839453078728226 -0.187478090143933 -0.2795266485406311
-1.9443210918197 -0.03786015312957119 -0.261488914540043
-1.985880126335367 -0.1925463749733594 -0.2295175228598453
-0.531749100359872 0.5426419473781563 0.2749223899330362
-0.5811460383954102 0.6876599925858603 0.278443783413335
-0.4081157331889796 0.635239116385069 0.2617139897958423
-0.4657647440903968 0.7778534056284129 0.2226160727396395
-1.521442792497758 0.8111661601273703 -0.2420594391638838
-0.790737488523927 0.5896561456320117 0.2312579169293705
-0.7395752991485292 0.7091881067105451 0.2786125782504693
-1.609800131845105 0.7231768364418405 0.2541082204843815
-1.791651043660884 0.1007963150829203 0.2760990282533834
-1.926352977720844 0.2347886042882881 0.2565847991486588
-0.6216548476946215 -0.486987305872278 -0.2333659736318793
-0.449365793213816 -0.5334714904633228 -0.2799997247112571
-0.2654500921335932 -0.4899118135128344 -0.2526429783005153
-0.4312733870686357 -0.7073370211912333 -0.2444882168877218
-1.358069555415722 0.4436415517948294 -0.1110953800839959
-0.6093330962527594 0.8383794173383476 0.2396393850256415
-0.5139364710754043 0.9016694401396935 0.1329188696733185
-0.3205403327662767 -0.7494498714968869 0.1402178218266161
-0.498227380330092 0.1798604333751217 -0.1674591856450779
-0.4964738791523454 -0.2123353842200446 -0.183129549524484
-0.5016073826924003 -0.3846081130427373 -0.2457072896281592
-1.249499212688727 -0.8945440131980404 -0.2540968730625688
-0.1811988999737113 0.5949130655607847 0.1283613095415059
-0.833584302308271 -0.8578410073558473 -0.2672569571223392
-0.6996041327628737 -0.9067975861094698 -0.2222176727523243
-1.62604637567094 -0.6807615718944163 -0.2633860624748929
-1.790683776550149 -0.6641124775644687 -0.1974344651818408
-0.2743928855898294 0.5966192841429089 -0.2189171991639188
-1.191193183252814 0.5153793586812609 -0.09247885231890103
-1.464951706021879 0.8081212330805645 0.2571770887287264
-1.4331679592932 0.9493000103989109 0.1658521826570362
-1.553165608109631 -0.8139534357761827 -0.2300893103533003
-0.240905031266341 -0.115717578503327 -0.2797262338236546
-1.756219793137339 0.4218000062053512 -0.2787057057682371
-0.7652134156617432 0.8982975976475739 0.24198806949972
-0.6095833847249399 0.8770351916830452 -0.2151680590670716
-0.825675156225531 1.015394850358116 0.1461810299284098
-1.184242944110352 0.8000000000000042 0.2797415596240747
-1.177449222994132 0.7967420167974536 -0.2798947622085839
-1.346030917400993 0.8687475687322791 -0.2532542568874732
-1.615159558690612 0.8750158522608825 -0.1366646515221018
-0.6282586032232305 0.4444846681511439 -0.2050158102868274
-1.949547361015841 0.0681051208817522 0.2587043825586239
-1.997746572012229 -0.0986007139259726 0.2312748852791162
-0.3099339574800646 -0.7390554668957807 -0.1402110638195768
-0.588524043551871 -0.9359369377808093 0.1420015746217897
-1.07178551585778 -1.044039437921426 -0.1366636689544284
-1.868148777129493 -0.5119498087737586 -0.2229705002421465
-0.2731142839102336 0.2361879745809936 -0.2799070866950379
-1.391741168559789 -0.9814574083407193 -0.1427012803372633
-0.9002112269170219 -1.032439973142557 0.1399030065813002
-1.84796129814972 -0.4666743313143962 0.2486556763308228
-1.232132650705365 -1.025610773146159 0.1399030065812996
-1.545077582987564 -0.9147778407606916 0.1399030065813001
-1.421620817033617 -0.8542101479485797 0.2460975894310748
-1.338617815584067 -0.6902012121504858 0.275510323870554
-2.080335710645892 -0.1176022499523588 -0.1408516113035073
-2.06240459189303 0.2141485754261613 -0.1447235931668066
-1.803420007802684 -0.7122384244413341 0.1435121940845558
-2.013959123851583 0.377526651304787 -0.1443754311354165
-1.942532122563561 0.2573050046662658 -0.2460244306809546
-1.991159368082644 -0.4356216719027621 0.1414817746558884
-2.062293721840746 0.2158221594868932 0.1443294296058478
-1.337087099384946 0.5577322626960273 0.2221699953848631
-1.943840708768858 0.5246568587766212 0.1429512882450228
-1.85604421693077 0.6554767020730444 -0.1394478201538882
-1.736782258660231 0.7735929737759635 0.147836923266852
-1.140602079389988 -0.7331136667898385 -0.2733460222448775
-1.32558127726222 0.7161344176690898 0.2782940546684254
-0.1458312848075694 0.3811778947923265 -0.217262012161166
-0.6034981440132468 0.2758963302910334 0.01858677990237704
-0.2821961473260124 0.5900245095962734 0.2266811717519538
-1.890459791032373 0.3998965386920181 0.2451602369939958
-1.119921565011183 -0.9368521546815674 0.2425775862651761
-1.328641742181609 0.8792354034311632 0.2511175219362227
-0.5508408215223264 -0.8094344756103684 -0.2374673738053001
-0.265502876016778 0.3773896610633826 -0.2720986832032031
-0.1075553945649859 -0.4820665158815178 0.1175492786185907
-0.3826975798337808 0.8145246829300441 -0.1264769187213772
-1.634421729622049 -0.7083609079939215 0.2522571612635551
-0.3666117813055051 0.6961746024969614 -0.2209091256610051
-0.7318889254708778 -1.001224177792431 -0.1279775481295272
-0.3870176884728422 0.8179025542147446 0.1266551681838693
-0.1164290272983529 -0.08756089126942787 -0.2465630095419129
-0.2713492443300549 0.062747525049623 0.2789859135503046
-0.7978641243879143 1.023246940261994 -0.1206596706075641
-0.1071372051407293 -0.4822815633814565 -0.1165272767211187
-1.973547323996956 0.116257804116027 -0.2448656305194231
-0.5769118456149465 0.2882482461881458 -0.1255412341790028
-0.3846933890805426 -0.1283770757659482 0.2493735713121638
-1.790347663849494 0.2720373072270845 -0.2799231496880383
-1.305806949819349 1.01353022260165 -0.1327171193457359
-1.293524525335034 1.016933945126877 0.1321339434232497
-0.5083821369186756 0.9023122760170161 -0.1264475462029688
-0.1444729353187153 0.2578216958487998 -0.2443584410095796
-0.8954039720592258 0.9524292362803544 0.2268682735342904
-1.735360014168182 0.6300322689013773 0.2455079088495451
-1.931014983175545 -0.3478671735715596 -0.2352425834343239
-0.9765234888142141 -0.9542307924309928 -0.2320558851684666
-1.899370667790713 0.4050077834186733 -0.2392240917584437
-2.090304969907911 -0.1135251934149135 0.1231750666318515
-0.3759507525799667 -0.4197575684435808 -0.2798150577705914
-2.05103790239498 -0.2899579138149932 -0.131893854268532
-0.1226673988910311 0.3708965305815661 0.2017918399257854
-1.551755911584822 -0.9190637447667608 -0.1270540974277929
-1.104844343400939 -0.8726142105383224 -0.2698616400608239
-0.3790266943573396 -0.2609704100477364 0.2668755950468798
-0.5783602054525034 -0.9377233145125661 -0.1310951133573105
-0.8249409649057494 -0.6368506786590569 0.2499464871405325
-1.309092834332891 0.5664684484917035 -0.2185791112714319
-1.792545646243055 -0.5968195688826979 0.232136073470794
-0.2408106553479296 -0.3615844234532153 0.2678035166492415
-0.6865257494785665 -0.8901528766827569 0.2300446900331092
-0.3218962379080156 -0.6233163257434665 -0.2334008967584418
-0.07561313683356508 -0.06659532534029325 0.2211986411754621
-0.03217252353877709 0.3275160440873258 0.09196811722262896
-1.289972776476352 -0.9290640400092478 0.2292106021865424
-1.276736259645531 0.4655297197316469 -0.003249743209369672
-1.956809452844369 -0.2237489025933964 0.2431411359122116
-0.122043322380555 0.2430295802318014 0.2335707467231661
-0.5420797582904918 0.2078643702542682 0.1138342654797296
-0.02969633276496109 0.3359727240769349 -0.07614282046438556
-0.359141222566278 0.3167423687804092 -0.2764356536187826
-0.4417860515842358 -0.7424325479546943 0.2321166585757943
-0.7460889063000019 0.4583370302789574 -0.120369638664066
-0.03574840638730836 -0.333419383532795 0.09635029133203604
-1.910754917164011 -0.6052357331389226 -0.1126623077299182
-1.166785962903114 1.042974667088935 0.1259743087629188
-1.549506849650021 -0.8156084066574144 0.2304528476336544
-0.03372469080205009 -0.3379862978289434 -0.08663190966295133
-0.9174367097228594 0.6684757663277103 0.2532368034274009
-0.8462989267920218 -0.9410243572585459 0.2285371266915935
-0.3926768422613324 -0.2863527971235163 -0.265946288921492
-0.7538273612633276 0.9385496634222055 -0.2121993789790483
-0.9220752461867334 1.047515123650391 -0.1163029625339286
-0.1724293195292325 0.005798911236022905 0.2704268833650495
-0.2760397792001652 -0.2197959308107853 -0.2799998939104928
-1.172413224958591 1.044060545040247 -0.1224482469583303
-1.836634173861098 0.5546293758156307 0.225049763156761
-1.841051900141053 0.5325597132485328 -0.2313210620777209
-1.638098442923384 0.746150931410264 -0.2343995324797493
-0.9318877689682478 1.047036757997973 0.1196903980167969
-0.1796825762608577 0.5063829502896429 0.1932744759568644
-1.828578129112791 -0.7196237368746486 -0.09361774226761829
-0.1830976472593882 -0.4901670609891596 0.2042419570821805
-1.126103639938205 -0.9705743989883427 -0.2194058378670105
-0.8242335743737254 -0.9575205632274346 -0.2122315831714658
-0.3693265517161549 0.7196933920250285 0.2082535873623181
-0.3015139621510603 0.4847721455674678 -0.2659548584985552
-0.7729963920748153 -0.5163718896635118 -0.1777209407254382
-0.383725526875917 -0.03160828438109685 0.2436475558155768
-0.9851248246430244 -0.9771807256149917 0.2153002743849405
-1.465949499356913 -0.7336966901061672 0.2762159012963322
-1.943238943712398 -0.3512046030197359 0.2266137644534781
-1.276798599818545 0.6918869411016075 -0.2710269384931792
2 2 0 348
452
453
454
455
456
457
458
459
460
461
462
463
464
465
466
467
468
469
470
471
472
473
474
475
476
477
478
479
480
481
482
483
484
485
486
487
488
489
490
491
492
493
494
495
496
497
498
499
500
501
502
503
504
505
506
507
508
509
510
511
512
513
514
515
516
517
518
519
520
521
522
523
524
525
526
527
528
529
530
531
532
533
534
535
536
537
538
539
540
541
542
543
544
545
546
547
548
549
550
551
552
553
554
555
556
557
558
559
560
561
562
563
564
565
566
567
568
569
570
571
572
573
574
575
576
577
578
579
580
581
582
583
584
585
586
587
588
589
590
591
592
593
594
595
596
597
598
599
600
601
602
603
604
605
606
607
608
609
610
611
612
613
614
615
616
617
618
619
620
621
622
623
624
625
626
627
628
629
630
631
632
633
634
635
636
637
638
639
640
641
642
643
644
645
646
647
648
649
650
651
652
653
654
655
656
657
658
659
660
661
662
663
664
665
666
667
668
669
670
671
672
673
674
675
676
677
678
679
680
681
682
683
684
685
686
687
688
689
690
691
692
693
694
695
696
697
698
699
700
701
702
703
704
705
706
707
708
709
710
711
712
713
714
715
716
717
718
719
720
721
722
723
724
725
726
727
728
729
730
731
732
733
734
735
736
737
738
739
740
741
742
743
744
745
746
747
748
749
750
751
752
753
754
755
756
757
758
759
760
761
762
763
764
765
766
767
768
769
770
771
772
773
774
775
776
777
778
779
780
781
782
783
784
785
786
787
788
789
790
791
792
793
794
795
796
797
798
799
1.193019568164763 0.6296928505037909 -0.2344076814999933
1.221418844061839 0.6388732639547486 0.2440732975517303
1.244720300022762 -1.023315916726502 -0.1397635871941125
0.05841852047024809 -0.1697532743816738 0.1948518170358687
0.2835553615892231 0.7161720346356231 0.134968853269559
0.2765195266349537 0.7132100865769817 -0.1291375863079169
0.05584525635717197 0.1543497681122181 0.1948045076974418
1.990596377759391 -0.4283336369955515 -0.1473605513775395
0.2144223979731659 -0.6218705505495055 -0.1481670736493649
0.4449931307991866 -0.8385005423833202 0.1581448058485232
0.06074133603331533 0.1736360606330255 -0.1965116902983432
1.70313333126872 -0.8036605876134784 -0.146275558924155
2.085657599621629 0.06129201425156766 -0.1400452076658953
0.05666013397475267 -0.1790790062941359 -0.1913303031959802
0.8962927659406932 0.5117283852041237 0.08400162276766887
1.945514048220662 0.5230579950606521 -0.1418652479198893
0.6615696950957335 0.9762956487786989 -0.1282706130247917
0.6660970320365668 0.9742345002231579 0.1349688532713687
1.852246519812608 0.6444777965394097 0.1553428295878585
0.4315412109062722 -0.8422772697318516 -0.1408414193245632
0.207915066455319 -0.6166008553080569 0.1447744904122996
0.7522233731703303 -0.994980111167294 0.1488439279813039
0.8937502612923821 -1.018170305967519 -0.1606291817792479
1.069421800524905 -1.039380284781875 0.1447744904122999
1.394945593710258 -0.9790024934477467 0.1447744904122999
1.678255282361086 -0.8242236735297949 0.1452122256772781
1.910121096096056 -0.5766049686082223 0.1447744904123003
2.047530593644244 -0.2753910120927193 0.1447744904122987
2.08327684203078 0.05374941894311476 0.1447744904122989
1.731464407604667 0.7802124203294891 -0.1455227721381637
2.013734934664932 0.3774393025293762 0.1447744904122992
0.1034167482942526 0.464203616247826 0.1265060179400057
0.1034167482951202 0.4642036162473983 -0.1265060179419154
1.596956491062517 0.8810515494062687 0.1447744904098296
0.9070463876629793 0.6527409844590246 -0.2464821293522384
1.194714106221614 0.9604803330665085 -0.2208822290238329
1.194714106221351 0.9604803330664291 0.2208822290239254
0.9050775976966682 0.8105643066277735 0.279090272843024
0.07439607826727945 1.039672207731711e-05 0.2220232011984701
0.07808991617036076 0.04342096948333481 -0.2240865454147526
1.449632246951919 0.9576954346028574 -0.1447744904135862
0.06303051526901438 -0.2657852318668521 0.1765766319378843
0.06368045177569981 -0.2690655041046739 -0.1762868817430273
0.8945325750374484 0.9623864178878195 -0.21930989417113
0.05865750927362035 0.2547462467586418 0.1748329475517901
0.05901126157510306 0.2688448004469253 -0.1706549114373938
0.1815550670090497 0.5962120763872663 0.1274963929735757
0.2839987084391834 0.5998131051622391 0.2232708220764345
0.16825484441892 0.1407062989946442 -0.2658238297085869
0.1443440784662292 0.2583481011627494 0.244207816470977
0.2072967040402661 0.00929957988485351 -0.277442906819969
0.3034399634010982 0.1076137462583907 -0.2753766843832993
0.2646752906528589 0.2387785067265739 -0.2795401718426497
0.3950395016234958 0.2067423147375773 -0.2539440793788543
0.359969757538381 0.3366358488205443 -0.2775812346678355
0.424149529253501 0.07812238839646243 -0.2191703520085883
0.4977158512383854 0.1807790085886342 -0.1684906073470157
0.5052825945200028 0.05645577449277429 -0.1103503264246655
0.4555722892152423 -0.0305884895523605 -0.1854527404614246
0.1623869527433449 -0.1042274479025538 0.2655638858800392
0.3854297986011092 0.7000970684353112 0.2284783006583355
0.4128822321802902 0.5692694359217795 0.2753769865736478
0.5474787969406332 0.1625549774646831 -0.04352591563738711
0.5741838937085381 0.2803124737178884 -0.1219339709032441
0.5264239571091612 0.05244898259160831 0.0261272149455004
0.5322161174710381 0.1613094239971674 0.09759058261618916
0.4810229249613563 0.05619439492571636 0.1549311175144444
0.509972655872475 -0.06455916640775197 0.1011489936735081
0.5134894661539379 0.6669132649867612 0.2749756503509535
0.5478861641232342 0.5280008899211845 0.2698224260124525
0.1565803094981392 -0.2540825198666047 -0.2510267058305876
0.444459624235063 0.4306886916704707 0.2732776816496211
0.1835151738745088 0.01984438723490387 0.273114375078514
0.550760180462439 0.3952477300341311 0.2246318389087411
0.4572900359882127 0.1795326642161609 0.209755129968617
0.6665842241759887 0.6124118156179973 0.2682963986996428
0.4307487554192552 -0.06016123152257172 0.2120864042317883
0.4922365813173389 -0.181380481249503 0.1754191965522568
0.556998935924236 -0.182081066024127 0.02197020196580259
0.5723184160957999 -0.3003211325619016 0.1442527463828411
0.6311808244922631 -0.3149017446744215 -0.00225200898155973
0.6794217738643371 -0.4065808542674336 0.1194723386344595
0.7423631644610909 -0.4239688861693536 -0.02245410754402324
0.6333685319742284 -0.3829112623454032 -0.1478108770850537
0.8153881032723395 -0.4904539745244689 0.1076985539357746
0.7466523261263937 -0.4907210573990169 -0.1657067417545451
0.4614446066178345 -0.3103418289716369 0.2430305428628094
0.7140219441780731 -0.5281023172159469 0.2171609111753302
0.8626375538560589 -0.5913886314331334 0.213520252442169
0.9691271718401577 -0.5379550041067859 0.1117784548859057
1.020969338557761 -0.6340451184373543 0.2258536327758794
1.132089015503582 -0.5489398141337003 0.1369996270596372
1.077200508358746 -0.5192975943184875 -0.01284915197288679
1.222266025141205 -0.4911099649751434 0.03441328242743762
1.293072245317204 -0.5277391847575613 0.1771167328526639
1.365798903184599 -0.4207136145132455 0.07067747180726826
1.449688025869768 -0.4840338432869299 0.223186585528206
1.507672234876006 -0.3365264427134355 0.1626912867827898
1.471331735050381 -0.2977270132856183 -0.0002570927728918208
1.550824208230945 -0.1872321504073863 0.1023186641800752
1.546464869168389 -0.1714944880881092 -0.07408422970555392
1.565625416618527 -0.0334916474766146 0.03082169342810599
1.523743552835968 -0.3102619021063728 -0.1603893901148322
1.635354826506153 -0.1933115923303775 -0.2154766833054652
1.630608374855043 -0.06097610860071097 0.1838035138591003
1.592461270145731 0.09956403527049618 0.1381272031006258
1.554650298493428 0.1216331037093732 -0.04694681138214794
1.523347936875769 0.2465857812132039 0.09920837120474503
1.482848385721192 0.3050851318306581 -0.08637467390846558
1.596944668323107 0.2222954348360796 -0.1907522732983109
1.558294084460754 0.3715761430820513 -0.2252439796924378
1.180525129638452 -0.536471792540951 -0.1324826876263796
1.409341613483506 0.3815544308568812 0.06466154511376052
1.508735120537219 0.3875473340633335 0.200305920205355
0.6040739561317598 -0.4943739038814651 -0.243877265764548
0.7081175924343737 -0.6159492791865541 -0.2623110037673279
0.5068164903576966 -0.3710343590055298 -0.2387316383203647
1.03267872467436 -0.5785751845022752 -0.1715491985183444
1.387194071320414 -0.6347734562324577 0.2686636198244696
1.179453654238026 -0.6507421628785245 -0.2450229834551855
1.337915262330503 -0.5591908695200264 -0.2234458319552407
1.00448711052688 -0.7271290223216165 -0.2706527435591294
1.717849044488087 0.07025650330487214 0.2512956341095723
0.739210930240085 -0.6784881833286418 0.2743862682039048
1.322253046731343 -0.7379077773612472 -0.2797543911719486
1.775675150744186 -0.09338411021257292 0.2727320689783695
1.656426599740145 -0.351016570224339 -0.2633990473225279
1.601535244139482 -0.448590742349763 0.2667284567732253
1.696629362649076 0.3059654039038905 -0.2682941015581861
1.740249024127166 0.1410004359298936 -0.2649380056167279
1.855494031718068 0.2473063185546222 -0.2759613763032252
1.656854022908986 0.4727620040916492 -0.2787164055065308
1.509462283525346 0.529313084226154 -0.2631014030630694
0.4982178259526664 0.7936737003255843 0.2270974606212021
0.4542506129860786 -0.5037584900986437 -0.2790015026827886
0.5811157567716794 -0.6125967500679705 0.2782129759680414
1.468973739310869 -0.6590619340491672 -0.2795225681733968
1.784001977202637 -0.248774788492735 -0.2792669136309136
0.3637518159771105 -0.3752428821546217 -0.2791151360701167
1.461146697235746 -0.8256979304220015 -0.2507297497092227
0.1348162274129604 -0.3916708280019349 -0.2048544204652528
0.4315004771987033 -0.2538310212642809 -0.2447177149195964
1.604544786130816 -0.0368260036597141 -0.145471578815777
0.2267852680800949 0.3706765369118992 -0.2621914950084392
0.3211388291445482 0.4787007086008871 -0.2716598159471711
0.4589663771707394 0.4359953413588676 -0.2712193837665834
0.42249800498199 0.5726339664403164 -0.2762248226752905
0.5611365971709577 0.5366203470876912 -0.2690765955173377
0.5238616695911514 0.6776028195780343 -0.2745794989789521
0.6574857971889605 0.6422961731784108 -0.2755251123495221
0.6793609302832271 0.4997270415209592 -0.2138092564829396
0.6245080305668215 0.7857208598300829 -0.2647439928753875
0.4965923725166974 0.814074824121547 -0.2131533602854026
1.350757555666104 0.5129563129128114 0.1930283428373433
1.510024138914999 0.5502563547219345 0.2684580653751925
1.662485175870138 0.4424546323358436 0.2770760357970762
1.29331965377591 0.4609012609378015 0.04437422285230911
1.356120075838779 0.4367456354550215 -0.0939431093576749
1.750447967712642 -0.03011007977027479 -0.2637820318099361
1.908615343908698 -0.1263935463268765 -0.2703662549653295
1.651910451857953 0.2279218282123857 0.2353425574075674
1.802425592844882 0.3331781580269931 0.2786495611558059
0.5578055704867529 -0.2695272941306759 -0.1387219237677517
0.8965081156709028 -0.5042382147943661 -0.05595608055544372
1.885128533904599 0.04107063701468292 0.2769624032108512
1.218716967005958 -0.6727957556490437 0.2595106475119514
1.078000255943879 -0.7872785898304273 0.2797414470118921
1.239739208451753 -0.8163273561746716 0.2772376111039886
0.6082953904409043 -0.7760561746553009 0.2649743213907009
1.408560675726427 -0.4065674771097795 -0.1165529501825106
1.525525654592766 -0.4799879033947242 -0.2525943756696198
1.6130121399575 -0.5933640460177463 -0.2791800493708485
1.831999413192716 -0.4368019893243408 -0.2614990714471586
1.939509652852171 -0.1185103373149161 0.2606326701005974
1.834563228633846 -0.2512863054856799 0.278536955853478
1.88630262915468 0.07812193881256094 -0.2763729649830601
1.672440613278116 0.6185389311095441 0.2680089154458038
1.940982406608209 -0.2903569758544675 -0.2414063745608504
1.896806701302326 -0.5739493006991402 -0.1637460073101515
2.041211752037681 -0.1761915436153496 -0.1832886755431328
1.80907713865327 0.5052186659957754 0.2548401891976788
1.663096783661557 -0.2561258674904874 0.2474980129315421
1.523783651875646 0.7180699747006217 0.2728085050437912
0.5227671961237195 -0.04677773234461359 -0.04901564126237321
1.617767433388664 0.6405429954791425 -0.2736533852303175
1.468545781869472 0.6892346964086229 -0.2798562228037729
1.572621539530759 0.8013269818402403 -0.2301770930776353
1.799913629870497 0.6043958441595054 -0.2247081236556607
0.5561916605334682 -0.4449681495656166 0.2430657204118052
0.4355228972896386 -0.5495382598252351 0.279238023896156
0.4496643002922291 -0.6889297216076372 0.2572646037954241
0.8639281472522224 -0.5920082707220308 -0.2137011378168918
0.8195496757837236 -0.735558069775892 -0.2783155500288264
0.6589518330704395 -0.7704345921026184 -0.2731074582287428
0.7551874503247712 -0.8952871107865489 -0.2418917290342446
0.9033090100382416 -0.7323670237939718 0.2747332088446716
0.9457380982018511 -0.8931326914941029 0.2620530252208458
0.7595519732299587 -0.8419887761348231 0.2654590695274145
0.1807372864934444 0.5945171204799149 -0.1280589098200017
0.6025547300342 -0.9099002905977401 -0.1831772987891925
1.539819013921738 -0.5997178035053797 0.2790945724953704
1.496986953887206 -0.7608999275347277 0.2667799674062873
1.710284839288939 -0.5760012136607148 0.2683313222232118
0.1543598326287381 -0.2493846333142908 0.2506012574394186
0.1437957022081849 -0.3931742108079551 0.2117172033774834
0.3764320493328173 -0.1836183795560586 0.2588828504625826
0.3005001401196635 -0.3167750702680256 0.2798524137662358
0.2823172301005634 -0.4802611107966439 0.261034439298876
1.177999765807725 -0.811468977210452 -0.27911088287407
1.037769876992852 -0.906131603960263 -0.2590944985527546
0.8945713787745686 0.5218587925810765 -0.111382495723713
0.7809011558810715 0.4479434119823608 -0.0008986563422283774
0.7610062306164894 0.4921061940076417 0.1570235940051712
0.8417363596485644 0.5934517797590302 0.22039410748414
0.6599649203792743 0.3809574307200501 0.107950451574725
0.5448685584314681 -0.6335485290821629 -0.279908313586563
0.3870784695236494 -0.6473816777915461 -0.251528060602258
0.3808140862909456 0.07404532167438441 0.2470936205838591
0.3526307928223464 0.2303719051766875 0.2710283968502293
0.2954936962953786 -0.04102215026241792 0.2756127965499955
0.7683653118692528 0.7416048807523671 -0.2798715713509333
0.3365797152510881 -0.02412608116489448 -0.2647417817513932
0.2543298539300572 -0.124856149890063 -0.2799996095960762
0.7383240479532985 0.891638309359559 -0.2407868060578036
1.820839227588786 0.4095176685012972 -0.2691223327261342
1.605494762644038 -0.7326179625387941 -0.2518135259931374
0.3285608319833931 -0.7374047245574065 0.1623478096550818
0.2873707378114611 0.6034425749148759 -0.22356467156785
0.4869235697054259 0.3037780834555212 -0.2265085688510963
1.313291593376611 -0.8995274128835784 -0.2432414628661384
0.5922002019571992 0.3982663870093398 -0.199003414407752
0.7334717285223742 -0.9980754355979791 -0.1345296886331032
1.776746757282925 -0.4098965601207142 0.2773084280966719
1.92409773242958 -0.4031983599037654 0.2246339801110235
0.20532883247908 0.4906937784929681 0.2205244033414379
0.5915072431745856 -0.9115141818561863 0.1755999765328299
0.3082577381512657 -0.5236388162712712 -0.2600199171812618
0.3167766865537693 -0.7422956712377586 -0.1444521839919753
0.6757274650820347 0.3837438920632835 -0.08292504189914814
0.3863532864286533 0.706390918921887 -0.2256203132123184
1.187741512936561 0.8044892190774279 -0.2794801322058945
1.318379281794565 0.9072517287371782 -0.2379714480123702
1.199854935311214 0.8050375262210785 0.2792993352548631
1.336192050979496 0.8885733207179483 0.2452675564886505
1.714088794352054 0.7556004196511751 0.1860349312408409
1.996560214313282 0.1794329063168298 -0.2237521118290942
1.969418386850939 0.352046428491516 -0.2064199898243076
1.202625680934472 0.5126500379700267 -0.09423961097094492
0.5261559544572524 0.9076733699376047 0.1346468995173114
0.6365787557016904 0.8661380397735196 0.2314333054032483
0.7775545276688151 0.743691891336047 0.2798326025383296
0.7790580128997017 0.9206813496759334 0.2309424957131012
0.8175982945346858 1.022131361797527 0.1316465638073943
1.086930726244019 -1.037196866702458 -0.147427991740571
0.1335471231190318 0.3734972072376395 0.2101688840987684
0.2338162377132975 0.3749167642614575 0.2638800470755744
1.183272703703523 -0.9425970398494482 -0.2347068833291843
1.403592791167822 -0.9769992091716846 -0.1430024088126913
0.9015198254277244 -1.030064036085866 0.1442072660103531
1.812471027273842 -0.7063842794318879 -0.1389892910955436
1.232132650705369 -1.025610773146157 0.1399030065813006
1.537503024199752 -0.915101573752463 0.1455185681366262
1.803214813783227 -0.6964482743431604 0.1603634975597641
2.070134783716165 -0.1226508484513217 0.1561054108580373
2.063229100906914 0.2186750477205351 0.1417883749139364
1.94740477595741 0.5148663493074989 0.1459514697613346
1.449724789155161 0.95791446619567 0.1443801262481904
1.566743616171389 -0.8981313166559608 -0.146396140294584
0.3861616730239907 0.8184197068964494 0.1247854003041451
0.1967593229120819 0.4854456467354209 -0.2166906420998666
0.3117249106404467 0.4745268924595291 0.2702018322797938
0.4311940893375383 0.3044893991065684 0.2553749082414003
0.3116369448181601 -0.6050573520333541 0.2359576024926984
1.948928781440307 0.2761297623223054 0.2394314690285812
0.5976847244522319 0.2674083704058047 0.02536026223665804
0.3894447959053142 0.8216669617772718 -0.123814993182851
1.352874595851001 0.5621054532429028 -0.2304046884788074
1.131491446963591 -0.926248191767313 0.2478461965069398
0.5388847796799348 0.2757921455824183 0.1685054988077768
1.391650152866548 0.6348939924393147 0.2693084740551419
1.646322312775788 -0.6985561078499414 0.2521587923375463
0.522615115719118 0.9126313226860366 -0.1229501423825691
1.823366877862321 0.1758571374585435 0.2799927525212638
0.2957687087865273 -0.2648159959452501 -0.2799489608585856
0.1076052601132126 -0.4820408732878592 0.1176704259728233
0.8951655794510036 0.8159152655082709 -0.2784353922753899
0.9249245993041089 0.9625041328943099 0.2225126122186979
0.1479144188191077 0.2602352488926458 -0.2458159865116757
0.1176490665739975 -0.08711068027571985 -0.2472352789071532
0.1072900497010911 -0.4822029654096335 -0.1169020647904495
0.1510944780521515 0.1340014397590832 0.2600118067696124
0.2736502317274868 0.1244504642206638 0.2793765120227078
0.7967609165595098 1.020406368734166 -0.1257625410845945
1.30149096666192 1.014517542544288 0.1329213420999222
1.299895007761487 1.015803489466435 -0.1313196778377648
1.326724933033378 0.7372721591427819 -0.279794136610465
0.3926994957876362 -0.4220746150291727 0.2790491874825467
0.2575925723682085 -0.1919634967732221 0.2798042071512993
0.4997595606055292 -0.7656918704591911 -0.2424959639905136
1.985542728820264 0.1316383574943088 0.236615478612877
1.597043800779362 0.8913210604340451 -0.1291607729876928
2.001945391509381 -0.0007213710110198814 -0.2318794055943032
2.003256590032499 -0.4371429467672343 0.1194196407659613
2.045804009976248 -0.3111691953116548 -0.1298653630586989
1.461966423438169 0.8543546497361026 0.2360022428103567
0.8981575986450105 -0.8482617169506526 -0.2733018300393127
0.2517068352495964 0.2619110778585408 0.2777518037950084
1.180043871202864 0.5328356962087167 0.1254635106198384
1.751752941467089 -0.6205177841332465 -0.242197197525731
0.03374989300358289 0.3222437771206411 0.1004748251214691
2.069042660687252 0.2458575981691375 -0.1196612953948743
0.1289247009523219 0.3706065234906493 -0.2073162212189163
0.3778634442670961 -0.1371044336671591 -0.2534912851324598
0.6076290872569203 0.7359337978667974 0.274324251827598
0.1972488474594803 -0.5110533669452025 -0.2057826928491591
1.906428762022134 0.4061488899836043 0.2349087750713774
1.956756353371631 -0.258072018794042 0.2379521806505637
0.6414389499481957 0.4735843451588285 0.2163105403260583
1.29374702207552 -0.9295402148586439 0.228201173509734
1.40950669810879 -0.8742190604871427 0.2382059293733856
0.03088693138110377 0.3315099521096007 -0.08457093516524196
0.7865897618219089 0.588963008195508 -0.2319500944658661
1.859961042982543 0.6744438746252174 -0.1091602334479318
0.5051545693112066 -0.1424906918153638 -0.1414124152247289
0.03765017576848795 -0.3364693755663096 0.09862083993307542
0.7738008324435123 0.4799207412904963 -0.1285371062423293
0.03407941871732389 -0.339327809469897 -0.08635573209120254
0.8326818714072408 -0.937896713742671 0.2286400036936377
1.355959656772798 -0.7596898789649454 0.2792212702439613
0.9221181966713734 1.046937098270659 -0.1175629044903116
0.613061076200318 0.8886839275789378 -0.2074139150327828
1.998237259277113 -0.005069365922438204 0.2343378139988371
1.831860749089733 -0.5252383138214307 0.2388873280889323
1.17216729960541 1.044115247719659 0.1223977714886109
1.169783256436376 1.044420282327377 -0.1223621501851711
0.2583145784930596 -0.4228276453063683 -0.2640630763806744
0.9315594886574484 0.6827788211416752 0.2583909661119235
2.036546825577436 0.3790073041978669 -0.1000525295580836
0.9371604782173043 1.051103420163826 0.1120076110567671
1.689883750671798 -0.4881074979914544 -0.2798623297554449
2.097052998129389 -0.07133484828749539 -0.1168147982426327
0.1909797558012523 -0.5149295596352874 0.1987292988386657
1.638315886811824 0.09058078015628236 -0.1961534043698294
1.456913351716257 0.8617764679313975 -0.2330778120536511
0.345096229092964 0.3537133831023098 0.2795541761246588
1.295936443776927 -0.4679820693854984 -0.07776090715121353
1.344121511332266 0.7571080270706668 0.2796470004953815
1.449984266712386 0.4368973854168641 -0.1915015874921465
3 100 0 0
$EndNodes
$Elements
2 1602 1 1602
2 1 2 804
1 232 256 212 
2 196 286 213 
3 290 291 215 
4 213 286 247 
5 158 285 272 
6 245 287 223 
7 339 359 129 
8 263 271 176 
9 163 315 269 
10 257 387 217 
11 215 405 290 
12 245 305 287 
13 240 274 214 
14 302 427 115 
15 306 359 339 
16 265 266 264 
17 103 346 318 
18 265 415 266 
19 145 412 400 
20 237 385 315 
21 115 427 8 
22 55 139 54 
23 232 293 256 
24 108 394 344 
25 276 405 186 
26 212 256 197 
27 253 281 193 
28 43 380 140 
29 176 417 263 
30 223 287 209 
31 133 418 146 
32 295 353 113 
33 207 293 258 
34 318 346 248 
35 43 140 42 
36 139 411 54 
37 309 383 109 
38 206 257 217 
39 253 282 281 
40 214 274 198 
41 400 412 132 
42 259 387 257 
43 146 366 133 
44 367 385 237 
45 275 277 276 
46 283 289 121 
47 344 394 251 
48 240 352 274 
49 278 405 276 
50 275 276 194 
51 153 422 142 
52 256 293 207 
53 190 286 196 
54 143 426 154 
55 156 157 115 
56 154 383 309 
57 269 419 163 
58 373 391 345 
59 262 362 130 
60 208 311 221 
61 312 331 303 
62 374 422 153 
63 292 430 254 
64 287 305 216 
65 366 391 373 
66 200 264 238 
67 293 294 258 
68 264 266 238 
69 170 417 176 
70 50 390 117 
71 272 285 177 
72 130 437 262 
73 9 156 115 
74 291 342 110 
75 131 359 306 
76 270 271 263 
77 141 336 301 
78 173 270 263 
79 154 426 383 
80 144 430 292 
81 329 380 151 
82 306 369 131 
83 184 273 187 
84 271 272 176 
85 304 326 134 
86 193 281 183 
87 228 292 254 
88 311 414 221 
89 376 407 355 
90 211 307 273 
91 158 416 285 
92 307 317 308 
93 303 331 138 
94 47 147 106 
95 346 401 248 
96 315 385 269 
97 165 316 172 
98 113 384 295 
99 299 300 298 
100 301 336 261 
101 16 327 15 
102 135 292 228 
103 286 364 247 
104 320 395 249 
105 269 385 338 
106 289 314 121 
107 237 315 166 
108 277 370 280 
109 309 410 308 
110 131 369 361 
111 258 295 259 
112 290 409 291 
113 255 316 165 
114 290 405 278 
115 112 323 322 
116 126 376 355 
117 224 297 171 
118 129 340 339 
119 360 365 243 
120 151 380 114 
121 297 299 298 
122 320 443 395 
123 248 401 328 
124 326 327 134 
125 134 327 16 
126 308 398 309 
127 288 360 221 
128 408 441 153 
129 298 312 303 
130 147 324 106 
131 211 317 307 
132 117 390 332 
133 273 446 187 
134 340 415 265 
135 283 441 408 
136 378 404 35 
137 224 299 297 
138 110 420 291 
139 338 385 174 
140 348 358 127 
141 369 435 361 
142 108 399 394 
143 279 352 351 
144 310 341 120 
145 158 432 139 
146 134 363 304 
147 176 272 177 
148 340 397 128 
149 197 256 199 
150 202 256 207 
151 118 331 312 
152 47 106 48 
153 245 306 305 
154 209 287 205 
155 45 133 46 
156 114 380 43 
157 251 294 293 
158 204 257 206 
159 56 107 55 
160 46 132 45 
161 312 313 118 
162 203 287 216 
163 157 167 115 
164 198 274 195 
165 120 372 310 
166 128 415 340 
167 307 446 273 
168 272 381 158 
169 238 348 239 
170 201 264 200 
171 295 384 259 
172 133 148 147 
173 105 368 319 
174 52 333 51 
175 221 414 288 
176 253 283 282 
177 172 316 180 
178 179 270 173 
179 296 353 295 
180 194 276 188 
181 277 278 276 
182 210 311 208 
183 189 286 190 
184 12 335 136 
185 10 156 9 
186 11 292 135 
187 171 297 169 
188 168 367 170 
189 51 333 118 
190 335 336 136 
191 275 279 277 
192 157 168 167 
193 135 227 156 
194 133 147 46 
195 39 121 38 
196 233 344 251 
197 166 315 162 
198 138 427 303 
199 132 412 45 
200 230 234 229 
201 45 418 133 
202 105 319 47 
203 321 404 378 
204 288 325 9 
205 135 156 10 
206 141 388 336 
207 279 370 277 
208 102 365 360 
209 322 328 112 
210 234 267 235 
211 228 229 227 
212 42 111 41 
213 234 235 229 
214 118 313 50 
215 234 377 267 
216 253 289 283 
217 301 337 141 
218 102 288 8 
219 10 325 101 
220 168 169 167 
221 229 338 227 
222 9 115 8 
223 157 174 168 
224 176 177 171 
225 102 360 288 
226 170 171 169 
227 230 236 234 
228 168 170 169 
229 11 135 10 
230 317 398 308 
231 182 273 184 
232 46 147 47 
233 54 104 53 
234 332 430 117 
235 144 292 12 
236 170 176 171 
237 37 314 110 
238 283 408 282 
239 228 230 229 
240 148 324 147 
241 135 228 227 
242 167 302 115 
243 177 285 284 
244 129 397 340 
245 48 105 47 
246 220 446 307 
247 183 281 181 
248 337 437 130 
249 38 109 39 
250 220 307 226 
251 13 144 12 
252 252 253 193 
253 267 268 235 
254 53 422 2 
255 336 388 136 
256 37 110 36 
257 307 308 226 
258 250 270 179 
259 7 138 6 
260 118 333 331 
261 322 323 233 
262 353 399 24 
263 266 348 238 
264 300 312 298 
265 357 384 354 
266 49 390 50 
267 2 426 44 
268 44 114 43 
269 46 319 132 
270 277 280 278 
271 50 117 51 
272 222 360 243 
273 348 450 358 
274 39 374 121 
275 31 103 32 
276 394 399 296 
277 191 220 219 
278 336 451 261 
279 3 412 56 
280 220 226 225 
281 33 123 34 
282 269 338 235 
283 12 292 11 
284 28 112 29 
285 165 166 162 
286 180 316 211 
287 35 122 34 
288 36 120 37 
289 351 413 279 
290 30 346 31 
291 249 364 192 
292 25 108 26 
293 56 145 107 
294 280 290 278 
295 213 247 246 
296 33 124 32 
297 235 338 229 
298 371 389 327 
299 247 318 248 
300 282 403 281 
301 254 430 332 
302 22 113 23 
303 31 125 30 
304 8 288 9 
305 244 245 223 
306 9 325 10 
307 29 126 28 
308 12 136 13 
309 5 137 6 
310 27 127 26 
311 177 284 224 
312 10 101 11 
313 7 102 8 
314 25 128 24 
315 247 248 246 
316 23 129 22 
317 21 131 20 
318 19 116 20 
319 222 223 209 
320 19 119 18 
321 17 130 18 
322 17 134 16 
323 242 244 223 
324 218 262 260 
325 199 256 202 
326 15 141 16 
327 239 240 214 
328 260 301 261 
329 181 250 179 
330 301 437 337 
331 206 217 210 
332 243 326 304 
333 243 304 242 
334 207 258 257 
335 222 242 223 
336 177 224 171 
337 220 225 219 
338 243 365 326 
339 120 341 37 
340 202 207 204 
341 217 218 210 
342 213 246 231 
343 241 311 210 
344 218 260 241 
345 222 243 242 
346 41 418 3 
347 260 261 241 
348 208 209 205 
349 258 259 257 
350 216 264 201 
351 221 222 209 
352 218 241 210 
353 196 213 212 
354 21 354 22 
355 205 287 203 
356 207 257 204 
357 268 419 269 
358 206 210 208 
359 103 343 32 
360 268 269 235 
361 255 429 316 
362 208 221 209 
363 20 356 21 
364 216 305 265 
365 251 293 232 
366 206 208 205 
367 199 202 201 
368 169 175 167 
369 204 206 205 
370 203 216 201 
371 18 362 19 
372 35 342 122 
373 18 363 17 
374 216 265 264 
375 204 205 203 
376 202 204 203 
377 200 214 198 
378 121 314 38 
379 202 203 201 
380 213 231 212 
381 199 201 200 
382 231 233 232 
383 247 364 318 
384 47 319 46 
385 238 239 214 
386 403 408 164 
387 233 251 232 
388 231 232 212 
389 200 238 214 
390 105 444 368 
391 173 237 166 
392 113 353 23 
393 199 200 198 
394 294 296 295 
395 274 275 194 
396 190 196 195 
397 196 212 197 
398 197 198 195 
399 197 199 198 
400 191 219 192 
401 31 346 103 
402 162 163 159 
403 187 191 189 
404 185 193 183 
405 215 252 193 
406 196 197 195 
407 192 286 189 
408 219 249 192 
409 129 359 22 
410 131 361 20 
411 308 310 226 
412 271 447 381 
413 228 254 230 
414 191 192 189 
415 195 274 194 
416 50 313 49 
417 190 195 194 
418 160 162 159 
419 339 340 265 
420 190 194 188 
421 259 384 357 
422 112 440 323 
423 189 190 188 
424 188 276 186 
425 104 155 152 
426 133 366 148 
427 107 158 139 
428 184 187 186 
429 187 189 188 
430 251 394 294 
431 381 447 178 
432 173 263 237 
433 160 165 162 
434 218 330 262 
435 51 118 50 
436 363 393 304 
437 38 341 109 
438 155 178 164 
439 7 334 102 
440 239 407 376 
441 33 347 124 
442 140 150 149 
443 372 404 321 
444 106 377 375 
445 181 281 250 
446 162 315 163 
447 185 215 193 
448 165 172 166 
449 294 295 258 
450 187 188 186 
451 381 432 158 
452 37 341 38 
453 215 291 252 
454 150 159 149 
455 31 349 125 
456 400 416 145 
457 36 342 35 
458 155 164 152 
459 29 350 126 
460 172 173 166 
461 126 355 28 
462 110 342 36 
463 127 358 26 
464 22 354 113 
465 140 149 111 
466 184 186 185 
467 318 442 103 
468 11 335 12 
469 354 384 113 
470 156 421 157 
471 116 356 20 
472 180 211 182 
473 32 343 33 
474 21 356 354 
475 19 362 116 
476 130 362 18 
477 119 363 18 
478 137 389 371 
479 17 363 134 
480 23 353 24 
481 300 313 312 
482 22 359 21 
483 107 139 55 
484 20 361 19 
485 172 180 179 
486 172 179 173 
487 284 368 224 
488 267 377 324 
489 34 347 33 
490 169 297 175 
491 298 303 175 
492 281 403 250 
493 184 185 183 
494 150 160 159 
495 32 349 31 
496 367 417 170 
497 323 344 233 
498 30 350 29 
499 120 404 372 
500 28 355 27 
501 356 357 354 
502 26 358 25 
503 109 383 39 
504 159 345 149 
505 357 387 259 
506 182 184 183 
507 180 181 179 
508 211 273 182 
509 182 183 181 
510 137 334 6 
511 154 309 161 
512 370 448 280 
513 33 343 123 
514 160 255 165 
515 175 302 167 
516 121 441 283 
517 180 182 181 
518 111 146 41 
519 303 427 302 
520 348 407 239 
521 297 298 175 
522 40 374 39 
523 119 393 363 
524 409 428 122 
525 323 423 344 
526 124 370 349 
527 139 432 411 
528 106 375 48 
529 17 337 130 
530 125 351 350 
531 122 347 34 
532 38 314 37 
533 327 389 15 
534 219 320 249 
535 231 322 233 
536 186 405 185 
537 316 317 211 
538 326 371 327 
539 335 451 336 
540 2 422 40 
541 8 427 7 
542 154 161 151 
543 314 420 110 
544 261 406 241 
545 230 332 236 
546 124 349 32 
547 291 409 342 
548 366 373 148 
549 125 350 30 
550 224 368 299 
551 27 355 127 
552 325 406 101 
553 25 358 128 
554 187 446 191 
555 40 426 2 
556 308 410 310 
557 252 289 253 
558 48 379 105 
559 39 383 40 
560 310 372 226 
561 6 334 7 
562 6 392 5 
563 40 422 374 
564 242 393 244 
565 21 359 131 
566 19 361 119 
567 175 303 302 
568 56 412 145 
569 174 367 168 
570 48 375 49 
571 34 378 35 
572 274 352 275 
573 324 377 106 
574 28 440 112 
575 152 153 142 
576 323 440 423 
577 42 140 111 
578 160 329 255 
579 305 339 265 
580 104 142 53 
581 227 421 156 
582 51 382 52 
583 221 360 222 
584 192 364 286 
585 217 330 218 
586 14 388 15 
587 14 424 1 
588 357 396 387 
589 365 371 326 
590 112 401 29 
591 271 381 272 
592 128 397 24 
593 23 397 129 
594 30 401 346 
595 146 418 41 
596 101 335 11 
597 225 372 321 
598 164 408 152 
599 383 426 40 
600 143 154 151 
601 345 391 149 
602 163 345 159 
603 151 433 329 
604 289 420 314 
605 45 412 3 
606 311 406 325 
607 24 399 25 
608 1 431 13 
609 1 434 14 
610 35 404 36 
611 392 438 5 
612 352 449 351 
613 52 431 1 
614 123 378 34 
615 332 390 236 
616 44 143 114 
617 142 422 53 
618 117 382 51 
619 109 410 309 
620 13 434 1 
621 108 423 26 
622 1 424 5 
623 244 435 369 
624 225 321 320 
625 178 386 164 
626 3 418 45 
627 333 392 331 
628 150 329 160 
629 245 369 306 
630 376 449 240 
631 368 444 299 
632 309 398 161 
633 290 428 409 
634 226 372 225 
635 15 389 14 
636 239 376 240 
637 316 429 317 
638 334 365 102 
639 374 441 121 
640 375 377 236 
641 306 339 305 
642 49 379 48 
643 104 152 142 
644 344 423 108 
645 425 449 376 
646 291 420 252 
647 44 426 143 
648 141 337 16 
649 261 451 406 
650 140 380 150 
651 150 380 329 
652 296 399 353 
653 248 328 246 
654 254 332 230 
655 288 414 325 
656 15 388 141 
657 246 322 231 
658 125 413 351 
659 236 377 234 
660 262 437 260 
661 249 402 364 
662 246 328 322 
663 282 408 403 
664 375 390 49 
665 5 438 1 
666 387 396 330 
667 225 320 219 
668 137 371 334 
669 148 445 324 
670 16 337 17 
671 240 449 352 
672 24 397 23 
673 124 448 370 
674 1 438 52 
675 356 396 357 
676 174 421 338 
677 143 151 114 
678 313 379 49 
679 338 421 227 
680 331 392 138 
681 285 416 400 
682 116 396 356 
683 304 393 242 
684 341 410 109 
685 328 401 112 
686 343 395 123 
687 149 391 111 
688 300 379 313 
689 270 447 271 
690 333 438 392 
691 236 390 375 
692 310 410 341 
693 138 392 6 
694 29 401 30 
695 321 443 320 
696 334 371 365 
697 342 409 122 
698 25 399 108 
699 262 436 362 
700 330 436 262 
701 146 391 366 
702 299 444 300 
703 275 352 279 
704 294 394 296 
705 36 404 120 
706 127 407 348 
707 250 386 270 
708 111 391 146 
709 161 433 151 
710 284 439 368 
711 285 400 284 
712 244 369 245 
713 325 414 311 
714 122 428 347 
715 370 413 349 
716 107 416 158 
717 319 439 132 
718 152 408 153 
719 7 427 138 
720 13 431 144 
721 104 411 155 
722 349 413 125 
723 395 443 123 
724 411 432 155 
725 185 405 215 
726 350 425 126 
727 364 402 318 
728 379 444 105 
729 345 419 373 
730 362 436 116 
731 241 406 311 
732 378 443 321 
733 266 450 348 
734 157 421 174 
735 26 423 27 
736 343 442 395 
737 368 439 319 
738 355 407 127 
739 52 438 333 
740 386 403 164 
741 174 385 367 
742 267 445 268 
743 217 387 330 
744 191 446 220 
745 393 435 244 
746 351 425 350 
747 263 417 237 
748 136 434 13 
749 260 437 301 
750 103 442 343 
751 14 434 388 
752 155 432 178 
753 358 450 128 
754 54 411 104 
755 5 424 137 
756 27 440 28 
757 280 428 290 
758 126 425 376 
759 398 429 161 
760 163 419 345 
761 237 417 367 
762 347 448 124 
763 324 445 267 
764 382 431 52 
765 145 416 107 
766 279 413 370 
767 329 433 255 
768 423 440 27 
769 389 424 14 
770 252 420 289 
771 395 442 402 
772 361 435 119 
773 250 403 386 
774 373 445 148 
775 132 439 400 
776 396 436 330 
777 144 431 382 
778 395 402 249 
779 117 430 382 
780 300 444 379 
781 382 430 144 
782 429 433 161 
783 128 450 415 
784 116 436 396 
785 388 434 136 
786 400 439 284 
787 406 451 101 
788 153 441 374 
789 123 443 378 
790 255 433 429 
791 317 429 398 
792 119 435 393 
793 178 447 386 
794 137 424 389 
795 101 451 335 
796 268 445 373 
797 178 432 381 
798 351 449 425 
799 373 419 268 
800 402 442 318 
801 428 448 347 
802 386 447 270 
803 280 448 428 
804 415 450 266 
2 2 2 798
805 569 643 615 
806 474 757 661 
807 668 750 689 
808 664 665 527 
809 467 676 639 
810 78 651 79 
811 614 775 530 
812 532 614 530 
813 620 642 461 
814 661 705 474 
815 565 612 607 
816 689 750 471 
817 628 632 470 
818 556 633 577 
819 527 769 664 
820 656 658 655 
821 87 630 88 
822 653 713 477 
823 646 757 474 
824 634 696 485 
825 490 742 458 
826 573 644 643 
827 97 696 96 
828 621 622 572 
829 677 760 463 
830 453 759 605 
831 605 731 453 
832 706 761 496 
833 477 732 653 
834 699 759 61 
835 483 761 706 
836 463 760 711 
837 735 787 522 
838 612 613 607 
839 467 698 676 
840 530 775 635 
841 471 651 78 
842 577 633 626 
843 648 710 475 
844 656 659 658 
845 654 732 714 
846 491 740 43 
847 558 594 553 
848 475 729 648 
849 481 639 636 
850 756 798 634 
851 624 629 459 
852 459 630 624 
853 42 491 43 
854 539 640 587 
855 55 490 458 
856 608 759 699 
857 615 643 537 
858 455 511 490 
859 88 630 459 
860 569 615 544 
861 639 676 583 
862 573 643 569 
863 702 703 701 
864 640 641 587 
865 610 627 611 
866 522 787 592 
867 501 758 707 
868 572 622 588 
869 501 707 706 
870 581 627 610 
871 559 612 565 
872 79 687 78 
873 493 776 656 
874 677 719 591 
875 636 638 481 
876 463 719 677 
877 592 778 494 
878 460 688 668 
879 649 687 473 
880 522 740 674 
881 466 663 662 
882 634 798 731 
883 551 633 556 
884 763 772 484 
885 461 687 620 
886 656 776 736 
887 60 665 466 
888 470 696 628 
889 474 683 646 
890 535 614 532 
891 558 794 594 
892 572 797 621 
893 497 772 763 
894 455 490 54 
895 485 696 97 
896 714 784 654 
897 636 639 583 
898 633 684 626 
899 764 775 593 
900 534 615 537 
901 546 617 570 
902 699 728 609 
903 610 794 581 
904 510 775 764 
905 741 778 592 
906 665 702 527 
907 485 756 634 
908 466 662 61 
909 525 730 666 
910 622 623 588 
911 523 723 525 
912 723 730 525 
913 693 795 747 
914 668 689 460 
915 690 726 515 
916 747 795 637 
917 743 758 742 
918 661 708 705 
919 60 788 665 
920 742 758 501 
921 625 768 715 
922 71 498 456 
923 573 757 644 
924 630 760 624 
925 701 765 702 
926 666 730 726 
927 617 780 570 
928 651 683 79 
929 714 732 477 
930 96 696 470 
931 473 687 79 
932 647 649 648 
933 76 678 472 
934 666 726 690 
935 695 798 756 
936 715 768 479 
937 632 717 470 
938 77 678 76 
939 628 696 634 
940 457 650 71 
941 498 499 456 
942 760 791 624 
943 54 490 55 
944 87 711 630 
945 658 749 655 
946 669 743 671 
947 465 740 522 
948 620 687 649 
949 533 640 539 
950 594 794 610 
951 671 743 524 
952 670 796 758 
953 78 687 461 
954 457 679 650 
955 602 690 682 
956 578 791 622 
957 642 678 461 
958 478 754 685 
959 528 671 657 
960 685 784 478 
961 69 733 727 
962 495 737 675 
963 622 791 623 
964 511 749 671 
965 73 483 72 
966 671 749 657 
967 530 635 519 
968 457 727 691 
969 575 649 647 
970 486 737 63 
971 579 684 633 
972 71 456 70 
973 70 457 71 
974 72 484 73 
975 564 609 560 
976 43 740 465 
977 550 621 547 
978 619 780 617 
979 466 664 663 
980 55 458 56 
981 676 698 582 
982 483 686 498 
983 662 777 773 
984 461 678 77 
985 553 594 552 
986 503 673 502 
987 478 784 714 
988 723 796 670 
989 675 744 495 
990 489 703 702 
991 464 753 697 
992 73 761 483 
993 612 734 613 
994 457 691 679 
995 727 733 604 
996 666 769 525 
997 557 612 559 
998 524 742 490 
999 578 622 554 
1000 599 682 597 
1001 511 524 490 
1002 627 753 611 
1003 610 611 589 
1004 694 695 488 
1005 664 666 663 
1006 662 773 486 
1007 672 737 486 
1008 568 614 535 
1009 544 615 541 
1010 483 498 72 
1011 543 617 546 
1012 653 771 713 
1013 673 674 502 
1014 468 744 675 
1015 549 633 551 
1016 645 667 567 
1017 511 671 524 
1018 681 709 454 
1019 58 694 488 
1020 536 615 534 
1021 61 662 62 
1022 587 642 620 
1023 591 709 681 
1024 605 759 608 
1025 652 654 579 
1026 591 719 709 
1027 621 797 547 
1028 669 671 528 
1029 455 655 511 
1030 72 650 484 
1031 76 472 75 
1032 728 799 609 
1033 69 720 700 
1034 555 610 589 
1035 489 738 703 
1036 484 772 73 
1037 593 775 614 
1038 62 662 486 
1039 602 777 690 
1040 647 648 618 
1041 648 729 618 
1042 590 593 568 
1043 718 745 695 
1044 660 661 573 
1045 602 682 599 
1046 597 682 680 
1047 41 462 42 
1048 675 737 672 
1049 62 699 61 
1050 596 679 598 
1051 512 720 456 
1052 498 686 499 
1053 608 699 609 
1054 471 750 651 
1055 60 466 61 
1056 650 721 484 
1057 72 498 71 
1058 657 658 538 
1059 609 799 560 
1060 678 724 472 
1061 607 632 628 
1062 62 486 63 
1063 589 629 624 
1064 71 650 72 
1065 641 642 587 
1066 53 455 54 
1067 695 745 488 
1068 77 689 471 
1069 452 728 699 
1070 693 746 492 
1071 58 489 59 
1072 697 753 627 
1073 509 635 510 
1074 75 460 76 
1075 64 495 65 
1076 691 727 604 
1077 593 614 568 
1078 2 776 53 
1079 586 590 568 
1080 566 568 535 
1081 78 461 77 
1082 664 769 666 
1083 84 719 85 
1084 513 722 523 
1085 606 731 605 
1086 518 669 528 
1087 69 700 68 
1088 466 665 664 
1089 85 719 463 
1090 56 761 3 
1091 458 496 56 
1092 529 657 538 
1093 513 523 521 
1094 44 778 2 
1095 519 635 516 
1096 43 465 44 
1097 472 736 75 
1098 68 469 67 
1099 67 468 68 
1100 666 690 663 
1101 82 454 83 
1102 649 779 648 
1103 68 700 469 
1104 674 735 522 
1105 76 689 77 
1106 456 720 70 
1107 80 474 81 
1108 454 709 83 
1109 721 763 484 
1110 706 707 686 
1111 473 779 649 
1112 514 516 509 
1113 85 463 86 
1114 483 706 686 
1115 499 722 513 
1116 80 473 79 
1117 77 471 78 
1118 505 507 503 
1119 500 504 503 
1120 499 512 456 
1121 600 604 603 
1122 463 711 86 
1123 554 621 550 
1124 88 459 89 
1125 487 746 693 
1126 504 505 503 
1127 702 765 527 
1128 517 518 516 
1129 554 622 621 
1130 563 569 544 
1131 82 475 81 
1132 539 587 575 
1133 613 632 607 
1134 469 704 67 
1135 91 464 92 
1136 659 724 641 
1137 531 640 533 
1138 523 525 521 
1139 84 476 83 
1140 452 699 62 
1141 500 503 502 
1142 86 477 85 
1143 580 581 561 
1144 65 487 64 
1145 58 488 57 
1146 577 626 625 
1147 507 673 503 
1148 88 478 87 
1149 582 627 581 
1150 508 509 507 
1151 63 452 62 
1152 60 453 59 
1153 90 479 89 
1154 92 480 91 
1155 565 607 606 
1156 90 755 631 
1157 94 482 93 
1158 94 467 95 
1159 96 470 95 
1160 96 481 97 
1161 580 582 581 
1162 98 485 97 
1163 608 609 564 
1164 607 628 606 
1165 589 624 578 
1166 98 492 99 
1167 555 578 554 
1168 637 638 636 
1169 628 634 606 
1170 560 561 558 
1171 679 721 650 
1172 552 554 550 
1173 562 580 561 
1174 548 652 579 
1175 634 731 606 
1176 571 573 569 
1177 565 606 605 
1178 584 728 637 
1179 562 583 580 
1180 584 636 583 
1181 584 637 636 
1182 556 577 574 
1183 559 565 564 
1184 562 584 583 
1185 3 772 41 
1186 560 562 561 
1187 577 625 616 
1188 557 558 553 
1189 605 608 564 
1190 661 757 573 
1191 80 683 474 
1192 555 589 578 
1193 552 555 554 
1194 559 560 558 
1195 565 605 564 
1196 542 647 618 
1197 567 667 566 
1198 577 616 574 
1199 82 705 454 
1200 566 586 568 
1201 594 610 555 
1202 563 571 569 
1203 679 691 598 
1204 551 556 553 
1205 557 559 558 
1206 574 612 557 
1207 559 564 560 
1208 552 594 555 
1209 556 574 557 
1210 556 557 553 
1211 99 718 98 
1212 551 553 552 
1213 549 550 547 
1214 551 552 550 
1215 588 591 576 
1216 549 551 550 
1217 579 633 549 
1218 698 762 697 
1219 543 544 541 
1220 548 579 549 
1221 700 701 469 
1222 546 570 548 
1223 572 576 571 
1224 563 797 572 
1225 572 588 576 
1226 548 549 547 
1227 585 720 512 
1228 575 647 540 
1229 684 685 626 
1230 545 563 544 
1231 541 615 536 
1232 534 535 532 
1233 509 510 507 
1234 563 572 571 
1235 470 717 95 
1236 517 526 518 
1237 543 545 544 
1238 487 693 692 
1239 508 514 509 
1240 514 517 516 
1241 680 682 515 
1242 587 620 575 
1243 546 548 547 
1244 543 546 545 
1245 542 618 617 
1246 546 547 545 
1247 618 619 617 
1248 542 617 543 
1249 542 543 541 
1250 595 596 506 
1251 537 566 535 
1252 631 792 90 
1253 70 727 457 
1254 500 502 491 
1255 644 645 567 
1256 63 692 452 
1257 516 635 509 
1258 475 710 81 
1259 505 508 507 
1260 596 597 506 
1261 646 651 645 
1262 597 680 506 
1263 539 575 540 
1264 643 644 567 
1265 644 646 645 
1266 537 643 567 
1267 571 660 573 
1268 540 541 536 
1269 620 649 575 
1270 533 539 536 
1271 667 750 668 
1272 700 720 585 
1273 547 797 545 
1274 504 506 505 
1275 540 542 541 
1276 58 738 489 
1277 63 737 64 
1278 460 689 76 
1279 476 712 83 
1280 639 774 467 
1281 467 789 698 
1282 518 519 516 
1283 534 537 535 
1284 528 657 529 
1285 462 500 491 
1286 83 709 84 
1287 84 713 476 
1288 596 598 597 
1289 86 714 477 
1290 701 703 469 
1291 86 711 87 
1292 518 528 519 
1293 90 715 479 
1294 674 740 502 
1295 92 716 480 
1296 596 721 679 
1297 537 567 566 
1298 515 726 514 
1299 539 540 536 
1300 59 694 58 
1301 504 595 506 
1302 641 748 659 
1303 513 521 520 
1304 81 705 82 
1305 601 602 599 
1306 98 718 485 
1307 771 780 619 
1308 712 729 475 
1309 67 704 66 
1310 529 538 531 
1311 95 717 94 
1312 770 771 619 
1313 506 680 505 
1314 584 799 728 
1315 499 513 512 
1316 508 680 515 
1317 81 710 80 
1318 600 691 604 
1319 75 741 460 
1320 585 701 700 
1321 667 668 586 
1322 61 759 60 
1323 682 690 515 
1324 533 536 534 
1325 83 712 82 
1326 588 677 591 
1327 85 713 84 
1328 64 737 495 
1329 87 714 86 
1330 600 603 601 
1331 91 715 90 
1332 93 716 92 
1333 613 734 725 
1334 520 585 512 
1335 487 692 64 
1336 598 600 599 
1337 580 676 582 
1338 508 515 514 
1339 533 534 532 
1340 474 705 81 
1341 598 599 597 
1342 528 529 519 
1343 41 497 462 
1344 659 748 658 
1345 513 520 512 
1346 566 667 586 
1347 521 527 520 
1348 75 736 74 
1349 734 751 725 
1350 603 672 601 
1351 654 684 579 
1352 590 787 735 
1353 531 533 532 
1354 611 629 589 
1355 698 789 762 
1356 529 530 519 
1357 640 748 641 
1358 526 670 669 
1359 600 601 599 
1360 481 774 639 
1361 531 532 530 
1362 611 631 629 
1363 651 750 645 
1364 80 710 473 
1365 454 708 681 
1366 586 688 590 
1367 685 754 479 
1368 529 531 530 
1369 70 720 69 
1370 505 680 508 
1371 68 733 69 
1372 521 769 527 
1373 501 706 496 
1374 496 761 56 
1375 74 776 2 
1376 482 725 716 
1377 538 640 531 
1378 69 727 70 
1379 82 712 475 
1380 726 730 517 
1381 477 713 85 
1382 603 675 672 
1383 478 714 87 
1384 462 739 500 
1385 480 715 91 
1386 648 779 710 
1387 482 716 93 
1388 582 698 697 
1389 74 741 75 
1390 2 778 74 
1391 460 766 688 
1392 538 748 640 
1393 642 724 678 
1394 752 795 492 
1395 458 501 496 
1396 736 776 74 
1397 79 683 80 
1398 64 692 63 
1399 526 669 518 
1400 709 719 84 
1401 724 793 472 
1402 638 752 481 
1403 94 717 482 
1404 526 730 723 
1405 493 656 655 
1406 560 799 562 
1407 629 755 459 
1408 703 704 469 
1409 623 677 588 
1410 94 789 467 
1411 705 708 454 
1412 486 773 672 
1413 504 739 595 
1414 462 491 42 
1415 686 722 499 
1416 582 697 627 
1417 53 493 455 
1418 660 708 661 
1419 510 764 673 
1420 66 744 67 
1421 570 653 652 
1422 590 735 593 
1423 468 733 68 
1424 510 673 507 
1425 522 592 494 
1426 99 746 100 
1427 100 745 99 
1428 657 749 658 
1429 655 749 511 
1430 659 793 724 
1431 74 778 741 
1432 646 683 651 
1433 595 721 596 
1434 41 772 497 
1435 453 694 59 
1436 611 753 631 
1437 697 762 464 
1438 3 761 73 
1439 526 723 670 
1440 540 647 542 
1441 59 788 60 
1442 88 754 478 
1443 481 752 97 
1444 479 754 89 
1445 98 752 492 
1446 753 792 631 
1447 645 750 667 
1448 598 691 600 
1449 637 795 638 
1450 65 781 4 
1451 4 785 100 
1452 514 726 517 
1453 4 786 65 
1454 100 786 4 
1455 464 762 92 
1456 89 755 90 
1457 4 781 66 
1458 561 794 558 
1459 517 730 526 
1460 758 796 707 
1461 465 494 44 
1462 53 776 493 
1463 67 744 468 
1464 497 739 462 
1465 57 785 4 
1466 618 729 619 
1467 73 772 3 
1468 570 652 548 
1469 467 774 95 
1470 96 774 481 
1471 712 770 729 
1472 715 783 625 
1473 458 742 501 
1474 632 767 717 
1475 623 760 677 
1476 595 763 721 
1477 638 795 752 
1478 665 788 702 
1479 576 660 571 
1480 585 765 701 
1481 576 681 660 
1482 574 734 612 
1483 493 655 455 
1484 663 777 662 
1485 616 751 734 
1486 591 681 576 
1487 494 778 44 
1488 652 732 654 
1489 90 792 91 
1490 641 724 642 
1491 500 739 504 
1492 713 771 476 
1493 658 748 538 
1494 502 740 491 
1495 583 676 580 
1496 672 773 601 
1497 492 746 99 
1498 668 688 586 
1499 656 793 659 
1500 99 745 718 
1501 472 793 736 
1502 465 522 494 
1503 4 790 57 
1504 693 747 692 
1505 716 751 480 
1506 681 708 660 
1507 703 738 704 
1508 684 784 685 
1509 520 765 585 
1510 57 738 58 
1511 66 790 4 
1512 728 747 637 
1513 631 755 629 
1514 731 798 453 
1515 479 768 685 
1516 773 777 602 
1517 97 752 98 
1518 524 743 742 
1519 695 756 718 
1520 604 782 603 
1521 89 754 88 
1522 635 775 510 
1523 692 747 452 
1524 674 764 735 
1525 464 792 753 
1526 673 764 674 
1527 60 759 453 
1528 459 755 89 
1529 741 766 460 
1530 725 751 716 
1531 92 762 93 
1532 480 783 715 
1533 482 767 725 
1534 495 781 65 
1535 670 743 669 
1536 733 782 604 
1537 95 774 96 
1538 644 757 646 
1539 653 732 652 
1540 690 777 663 
1541 717 767 482 
1542 476 770 712 
1543 718 756 485 
1544 729 770 619 
1545 489 788 59 
1546 707 722 686 
1547 492 795 693 
1548 722 796 523 
1549 694 798 695 
1550 735 764 593 
1551 525 769 521 
1552 626 768 625 
1553 616 734 574 
1554 688 787 590 
1555 710 779 473 
1556 601 773 602 
1557 93 789 94 
1558 453 798 694 
1559 65 786 487 
1560 488 785 57 
1561 711 760 630 
1562 603 782 675 
1563 675 782 468 
1564 100 785 745 
1565 739 763 595 
1566 91 792 464 
1567 625 783 616 
1568 736 793 656 
1569 527 765 520 
1570 746 786 100 
1571 624 791 578 
1572 581 794 561 
1573 562 799 584 
1574 670 758 743 
1575 545 797 563 
1576 570 780 653 
1577 702 788 489 
1578 725 767 613 
1579 738 790 704 
1580 623 791 760 
1581 613 767 632 
1582 66 781 744 
1583 762 789 93 
1584 452 747 728 
1585 685 768 626 
1586 497 763 739 
1587 654 784 684 
1588 704 790 66 
1589 592 766 741 
1590 468 782 733 
1591 476 771 770 
1592 751 783 480 
1593 744 781 495 
1594 57 790 738 
1595 745 785 488 
1596 487 786 746 
1597 523 796 723 
1598 653 780 771 
1599 592 787 766 
1600 616 783 751 
1601 707 796 722 
1602 766 787 688 
$EndElements
