$MeshFormat
4.1 0 8
$EndMeshFormat
$Entities
48 80 40 6
9 0 0 0.019 0 
10 0 0 0 0 
11 0 0.294 0.019 0 
12 0 0.294 0 0 
13 0.294 0 0 0 
14 0.294 0 0.019 0 
15 0.294 0.294 0.019 0 
16 0.126 0.018 0.019 0 
17 0.018 0.018 0.019 0 
18 0.126 0.126 0.019 0 
19 0.018 0.126 0.019 0 
20 0.294 0.294 0 0 
21 0.126 0.018 0 0 
22 0.018 0.018 0 0 
23 0.126 0.126 0 0 
24 0.018 0.126 0 0 
25 -0.2 -0.2 0.4999999999999999 0 
26 -0.2 -0.2 -0.2 0 
27 -0.2 0.4999999999999999 0.4999999999999999 0 
28 -0.2 0.4999999999999999 -0.2 0 
29 0.4999999999999999 -0.2 -0.2 0 
30 0.4999999999999999 -0.2 0.4999999999999999 0 
31 0.4999999999999999 0.4999999999999999 0.4999999999999999 0 
32 0.4999999999999999 0.4999999999999999 -0.2 0 
33 0.094 0 0.149 0 
34 0.094 0 0.049 0 
35 0.094 0.2 0.149 0 
36 0.094 0.2 0.049 0 
37 0.144 0 0.04900000000000001 0 
38 0.144 0 0.149 0 
39 0.144 0.2 0.149 0 
40 0.144 0.05 0.149 0 
41 0.144 0.15 0.149 0 
42 0.144 0.2 0.04900000000000001 0 
43 0.144 0.05 0.049 0 
44 0.144 0.15 0.049 0 
45 0.244 0 0.049 0 
46 0.244 0 0.149 0 
47 0.244 0.05 0.149 0 
48 0.244 0.2 0.149 0 
49 0.244 0.15 0.149 0 
50 0.244 0.2 0.049 0 
51 0.244 0.05 0.049 0 
52 0.244 0.15 0.049 0 
53 0.294 0 0.049 0 
54 0.294 0 0.149 0 
55 0.294 0.2 0.149 0 
56 0.294 0.2 0.049 0 
13 -1e-07 -1e-07 -9.999999999940612e-08 1e-07 1e-07 0.0190001 0 2 10 -9 
14 -1e-07 -1.000000000028756e-07 0.0189999 1e-07 0.2940001 0.0190001 0 2 9 -11 
15 -1e-07 0.2939999 -9.999999999940612e-08 1e-07 0.2940001 0.0190001 0 2 12 -11 
16 -1e-07 -1.000000000028756e-07 -1e-07 1e-07 0.2940001 1e-07 0 2 10 -12 
17 -1.000000000028756e-07 -1e-07 -1e-07 0.2940001 1e-07 1e-07 0 2 10 -13 
18 0.2939999 -1e-07 -9.999999999940612e-08 0.2940001 1e-07 0.0190001 0 2 13 -14 
19 -1.000000000028756e-07 -1e-07 0.0189999 0.2940001 1e-07 0.0190001 0 2 9 -14 
20 -1.000000000028756e-07 0.2939999 0.0189999 0.2940001 0.2940001 0.0190001 0 2 11 -15 
21 0.2939999 -1.000000000028756e-07 0.0189999 0.2940001 0.2940001 0.0190001 0 2 14 -15 
22 0.01799985 0.01799985 0.01899985 0.12600015 0.01800015 0.01900015 0 2 16 -17 
23 0.12599985 0.01799985 0.01899985 0.12600015 0.12600015 0.01900015 0 2 16 -18 
24 0.01799985 0.12599985 0.01899985 0.12600015 0.12600015 0.01900015 0 2 18 -19 
25 0.01799985 0.01799985 0.01899985 0.01800015 0.12600015 0.01900015 0 2 17 -19 
26 -1.000000000028756e-07 0.2939999 -1e-07 0.2940001 0.2940001 1e-07 0 2 12 -20 
27 0.2939999 0.2939999 -9.999999999940612e-08 0.2940001 0.2940001 0.0190001 0 2 20 -15 
28 0.2939999 -1.000000000028756e-07 -1e-07 0.2940001 0.2940001 1e-07 0 2 13 -20 
29 0.01799985 0.01799985 -1.5e-07 0.12600015 0.01800015 1.5e-07 0 2 21 -22 
30 0.12599985 0.01799985 -1.5e-07 0.12600015 0.12600015 1.5e-07 0 2 21 -23 
31 0.01799985 0.12599985 -1.5e-07 0.12600015 0.12600015 1.5e-07 0 2 23 -24 
32 0.01799985 0.01799985 -1.5e-07 0.01800015 0.12600015 1.5e-07 0 2 22 -24 
33 0.1259999 0.0179999 -9.999999999940612e-08 0.1260001 0.0180001 0.0190001 0 2 21 -16 
34 0.0179999 0.0179999 -9.999999999940612e-08 0.0180001 0.0180001 0.0190001 0 2 22 -17 
35 0.1259999 0.1259999 -9.999999999940612e-08 0.1260001 0.1260001 0.0190001 0 2 23 -18 
36 0.0179999 0.1259999 -9.999999999940612e-08 0.0180001 0.1260001 0.0190001 0 2 24 -19 
37 -0.2000001 -0.2000001 -0.2000001 -0.1999999 -0.1999999 0.5000000999999999 0 2 26 -25 
38 -0.2000001 -0.2000001 0.4999998999999999 -0.1999999 0.5000000999999999 0.5000000999999999 0 2 25 -27 
39 -0.2000001 0.4999998999999999 -0.2000001 -0.1999999 0.5000000999999999 0.5000000999999999 0 2 28 -27 
40 -0.2000001 -0.2000001 -0.2000001 -0.1999999 0.5000000999999999 -0.1999999 0 2 26 -28 
41 -0.2000001 -0.2000001 -0.2000001 0.5000000999999999 -0.1999999 -0.1999999 0 2 26 -29 
42 0.4999998999999999 -0.2000001 -0.2000001 0.5000000999999999 -0.1999999 0.5000000999999999 0 2 29 -30 
43 -0.2000001 -0.2000001 0.4999998999999999 0.5000000999999999 -0.1999999 0.5000000999999999 0 2 25 -30 
44 -0.2000001 0.4999998999999999 0.4999998999999999 0.5000000999999999 0.5000000999999999 0.5000000999999999 0 2 27 -31 
45 0.4999998999999999 -0.2000001 0.4999998999999999 0.5000000999999999 0.5000000999999999 0.5000000999999999 0 2 30 -31 
46 -0.2000001 0.4999998999999999 -0.2000001 0.5000000999999999 0.5000000999999999 -0.1999999 0 2 28 -32 
47 0.4999998999999999 0.4999998999999999 -0.2000001 0.5000000999999999 0.5000000999999999 0.5000000999999999 0 2 32 -31 
48 0.4999998999999999 -0.2000001 -0.2000001 0.5000000999999999 0.5000000999999999 -0.1999999 0 2 29 -32 
49 0.0939999 -1e-07 0.0489999 0.0940001 1e-07 0.1490001 0 2 34 -33 
50 0.0939999 -1.000000000028756e-07 0.1489999 0.0940001 0.2000001 0.1490001 0 2 33 -35 
51 0.0939999 0.1999999 0.0489999 0.0940001 0.2000001 0.1490001 0 2 36 -35 
52 0.0939999 -1.000000000028756e-07 0.0489999 0.0940001 0.2000001 0.0490001 0 2 34 -36 
53 0.0939999 -1e-07 0.0489999 0.1440001 1e-07 0.0490001 0 2 34 -37 
54 0.1439999 -1.000000000277556e-07 0.04899989999999997 0.1440001 1.000000000277556e-07 0.1490001000000001 0 2 37 -38 
55 0.0939999 -1e-07 0.1489999 0.1440001 1e-07 0.1490001 0 2 33 -38 
56 0.0939999 0.1999999 0.1489999 0.1440001 0.2000001 0.1490001 0 2 35 -39 
57 0.1439999 -1.000000000271617e-07 0.1489999 0.1440001 0.05000010000000003 0.1490001000000001 0 2 38 -40 
58 0.1439999 0.0499999 0.1489999 0.1440001 0.1500001 0.1490001 0 2 40 -41 
59 0.1439999 0.1499999 0.1489999 0.1440001 0.2000001 0.1490001000000001 0 2 41 -39 
60 0.0939999 0.1999999 0.0489999 0.1440001 0.2000001 0.0490001 0 2 36 -42 
61 0.1439999 0.1999999 0.04899989999999997 0.1440001 0.2000001 0.1490001000000001 0 2 42 -39 
62 0.1439999 -1.000000000271617e-07 0.04899989999999997 0.1440001 0.05000010000000003 0.04900010000000003 0 2 37 -43 
63 0.1439999 0.0499999 0.0489999 0.1440001 0.1500001 0.0490001 0 2 43 -44 
64 0.1439999 0.1499999 0.04899989999999997 0.1440001 0.2000001 0.04900010000000003 0 2 44 -42 
65 0.1439999 -1e-07 0.0489999 0.2440001 1e-07 0.0490001 0 2 37 -45 
66 0.2439999 -1e-07 0.0489999 0.2440001 1e-07 0.1490001 0 2 45 -46 
67 0.1439999 -1e-07 0.1489999 0.2440001 1e-07 0.1490001 0 2 38 -46 
68 0.1439999 0.0499999 0.1489999 0.2440001 0.05000010000000001 0.1490001 0 2 40 -47 
69 0.2439999 -9.999999999940612e-08 0.1489999 0.2440001 0.05000010000000001 0.1490001 0 2 46 -47 
70 0.1439999 0.04999989999999997 0.04899989999999997 0.1440001 0.05000010000000003 0.1490001000000001 0 2 43 -40 
71 0.1439999 0.1499999 0.04899989999999997 0.1440001 0.1500001 0.1490001000000001 0 2 44 -41 
72 0.1439999 0.1999999 0.1489999 0.2440001 0.2000001 0.1490001 0 2 39 -48 
73 0.2439999 0.1499999 0.1489999 0.2440001 0.2000001 0.1490001 0 2 49 -48 
74 0.1439999 0.1499999 0.1489999 0.2440001 0.1500001 0.1490001 0 2 41 -49 
75 0.1439999 0.1999999 0.0489999 0.2440001 0.2000001 0.0490001 0 2 42 -50 
76 0.2439999 0.1999999 0.0489999 0.2440001 0.2000001 0.1490001 0 2 50 -48 
77 0.1439999 0.0499999 0.0489999 0.2440001 0.05000010000000001 0.0490001 0 2 43 -51 
78 0.2439999 -9.999999999940612e-08 0.0489999 0.2440001 0.05000010000000001 0.0490001 0 2 45 -51 
79 0.2439999 0.1499999 0.0489999 0.2440001 0.2000001 0.0490001 0 2 52 -50 
80 0.1439999 0.1499999 0.0489999 0.2440001 0.1500001 0.0490001 0 2 44 -52 
81 0.2439999 -1e-07 0.0489999 0.2940001 1e-07 0.0490001 0 2 45 -53 
82 0.2939999 -1e-07 0.0489999 0.2940001 1e-07 0.1490001 0 2 53 -54 
83 0.2439999 -1e-07 0.1489999 0.2940001 1e-07 0.1490001 0 2 46 -54 
84 0.2439999 0.0499999 0.0489999 0.2440001 0.05000010000000001 0.1490001 0 2 51 -47 
85 0.2439999 0.0499999 0.1489999 0.2440001 0.1500001 0.1490001 0 2 47 -49 
86 0.2439999 0.1999999 0.1489999 0.2940001 0.2000001 0.1490001 0 2 48 -55 
87 0.2939999 -1.000000000028756e-07 0.1489999 0.2940001 0.2000001 0.1490001 0 2 54 -55 
88 0.2439999 0.1499999 0.0489999 0.2440001 0.1500001 0.1490001 0 2 52 -49 
89 0.2439999 0.1999999 0.0489999 0.2940001 0.2000001 0.0490001 0 2 50 -56 
90 0.2939999 0.1999999 0.0489999 0.2940001 0.2000001 0.1490001 0 2 56 -55 
91 0.2439999 0.0499999 0.0489999 0.2440001 0.1500001 0.0490001 0 2 51 -52 
92 0.2939999 -1.000000000028756e-07 0.0489999 0.2940001 0.2000001 0.0490001 0 2 53 -56 
7 -1e-07 -1.000000000028756e-07 -9.999999999940612e-08 1e-07 0.2940001 0.0190001 0 4 -13 16 15 -14 
8 -1.000000000028756e-07 -1e-07 -9.999999999940612e-08 0.2940001 1e-07 0.0190001 0 4 -17 13 19 -18 
9 -1.500000000043133e-07 -1.500000000043133e-07 0.01899985 0.29400015 0.29400015 0.01900015 0 8 -14 19 21 -20 22 25 -24 -23 
10 -1.000000000028756e-07 0.2939999 -9.999999999940612e-08 0.2940001 0.2940001 0.0190001 0 4 -26 15 20 -27 
11 -1.500000000043133e-07 -1.500000000043133e-07 -1.5e-07 0.29400015 0.29400015 1.5e-07 0 8 -16 17 28 -26 29 32 -31 -30 
12 0.2939999 -1.000000000028756e-07 -9.999999999940612e-08 0.2940001 0.2940001 0.0190001 0 4 -18 28 27 -21 
13 0.01799985 0.01799985 -1.500000000008439e-07 0.12600015 0.01800015 0.01900015 0 4 -33 29 34 -22 
14 0.12599985 0.01799985 -1.500000000008439e-07 0.12600015 0.12600015 0.01900015 0 4 -33 30 35 -23 
15 0.01799985 0.12599985 -1.500000000008439e-07 0.12600015 0.12600015 0.01900015 0 4 -35 31 36 -24 
16 0.01799985 0.01799985 -1.500000000008439e-07 0.01800015 0.12600015 0.01900015 0 4 -34 32 36 -25 
17 -0.2000001 -0.2000001 -0.2000001 -0.1999999 0.5000000999999999 0.5000000999999999 0 4 -37 40 39 -38 
18 -0.2000001 -0.2000001 -0.2000001 0.5000000999999999 -0.1999999 0.5000000999999999 0 4 -41 37 43 -42 
19 -0.2000001 -0.2000001 0.4999998999999999 0.5000000999999999 0.5000000999999999 0.5000000999999999 0 4 -38 43 45 -44 
20 -0.2000001 0.4999998999999999 -0.2000001 0.5000000999999999 0.5000000999999999 0.5000000999999999 0 4 -46 39 44 -47 
21 -0.2000001 -0.2000001 -0.2000001 0.5000000999999999 0.5000000999999999 -0.1999999 0 4 -40 41 48 -46 
22 0.4999998999999999 -0.2000001 -0.2000001 0.5000000999999999 0.5000000999999999 0.5000000999999999 0 4 -42 48 47 -45 
23 0.0939999 -1.000000000028756e-07 0.0489999 0.0940001 0.2000001 0.1490001 0 4 -49 52 51 -50 
24 0.09399989999999997 -1.000000000277556e-07 0.04899989999999997 0.1440001 1.000000000277556e-07 0.1490001000000001 0 4 -53 49 55 -54 
25 0.09399989999999997 -1.000000000306311e-07 0.1489999 0.1440001 0.2000001 0.1490001000000001 0 6 -50 55 57 58 59 -56 
26 0.09399989999999997 0.1999999 0.04899989999999997 0.1440001 0.2000001 0.1490001000000001 0 4 -60 51 56 -61 
27 0.09399989999999997 -1.000000000306311e-07 0.04899989999999997 0.1440001 0.2000001 0.04900010000000003 0 6 -52 53 62 63 64 -60 
28 0.1439999 -1.000000000277556e-07 0.04899989999999997 0.2440001 1.000000000277556e-07 0.1490001000000001 0 4 -65 54 67 -66 
29 0.1439999 -1.000000000271617e-07 0.1489999 0.2440001 0.05000010000000003 0.1490001000000001 0 4 -57 67 69 -68 
30 0.1439999 0.04999989999999997 0.04899989999999997 0.1440001 0.1500001 0.1490001000000001 0 4 -70 63 71 -58 
31 0.1439999 0.1499999 0.1489999 0.2440001 0.2000001 0.1490001000000001 0 4 -59 74 73 -72 
32 0.1439999 0.1999999 0.04899989999999997 0.2440001 0.2000001 0.1490001000000001 0 4 -75 61 72 -76 
33 0.1439999 -1.000000000271617e-07 0.04899989999999997 0.2440001 0.05000010000000003 0.04900010000000003 0 4 -62 65 78 -77 
34 0.1439999 0.1499999 0.04899989999999997 0.2440001 0.2000001 0.04900010000000003 0 4 -64 80 79 -75 
35 0.2439999 -1e-07 0.0489999 0.2940001 1e-07 0.1490001 0 4 -81 66 83 -82 
36 0.1439999 0.04999989999999997 0.04899989999999997 0.2440001 0.05000010000000003 0.1490001000000001 0 4 -77 70 68 -84 
37 0.2439999 -1.000000000028756e-07 0.1489999 0.2940001 0.2000001 0.1490001 0 6 -69 83 87 -86 -73 -85 
38 0.1439999 0.1499999 0.04899989999999997 0.2440001 0.1500001 0.1490001000000001 0 4 -80 71 74 -88 
39 0.2439999 0.1999999 0.0489999 0.2940001 0.2000001 0.1490001 0 4 -89 76 86 -90 
40 0.2439999 -1.000000000028756e-07 0.0489999 0.2940001 0.2000001 0.0490001 0 6 -78 81 92 -89 -79 -91 
41 0.2939999 -1.000000000028756e-07 0.0489999 0.2940001 0.2000001 0.1490001 0 4 -82 92 90 -87 
42 0.2439999 0.0499999 0.0489999 0.2440001 0.1500001 0.1490001 0 4 -84 91 88 -85 
43 0.1439999 -1.000000000271617e-07 0.04899989999999997 0.1440001 0.05000010000000003 0.1490001000000001 0 4 -54 62 70 -57 
44 0.1439999 0.1499999 0.04899989999999997 0.1440001 0.2000001 0.1490001000000001 0 4 -71 64 61 -59 
45 0.2439999 -9.999999999940612e-08 0.0489999 0.2440001 0.05000010000000001 0.1490001 0 4 -66 78 84 -69 
46 0.2439999 0.1499999 0.0489999 0.2440001 0.2000001 0.1490001 0 4 -88 79 76 -73 
2 -1.500000000043133e-07 -1.500000000043133e-07 -1.500000000008439e-07 0.29400015 0.29400015 0.01900015 0 10 -7 -8 9 10 -11 12 13 -14 -15 16 
10 0.09399989999999997 -1.000000000306311e-07 0.04899989999999997 0.1440001 0.2000001 0.1490001000000001 0 8 -23 43 30 44 -24 26 -27 25 
11 0.2439999 -1.000000000028756e-07 0.0489999 0.2940001 0.2000001 0.1490001 0 8 -45 -42 -46 41 -35 39 -40 37 
12 0.1439999 -1.000000000271617e-07 0.04899989999999997 0.2440001 0.05000010000000003 0.1490001000000001 0 6 -43 45 -28 36 -33 29 
13 0.1439999 0.1499999 0.04899989999999997 0.2440001 0.2000001 0.1490001000000001 0 6 -44 46 -38 32 -34 31 
14 -0.20000015 -0.20000015 -0.20000015 0.50000015 0.50000015 0.50000015 0 36 -17 -18 19 20 -21 22 7 8 -9 -10 11 -12 -13 14 15 -16 23 24 -25 -26 27 28 -29 -30 -31 -32 33 34 35 -36 -37 38 -39 40 -41 42 
$EndEntities
$Nodes
174 459 1 459
0 9 0 1
1
0 0 0.019
0 10 0 1
2
0 0 0
0 11 0 1
3
0 0.294 0.019
0 12 0 1
4
0 0.294 0
0 13 0 1
5
0.294 0 0
0 14 0 1
6
0.294 0 0.019
0 15 0 1
7
0.294 0.294 0.019
0 16 0 1
8
0.126 0.018 0.019
0 17 0 1
9
0.018 0.018 0.019
0 18 0 1
10
0.126 0.126 0.019
0 19 0 1
11
0.018 0.126 0.019
0 20 0 1
12
0.294 0.294 0
0 21 0 1
13
0.126 0.018 0
0 22 0 1
14
0.018 0.018 0
0 23 0 1
15
0.126 0.126 0
0 24 0 1
16
0.018 0.126 0
0 25 0 1
17
-0.2 -0.2 0.4999999999999999
0 26 0 1
18
-0.2 -0.2 -0.2
0 27 0 1
19
-0.2 0.4999999999999999 0.4999999999999999
0 28 0 1
20
-0.2 0.4999999999999999 -0.2
0 29 0 1
21
0.4999999999999999 -0.2 -0.2
0 30 0 1
22
0.4999999999999999 -0.2 0.4999999999999999
0 31 0 1
23
0.4999999999999999 0.4999999999999999 0.4999999999999999
0 32 0 1
24
0.4999999999999999 0.4999999999999999 -0.2
0 33 0 1
25
0.094 0 0.149
0 34 0 1
26
0.094 0 0.049
0 35 0 1
27
0.094 0.2 0.149
0 36 0 1
28
0.094 0.2 0.049
0 37 0 1
29
0.144 0 0.04900000000000001
0 38 0 1
30
0.144 0 0.149
0 39 0 1
31
0.144 0.2 0.149
0 40 0 1
32
0.144 0.05 0.149
0 41 0 1
33
0.144 0.15 0.149
0 42 0 1
34
0.144 0.2 0.04900000000000001
0 43 0 1
35
0.144 0.05 0.049
0 44 0 1
36
0.144 0.15 0.049
0 45 0 1
37
0.244 0 0.049
0 46 0 1
38
0.244 0 0.149
0 47 0 1
39
0.244 0.05 0.149
0 48 0 1
40
0.244 0.2 0.149
0 49 0 1
41
0.244 0.15 0.149
0 50 0 1
42
0.244 0.2 0.049
0 51 0 1
43
0.244 0.05 0.049
0 52 0 1
44
0.244 0.15 0.049
0 53 0 1
45
0.294 0 0.049
0 54 0 1
46
0.294 0 0.149
0 55 0 1
47
0.294 0.2 0.149
0 56 0 1
48
0.294 0.2 0.049
1 13 0 0
1 14 0 2
49
50
0 0.09800000000000031 0.019
0 0.1960000000000002 0.019
1 15 0 0
1 16 0 2
51
52
0 0.09800000000000031 0
0 0.1960000000000002 0
1 17 0 2
53
54
0.09800000000000031 0 0
0.1960000000000002 0 0
1 18 0 0
1 19 0 2
55
56
0.09800000000000031 0 0.019
0.1960000000000002 0 0.019
1 20 0 2
57
58
0.09800000000000031 0.294 0.019
0.1960000000000002 0.294 0.019
1 21 0 2
59
60
0.294 0.09800000000000031 0.019
0.294 0.1960000000000002 0.019
1 22 0 0
1 23 0 0
1 24 0 0
1 25 0 0
1 26 0 2
61
62
0.09800000000000031 0.294 0
0.1960000000000002 0.294 0
1 27 0 0
1 28 0 2
63
64
0.294 0.09800000000000031 0
0.294 0.1960000000000002 0
1 29 0 0
1 30 0 0
1 31 0 0
1 32 0 0
1 33 0 0
1 34 0 0
1 35 0 0
1 36 0 0
1 37 0 5
65
66
67
68
69
-0.2 -0.2 -0.08333333333333322
-0.2 -0.2 0.03333333333333374
-0.2 -0.2 0.1500000000000004
-0.2 -0.2 0.2666666666666668
-0.2 -0.2 0.3833333333333335
1 38 0 5
70
71
72
73
74
-0.2 -0.08333333333333322 0.4999999999999999
-0.2 0.03333333333333374 0.4999999999999999
-0.2 0.1500000000000004 0.4999999999999999
-0.2 0.2666666666666668 0.4999999999999999
-0.2 0.3833333333333335 0.4999999999999999
1 39 0 5
75
76
77
78
79
-0.2 0.4999999999999999 -0.08333333333333322
-0.2 0.4999999999999999 0.03333333333333374
-0.2 0.4999999999999999 0.1500000000000004
-0.2 0.4999999999999999 0.2666666666666668
-0.2 0.4999999999999999 0.3833333333333335
1 40 0 5
80
81
82
83
84
-0.2 -0.08333333333333322 -0.2
-0.2 0.03333333333333374 -0.2
-0.2 0.1500000000000004 -0.2
-0.2 0.2666666666666668 -0.2
-0.2 0.3833333333333335 -0.2
1 41 0 5
85
86
87
88
89
-0.08333333333333322 -0.2 -0.2
0.03333333333333374 -0.2 -0.2
0.1500000000000004 -0.2 -0.2
0.2666666666666668 -0.2 -0.2
0.3833333333333335 -0.2 -0.2
1 42 0 5
90
91
92
93
94
0.4999999999999999 -0.2 -0.08333333333333322
0.4999999999999999 -0.2 0.03333333333333374
0.4999999999999999 -0.2 0.1500000000000004
0.4999999999999999 -0.2 0.2666666666666668
0.4999999999999999 -0.2 0.3833333333333335
1 43 0 5
95
96
97
98
99
-0.08333333333333322 -0.2 0.4999999999999999
0.03333333333333374 -0.2 0.4999999999999999
0.1500000000000004 -0.2 0.4999999999999999
0.2666666666666668 -0.2 0.4999999999999999
0.3833333333333335 -0.2 0.4999999999999999
1 44 0 5
100
101
102
103
104
-0.08333333333333322 0.4999999999999999 0.4999999999999999
0.03333333333333374 0.4999999999999999 0.4999999999999999
0.1500000000000004 0.4999999999999999 0.4999999999999999
0.2666666666666668 0.4999999999999999 0.4999999999999999
0.3833333333333335 0.4999999999999999 0.4999999999999999
1 45 0 5
105
106
107
108
109
0.4999999999999999 -0.08333333333333322 0.4999999999999999
0.4999999999999999 0.03333333333333374 0.4999999999999999
0.4999999999999999 0.1500000000000004 0.4999999999999999
0.4999999999999999 0.2666666666666668 0.4999999999999999
0.4999999999999999 0.3833333333333335 0.4999999999999999
1 46 0 5
110
111
112
113
114
-0.08333333333333322 0.4999999999999999 -0.2
0.03333333333333374 0.4999999999999999 -0.2
0.1500000000000004 0.4999999999999999 -0.2
0.2666666666666668 0.4999999999999999 -0.2
0.3833333333333335 0.4999999999999999 -0.2
1 47 0 5
115
116
117
118
119
0.4999999999999999 0.4999999999999999 -0.08333333333333322
0.4999999999999999 0.4999999999999999 0.03333333333333374
0.4999999999999999 0.4999999999999999 0.1500000000000004
0.4999999999999999 0.4999999999999999 0.2666666666666668
0.4999999999999999 0.4999999999999999 0.3833333333333335
1 48 0 5
120
121
122
123
124
0.4999999999999999 -0.08333333333333322 -0.2
0.4999999999999999 0.03333333333333374 -0.2
0.4999999999999999 0.1500000000000004 -0.2
0.4999999999999999 0.2666666666666668 -0.2
0.4999999999999999 0.3833333333333335 -0.2
1 49 0 0
1 50 0 1
125
0.094 0.09999999999999992 0.149
1 51 0 0
1 52 0 1
126
0.094 0.09999999999999992 0.049
1 53 0 0
1 54 0 0
1 55 0 0
1 56 0 0
1 57 0 0
1 58 0 0
1 59 0 0
1 60 0 0
1 61 0 0
1 62 0 0
1 63 0 0
1 64 0 0
1 65 0 0
1 66 0 0
1 67 0 0
1 68 0 0
1 69 0 0
1 70 0 0
1 71 0 0
1 72 0 0
1 73 0 0
1 74 0 0
1 75 0 0
1 76 0 0
1 77 0 0
1 78 0 0
1 79 0 0
1 80 0 0
1 81 0 0
1 82 0 0
1 83 0 0
1 84 0 0
1 85 0 0
1 86 0 0
1 87 0 1
127
0.294 0.09999999999999992 0.149
1 88 0 0
1 89 0 0
1 90 0 0
1 91 0 0
1 92 0 1
128
0.294 0.09999999999999992 0.049
2 7 0 0
2 8 0 0
2 9 0 7
129
130
131
132
133
134
135
0.1772000000000001 0.07200000000000002 0.019
0.07200000000000002 0.1772000000000001 0.019
0.1417828191780397 0.2156163691836434 0.019
0.214871057637649 0.1408996390418479 0.019
0.05379588588120757 0.2411724183858523 0.019
0.2411336162437244 0.05374990607403388 0.019
0.2278978441973973 0.2278978441973973 0.019
2 10 0 0
2 11 0 7
136
137
138
139
140
141
142
0.1772000000000001 0.07200000000000002 0
0.07199999999999999 0.1772000000000001 0
0.1417828191780397 0.2156163691836433 0
0.214871057637649 0.1408996390418479 0
0.2411336162437244 0.05374990607403388 0
0.05379588588120756 0.2411724183858523 0
0.2278978441973973 0.2278978441973973 0
2 12 0 0
2 13 0 0
2 14 0 0
2 15 0 0
2 16 0 0
2 17 0 34
143
144
145
146
147
148
149
150
151
152
153
154
155
156
157
158
159
160
161
162
163
164
165
166
167
168
169
170
171
172
173
174
175
176
-0.2 -0.09896370289181558 0.09166666666666695
-0.2 0.394410146673873 0.09294233021616261
-0.2 0.08154867361756574 0.3954321187552001
-0.2 0.08154867361756574 -0.0954321187552
-0.2 0.3940843368995046 0.3163380423006704
-0.2 -0.1012099280768197 0.3245056402505646
-0.2 0.3266056075015683 -0.1028134148418589
-0.2 -0.1012099280768196 -0.02450564025056418
-0.2 0.01172990128745866 0.01520474733640745
-0.2 0.003682145394883735 0.1469785690005126
-0.2 0.1031088913245532 0.09166666666666723
-0.2 0.1053309460491157 0.2044456872230395
-0.2 0.2024554910452925 0.1493520589816182
-0.2 0.2051137783961363 0.2620626039270233
-0.2 0.2041451884327377 0.03333333333333416
-0.2 0.3094444803350785 0.2060699943309103
-0.2 0.205355079215967 -0.08226084592452579
-0.2 -0.09906981522623048 0.207747368208513
-0.2 0.2045699172513685 0.3815774789213643
-0.2 0.01226211465441043 0.283724532344364
-0.2 -0.02604699476578898 -0.1029484972432907
-0.2 -0.02598363603162807 0.4028210305386207
-0.2 0.4041354606130407 -0.02701817313770971
-0.2 0.3211064571945871 0.4025051506307334
-0.2 0.4195877927816913 0.2064034067028821
-0.2 0.2808286112573595 0.09509590999835849
-0.2 0.286863794015335 0.3137106540221403
-0.2 0.3025800156157576 0.001546523273960099
-0.2 0.1148316684934146 -0.004695554337722924
-0.2 0.1217650859937193 0.3054484842341982
-0.2 -0.1145940724502975 -0.1145940724502975
-0.2 -0.1145940724502978 0.4145940724502977
-0.2 0.4145940724502977 -0.1145940724502978
-0.2 0.4145940724502978 0.4145940724502978
2 18 0 34
177
178
179
180
181
182
183
184
185
186
187
188
189
190
191
192
193
194
195
196
197
198
199
200
201
202
203
204
205
206
207
208
209
210
0.08154867361756574 -0.2 -0.09543211875519991
0.08154867361756579 -0.2 0.3954321187552001
0.394410146673873 -0.2 0.09294233021616261
-0.09896370289181564 -0.2 0.09166666666666706
0.3278841193686491 -0.2 0.4050588177911831
0.3266056075015683 -0.2 -0.1028134148418589
-0.1012099280768198 -0.2 0.3245056402505646
-0.1012099280768196 -0.2 -0.02450564025056401
0.01172990128745857 -0.2 0.01520474733640759
0.003682145394883651 -0.2 0.1469785690005128
0.1031088913245531 -0.2 0.09166666666666734
0.1053309460491157 -0.2 0.2044456872230396
0.2024554910452925 -0.2 0.1493520589816182
0.2041451884327374 -0.2 0.03333333333333419
0.2050410425599575 -0.2 0.261936621763231
0.3015000910604452 -0.2 0.1916738577110559
0.2057265002291316 -0.2 0.3818503580655989
0.2053550792159669 -0.2 -0.08226084592452576
-0.09906981522623051 -0.2 0.2077473682085131
0.01226211465441043 -0.2 0.283724532344364
-0.02604699476578903 -0.2 -0.1029484972432907
0.4041354606130407 -0.2 -0.02701817313770968
-0.02598363603162807 -0.2 0.4028210305386207
0.4080849130015456 -0.2 0.3307349384563805
0.4053855771440444 -0.2 0.2158033322161669
0.2792397334024327 -0.2 0.0922166826743876
0.3016764480726479 -0.2 0.3017546967993116
0.3023152026399364 -0.2 0.001066652053298339
0.1148316684934146 -0.2 -0.00469555433772284
0.1219818554220362 -0.2 0.3054778636302867
-0.1145940724502974 -0.2 -0.1145940724502974
0.4145940724502978 -0.2 -0.1145940724502978
-0.1145940724502978 -0.2 0.4145940724502977
0.4151880858019101 -0.2 0.4151880858019101
2 19 0 34
211
212
213
214
215
216
217
218
219
220
221
222
223
224
225
226
227
228
229
230
231
232
233
234
235
236
237
238
239
240
241
242
243
244
0.08154867361756579 -0.0954321187552 0.4999999999999999
0.08154867361756585 0.3954321187552 0.4999999999999999
0.394410146673873 0.09294233021616261 0.4999999999999999
-0.09896370289181558 0.09166666666666695 0.4999999999999999
0.3278841193686491 0.4050588177911831 0.4999999999999999
-0.1012099280768197 0.3245056402505646 0.4999999999999999
0.3266056075015683 -0.1028134148418589 0.4999999999999999
-0.1012099280768196 -0.02450564025056418 0.4999999999999999
0.01172990128745871 0.01520474733640745 0.4999999999999999
0.003682145394883735 0.1469785690005126 0.4999999999999999
0.1031088913245532 0.09166666666666717 0.4999999999999999
0.1053309460491158 0.2044456872230396 0.4999999999999999
0.2024554910452927 0.1493520589816182 0.4999999999999999
0.2041451884327377 0.03333333333333416 0.4999999999999999
0.2050410425599578 0.2619366217632309 0.4999999999999999
0.3015000910604453 0.1916738577110559 0.4999999999999999
0.2057265002291317 0.3818503580655988 0.4999999999999999
-0.09906981522623048 0.207747368208513 0.4999999999999999
0.205355079215967 -0.08226084592452579 0.4999999999999999
0.01226211465441052 0.2837245323443639 0.4999999999999999
-0.02604699476578898 -0.1029484972432907 0.4999999999999999
-0.02598363603162807 0.4028210305386207 0.4999999999999999
0.4041354606130407 -0.02701817313770968 0.4999999999999999
0.4080849130015456 0.3307349384563804 0.4999999999999999
0.4053855771440446 0.2158033322161669 0.4999999999999999
0.2792397334024329 0.09221668267438765 0.4999999999999999
0.3016764480726481 0.3017546967993115 0.4999999999999999
0.3023152026399366 0.001066652053298339 0.4999999999999999
0.1148316684934147 -0.004695554337722979 0.4999999999999999
0.1219818554220364 0.3054778636302867 0.4999999999999999
-0.1145940724502975 -0.1145940724502975 0.4999999999999999
-0.1145940724502978 0.4145940724502978 0.4999999999999999
0.4145940724502977 -0.1145940724502978 0.4999999999999999
0.4151880858019103 0.4151880858019103 0.4999999999999999
2 20 0 34
245
246
247
248
249
250
251
252
253
254
255
256
257
258
259
260
261
262
263
264
265
266
267
268
269
270
271
272
273
274
275
276
277
278
-0.09896370289181564 0.4999999999999999 0.09166666666666706
0.394410146673873 0.4999999999999999 0.09294233021616261
0.08154867361756579 0.4999999999999999 0.3954321187552001
0.08154867361756574 0.4999999999999999 -0.09543211875519991
0.3278841193686491 0.4999999999999999 0.4050588177911831
0.3266056075015683 0.4999999999999999 -0.1028134148418589
-0.1012099280768198 0.4999999999999999 0.3245056402505646
-0.1012099280768196 0.4999999999999999 -0.02450564025056401
0.0117299012874586 0.4999999999999999 0.01520474733640753
0.003682145394883651 0.4999999999999999 0.1469785690005128
0.1031088913245531 0.4999999999999999 0.09166666666666734
0.1053309460491157 0.4999999999999999 0.2044456872230396
0.2024554910452925 0.4999999999999999 0.1493520589816182
0.2041451884327375 0.4999999999999999 0.03333333333333416
0.2050410425599576 0.4999999999999999 0.2619366217632309
0.3015000910604452 0.4999999999999999 0.1916738577110559
0.2057265002291317 0.4999999999999999 0.3818503580655989
0.2053550792159669 0.4999999999999999 -0.0822608459245258
-0.09906981522623051 0.4999999999999999 0.2077473682085131
0.01226211465441043 0.4999999999999999 0.283724532344364
-0.02604699476578903 0.4999999999999999 -0.1029484972432907
0.4041354606130407 0.4999999999999999 -0.02701817313770971
-0.02598363603162807 0.4999999999999999 0.4028210305386207
0.4080849130015455 0.4999999999999999 0.3307349384563804
0.4053855771440444 0.4999999999999999 0.2158033322161669
0.2792397334024327 0.4999999999999999 0.0922166826743876
0.3016764480726479 0.4999999999999999 0.3017546967993115
0.3023152026399364 0.4999999999999999 0.001066652053298256
0.1148316684934146 0.4999999999999999 -0.004695554337722896
0.1219818554220362 0.4999999999999999 0.3054778636302867
-0.1145940724502974 0.4999999999999999 -0.1145940724502974
0.4145940724502978 0.4999999999999999 -0.1145940724502978
-0.1145940724502978 0.4999999999999999 0.4145940724502977
0.4151880858019101 0.4999999999999999 0.4151880858019101
2 21 0 34
279
280
281
282
283
284
285
286
287
288
289
290
291
292
293
294
295
296
297
298
299
300
301
302
303
304
305
306
307
308
309
310
311
312
-0.09896370289181558 0.09166666666666695 -0.2
0.394410146673873 0.09294233021616261 -0.2
0.08154867361756579 0.3954321187552 -0.2
0.08154867361756579 -0.0954321187552 -0.2
0.3940843368995047 0.3163380423006704 -0.2
-0.1012099280768197 0.3245056402505646 -0.2
0.3266056075015683 -0.1028134148418589 -0.2
-0.1012099280768196 -0.02450564025056418 -0.2
0.01172990128745871 0.01520474733640745 -0.2
0.003682145394883735 0.1469785690005126 -0.2
0.1031088913245532 0.09166666666666717 -0.2
0.1053309460491158 0.2044456872230396 -0.2
0.2024554910452926 0.1493520589816181 -0.2
0.2051137783961363 0.2620626039270233 -0.2
0.2041451884327377 0.03333333333333416 -0.2
0.3094444803350786 0.2060699943309102 -0.2
-0.09906981522623048 0.207747368208513 -0.2
0.205355079215967 -0.08226084592452579 -0.2
0.2045699172513686 0.3815774789213645 -0.2
0.01226211465441049 0.2837245323443639 -0.2
-0.02604699476578898 -0.1029484972432907 -0.2
-0.02598363603162807 0.4028210305386207 -0.2
0.4041354606130407 -0.02701817313770968 -0.2
0.3211064571945871 0.4025051506307335 -0.2
0.4195877927816913 0.206403406702882 -0.2
0.2808286112573595 0.09509590999835849 -0.2
0.2868637940153351 0.3137106540221404 -0.2
0.3025800156157577 0.001546523273960154 -0.2
0.1148316684934147 -0.004695554337722979 -0.2
0.1217650859937193 0.3054484842341982 -0.2
-0.1145940724502975 -0.1145940724502975 -0.2
-0.1145940724502978 0.4145940724502978 -0.2
0.4145940724502977 -0.1145940724502978 -0.2
0.4145940724502978 0.4145940724502978 -0.2
2 22 0 34
313
314
315
316
317
318
319
320
321
322
323
324
325
326
327
328
329
330
331
332
333
334
335
336
337
338
339
340
341
342
343
344
345
346
0.4999999999999999 0.08154867361756574 -0.0954321187552
0.4999999999999999 0.08154867361756574 0.3954321187552001
0.4999999999999999 0.394410146673873 0.09294233021616261
0.4999999999999999 -0.09896370289181558 0.09166666666666695
0.4999999999999999 0.3940843368995046 0.3163380423006704
0.4999999999999999 -0.1012099280768197 0.3245056402505646
0.4999999999999999 0.3266056075015683 -0.1028134148418589
0.4999999999999999 -0.1012099280768196 -0.02450564025056418
0.4999999999999999 0.01172990128745866 0.01520474733640745
0.4999999999999999 0.003682145394883735 0.1469785690005126
0.4999999999999999 0.1031088913245532 0.09166666666666723
0.4999999999999999 0.1053309460491157 0.2044456872230395
0.4999999999999999 0.2024554910452925 0.1493520589816182
0.4999999999999999 0.2051137783961363 0.2620626039270233
0.4999999999999999 0.2041451884327377 0.03333333333333416
0.4999999999999999 0.3094444803350785 0.2060699943309103
0.4999999999999999 0.205355079215967 -0.08226084592452579
0.4999999999999999 -0.09906981522623048 0.207747368208513
0.4999999999999999 0.2045699172513685 0.3815774789213643
0.4999999999999999 0.01226211465441043 0.283724532344364
0.4999999999999999 -0.02604699476578898 -0.1029484972432907
0.4999999999999999 -0.02598363603162807 0.4028210305386207
0.4999999999999999 0.4041354606130407 -0.02701817313770971
0.4999999999999999 0.3211064571945871 0.4025051506307334
0.4999999999999999 0.4195877927816913 0.2064034067028821
0.4999999999999999 0.2808286112573595 0.09509590999835849
0.4999999999999999 0.286863794015335 0.3137106540221403
0.4999999999999999 0.3025800156157576 0.001546523273960099
0.4999999999999999 0.1148316684934146 -0.004695554337722924
0.4999999999999999 0.1217650859937193 0.3054484842341982
0.4999999999999999 -0.1145940724502975 -0.1145940724502975
0.4999999999999999 -0.1145940724502978 0.4145940724502977
0.4999999999999999 0.4145940724502977 -0.1145940724502978
0.4999999999999999 0.4145940724502978 0.4145940724502978
2 23 0 2
347
348
0.094 0.15 0.099
0.094 0.04999999999999998 0.09900000000000002
2 24 0 1
349
0.119 0 0.09900000000000002
2 25 0 2
350
351
0.119 0.03749999999999998 0.149
0.119 0.1625 0.149
2 26 0 1
352
0.119 0.2 0.09900000000000002
2 27 0 2
353
354
0.119 0.03749999999999998 0.049
0.119 0.1625 0.049
2 28 0 1
355
0.194 0 0.09900000000000002
2 29 0 1
356
0.194 0.025 0.149
2 30 0 1
357
0.144 0.09999999999999999 0.099
2 31 0 1
358
0.194 0.175 0.149
2 32 0 1
359
0.194 0.2 0.09900000000000002
2 33 0 1
360
0.194 0.025 0.049
2 34 0 1
361
0.194 0.175 0.049
2 35 0 1
362
0.269 0 0.099
2 36 0 1
363
0.194 0.05 0.09900000000000002
2 37 0 2
364
365
0.269 0.03749999999999998 0.149
0.269 0.1625 0.149
2 38 0 1
366
0.194 0.15 0.09900000000000002
2 39 0 1
367
0.269 0.2 0.099
2 40 0 2
368
369
0.269 0.03749999999999998 0.049
0.269 0.1625 0.049
2 41 0 2
370
371
0.294 0.15 0.099
0.294 0.04999999999999996 0.09900000000000002
2 42 0 1
372
0.244 0.09999999999999999 0.099
2 43 0 1
373
0.144 0.025 0.099
2 44 0 1
374
0.144 0.175 0.099
2 45 0 1
375
0.244 0.025 0.099
2 46 0 1
376
0.244 0.175 0.099
3 2 0 0
3 10 0 0
3 11 0 0
3 12 0 0
3 13 0 0
3 14 0 83
377
378
379
380
381
382
383
384
385
386
387
388
389
390
391
392
393
394
395
396
397
398
399
400
401
402
403
404
405
406
407
408
409
410
411
412
413
414
415
416
417
418
419
420
421
422
423
424
425
426
427
428
429
430
431
432
433
434
435
436
437
438
439
440
441
442
443
444
445
446
447
448
449
450
451
452
453
454
455
456
457
458
459
0.1939999999999999 0.08750000000000049 0.3232616846525832
0.119 0.3072433944541349 0.307243394454135
0.01834101656168625 0.15 0.3122750812063708
0.3102256476774827 0.3089810470496795 0.3053133158468834
0.3283750000000001 0.15 0.2885842833579401
0.05365228666068555 -0.02777822972187797 0.3238924834758402
-0.04734002868937556 0.04810758210005001 0.1388205910634827
0.3310407686774461 -0.02366358688279823 0.3199287566475169
0.1189999999999999 0.351174749543791 0.1600340496701258
-0.02989182742109475 0.2931530763518369 0.2228786120282933
0.194 -0.03749999999999997 0.2697548429876051
0.269 0.3477662801665664 0.156861771812748
0.206877685697876 0.2117446286042481 0.2765486772445841
0.175115918733056 -0.1012806676046859 0.08697281718823754
-0.05762288895280249 0.3579250785150528 0.3579250785150528
0.2430431944572266 -0.1059216639040816 -0.01108269385578246
0.3426659476541991 -0.1013916992974088 0.07117006070696812
-0.01928989693421605 0.1660853149855849 0.1329146850144151
0.04634420638039325 -0.09303055257239676 0.0784651086294956
0.3952518095586495 0.1380154363248776 0.04803426965611214
0.3750607888478587 0.3750607888478587 -0.07482781503006126
0.3838742903864298 0.1470000000000003 -0.08010466130753698
0.09528977985501916 0.06426591194200761 0.2619682541632627
0.3753758795945242 0.2917129045248555 0.1163308694256647
0.1814999999999999 0.287908067316044 0.09900000000000003
0.3769269248521214 -0.07645687380569899 -0.0742215561689067
0.3847292525698757 0.04999999999999996 0.2273765717302262
-0.0712625353897811 0.3766302200268126 -0.05943178697415625
-0.02604877916955652 -0.07658292365801872 0.2148935981714537
0.04021188432689621 0.2027306208264111 -0.1064528418862462
-0.08193433698665503 -0.08317377696131729 -0.05508377462610353
-0.07113765191646851 -0.07113765191646851 0.3709067606836129
-0.06259764453273821 0.03946093761812912 0.2864588532939702
0.1374131857634434 -0.08464549624792242 -0.07425809988012681
0.2181534221017999 0.09435680358828225 -0.1027347342667497
0.03809675627347115 0.4022636565222852 0.06326636791695096
0.1262826808616071 0.1851560526156598 0.3739726958664873
0.3804786964868725 0.3720348339520294 0.2172608383205596
0.04900000000000015 0.3801701961930017 -0.07701591877342485
0.3756481171795585 0.2432454297259849 0.2273635778175492
-0.07106004055743369 0.1470000000000003 -0.09097465696356218
0.3996674903590748 0.004481790109802534 0.07406252251649804
-0.07545663504322109 0.3723705081811424 0.0980084969560116
-0.08151606448175548 0.2331432145904492 0.3269638979396993
0.2710833333333333 0.0729166666666666 0.2473250631513701
0.1052936588740253 0.1804457725826835 0.2550680675202708
0.2155980475098151 0.2800689213192017 0.3786435541826266
0.2139834023885734 0.3877111448565292 0.3155804387729231
0.2450000000000001 0.3963832364222678 0.0095
0.2450000000000001 0.3426802199506246 -0.09455262296250504
0.3962308506919521 0.15 0.1637266283844674
0.4031968102649253 0.2526012512295575 -0.008605549842832952
0.1719910725890582 -0.01504445042154768 0.3900581005687244
0.3836534614694078 0.3753151053362664 0.3841459825391004
-0.08893971417364939 0.2450000000000001 0.0787758226023301
0.1884861793407534 0.1235276413184932 0.2322533038646442
-0.07795072786049703 -0.06192428815554424 0.09907422532578176
0.3878192584571998 -0.08297247599492835 0.2093088129332734
0.07122222222222163 0.07200000000000005 -0.08913733126486968
-0.09799573800887815 0.2450000000000001 -0.03628348574907533
0.1470000000000002 0.2699502557076165 -0.09729383728225195
0.06618712173932981 0.2757118555967993 0.1038435608696649
0.3602588075273936 0.3918166077966236 0.04861165927102153
0.2450000000000002 -0.01731752249800762 -0.102426034589322
0.300234869955988 0.07662187747826128 0.3813029889259599
0.09092849358406871 0.07166219957134196 0.3807226620465022
0.3498718918934644 0.03569420550870375 -0.09716135671177983
0.02909811749833836 0.255831600063302 0.3684395315140533
-0.08805906553665574 0.1497134618739271 0.2351083368607569
0.2368622689777329 0.204428299023357 -0.1089650953062722
0.3753400829105568 0.2274275102051714 0.3773518563835301
-0.1006489640110148 0.04900000000000016 -0.03421105861812865
-0.1030992362347919 0.1501631385229887 0.03345419227457086
0.04451265479540927 0.3864664240634009 0.2507259054113053
0.03386265827833216 -0.05211334592068555 -0.1007199792252444
0.1426593595982961 0.3660340471662242 0.4038253333106665
0.3288057612169858 0.2685769616061338 -0.1036307852200983
0.09429637457781651 -0.08559534244863137 0.2297796028013263
0.2433148580644653 -0.1036071427844876 0.1930931888904207
-0.08231025038334666 0.1200469812332891 0.3796490988996633
0.1470671094047244 0.3982079649314751 0.01264429738219446
0.182073108229495 0.2804384521107014 0.2026378254386183
0.2447148305679701 0.1727710829749602 0.3736808295620512
$EndNodes
$Elements
174 2818 1 2818
0 9 15 1
1 1 
0 10 15 1
2 2 
0 11 15 1
3 3 
0 12 15 1
4 4 
0 13 15 1
5 5 
0 14 15 1
6 6 
0 15 15 1
7 7 
0 16 15 1
8 8 
0 17 15 1
9 9 
0 18 15 1
10 10 
0 19 15 1
11 11 
0 20 15 1
12 12 
0 21 15 1
13 13 
0 22 15 1
14 14 
0 23 15 1
15 15 
0 24 15 1
16 16 
0 25 15 1
17 17 
0 26 15 1
18 18 
0 27 15 1
19 19 
0 28 15 1
20 20 
0 29 15 1
21 21 
0 30 15 1
22 22 
0 31 15 1
23 23 
0 32 15 1
24 24 
0 33 15 1
25 25 
0 34 15 1
26 26 
0 35 15 1
27 27 
0 36 15 1
28 28 
0 37 15 1
29 29 
0 38 15 1
30 30 
0 39 15 1
31 31 
0 40 15 1
32 32 
0 41 15 1
33 33 
0 42 15 1
34 34 
0 43 15 1
35 35 
0 44 15 1
36 36 
0 45 15 1
37 37 
0 46 15 1
38 38 
0 47 15 1
39 39 
0 48 15 1
40 40 
0 49 15 1
41 41 
0 50 15 1
42 42 
0 51 15 1
43 43 
0 52 15 1
44 44 
0 53 15 1
45 45 
0 54 15 1
46 46 
0 55 15 1
47 47 
0 56 15 1
48 48 
1 13 1 1
49 2 1 
1 14 1 3
50 1 49 
51 49 50 
52 50 3 
1 15 1 1
53 4 3 
1 16 1 3
54 2 51 
55 51 52 
56 52 4 
1 17 1 3
57 2 53 
58 53 54 
59 54 5 
1 18 1 1
60 5 6 
1 19 1 3
61 1 55 
62 55 56 
63 56 6 
1 20 1 3
64 3 57 
65 57 58 
66 58 7 
1 21 1 3
67 6 59 
68 59 60 
69 60 7 
1 22 1 1
70 8 9 
1 23 1 1
71 8 10 
1 24 1 1
72 10 11 
1 25 1 1
73 9 11 
1 26 1 3
74 4 61 
75 61 62 
76 62 12 
1 27 1 1
77 12 7 
1 28 1 3
78 5 63 
79 63 64 
80 64 12 
1 29 1 1
81 13 14 
1 30 1 1
82 13 15 
1 31 1 1
83 15 16 
1 32 1 1
84 14 16 
1 33 1 1
85 13 8 
1 34 1 1
86 14 9 
1 35 1 1
87 15 10 
1 36 1 1
88 16 11 
1 37 1 6
89 18 65 
90 65 66 
91 66 67 
92 67 68 
93 68 69 
94 69 17 
1 38 1 6
95 17 70 
96 70 71 
97 71 72 
98 72 73 
99 73 74 
100 74 19 
1 39 1 6
101 20 75 
102 75 76 
103 76 77 
104 77 78 
105 78 79 
106 79 19 
1 40 1 6
107 18 80 
108 80 81 
109 81 82 
110 82 83 
111 83 84 
112 84 20 
1 41 1 6
113 18 85 
114 85 86 
115 86 87 
116 87 88 
117 88 89 
118 89 21 
1 42 1 6
119 21 90 
120 90 91 
121 91 92 
122 92 93 
123 93 94 
124 94 22 
1 43 1 6
125 17 95 
126 95 96 
127 96 97 
128 97 98 
129 98 99 
130 99 22 
1 44 1 6
131 19 100 
132 100 101 
133 101 102 
134 102 103 
135 103 104 
136 104 23 
1 45 1 6
137 22 105 
138 105 106 
139 106 107 
140 107 108 
141 108 109 
142 109 23 
1 46 1 6
143 20 110 
144 110 111 
145 111 112 
146 112 113 
147 113 114 
148 114 24 
1 47 1 6
149 24 115 
150 115 116 
151 116 117 
152 117 118 
153 118 119 
154 119 23 
1 48 1 6
155 21 120 
156 120 121 
157 121 122 
158 122 123 
159 123 124 
160 124 24 
1 49 1 1
161 26 25 
1 50 1 2
162 25 125 
163 125 27 
1 51 1 1
164 28 27 
1 52 1 2
165 26 126 
166 126 28 
1 53 1 1
167 26 29 
1 54 1 1
168 29 30 
1 55 1 1
169 25 30 
1 56 1 1
170 27 31 
1 57 1 1
171 30 32 
1 58 1 1
172 32 33 
1 59 1 1
173 33 31 
1 60 1 1
174 28 34 
1 61 1 1
175 34 31 
1 62 1 1
176 29 35 
1 63 1 1
177 35 36 
1 64 1 1
178 36 34 
1 65 1 1
179 29 37 
1 66 1 1
180 37 38 
1 67 1 1
181 30 38 
1 68 1 1
182 32 39 
1 69 1 1
183 38 39 
1 70 1 1
184 35 32 
1 71 1 1
185 36 33 
1 72 1 1
186 31 40 
1 73 1 1
187 41 40 
1 74 1 1
188 33 41 
1 75 1 1
189 34 42 
1 76 1 1
190 42 40 
1 77 1 1
191 35 43 
1 78 1 1
192 37 43 
1 79 1 1
193 44 42 
1 80 1 1
194 36 44 
1 81 1 1
195 37 45 
1 82 1 1
196 45 46 
1 83 1 1
197 38 46 
1 84 1 1
198 43 39 
1 85 1 1
199 39 41 
1 86 1 1
200 40 47 
1 87 1 2
201 46 127 
202 127 47 
1 88 1 1
203 44 41 
1 89 1 1
204 42 48 
1 90 1 1
205 48 47 
1 91 1 1
206 43 44 
1 92 1 2
207 45 128 
208 128 48 
2 7 2 6
209 49 2 1 
210 2 49 51 
211 50 3 4 
212 50 4 52 
213 49 50 52 
214 49 52 51 
2 8 2 6
215 53 1 2 
216 55 1 53 
217 6 54 5 
218 6 56 54 
219 54 55 53 
220 56 55 54 
2 9 2 30
221 49 1 9 
222 9 1 55 
223 50 133 3 
224 3 133 57 
225 6 134 56 
226 59 134 6 
227 58 135 7 
228 7 135 60 
229 9 55 8 
230 8 129 10 
231 55 56 8 
232 56 129 8 
233 11 49 9 
234 10 130 11 
235 129 132 10 
236 10 131 130 
237 10 132 131 
238 50 49 11 
239 11 130 50 
240 130 133 50 
241 56 134 129 
242 57 131 58 
243 57 133 131 
244 131 135 58 
245 60 132 59 
246 132 134 59 
247 60 135 132 
248 129 134 132 
249 131 133 130 
250 132 135 131 
2 10 2 6
251 61 4 3 
252 57 61 3 
253 7 12 62 
254 7 62 58 
255 58 61 57 
256 58 62 61 
2 11 2 30
257 51 14 2 
258 14 53 2 
259 52 4 141 
260 4 61 141 
261 5 54 140 
262 63 5 140 
263 62 12 142 
264 12 64 142 
265 14 13 53 
266 13 15 136 
267 13 54 53 
268 54 13 136 
269 16 14 51 
270 15 16 137 
271 136 15 139 
272 15 137 138 
273 15 138 139 
274 16 51 52 
275 16 52 137 
276 137 52 141 
277 54 136 140 
278 61 62 138 
279 61 138 141 
280 138 62 142 
281 64 63 139 
282 139 63 140 
283 64 139 142 
284 136 139 140 
285 138 137 141 
286 139 138 142 
2 12 2 6
287 6 5 63 
288 59 6 63 
289 64 12 7 
290 7 60 64 
291 64 60 59 
292 59 63 64 
2 13 2 2
293 9 8 13 
294 9 13 14 
2 14 2 2
295 10 13 8 
296 10 15 13 
2 15 2 2
297 11 15 10 
298 11 16 15 
2 16 2 2
299 11 9 14 
300 11 14 16 
2 17 2 90
301 69 17 174 
302 17 70 174 
303 18 65 173 
304 80 18 173 
305 74 19 176 
306 19 79 176 
307 75 20 175 
308 20 84 175 
309 65 66 150 
310 65 150 173 
311 66 67 143 
312 66 143 150 
313 67 68 160 
314 143 67 160 
315 68 69 148 
316 68 148 160 
317 148 69 174 
318 70 71 164 
319 70 164 174 
320 71 72 145 
321 71 145 164 
322 72 73 161 
323 145 72 161 
324 73 74 166 
325 161 73 166 
326 166 74 176 
327 76 75 165 
328 165 75 175 
329 77 76 144 
330 144 76 165 
331 78 77 167 
332 77 144 167 
333 79 78 147 
334 147 78 167 
335 79 147 176 
336 81 80 163 
337 163 80 173 
338 82 81 146 
339 146 81 163 
340 83 82 159 
341 82 146 159 
342 84 83 149 
343 149 83 159 
344 84 149 175 
345 150 143 151 
346 151 143 152 
347 152 143 160 
348 144 158 167 
349 158 144 168 
350 144 165 170 
351 168 144 170 
352 145 161 172 
353 145 162 164 
354 162 145 172 
355 151 146 163 
356 146 151 171 
357 159 146 171 
358 158 147 167 
359 147 158 169 
360 166 147 169 
361 147 166 176 
362 160 148 162 
363 162 148 164 
364 164 148 174 
365 149 159 170 
366 165 149 170 
367 149 165 175 
368 150 151 163 
369 150 163 173 
370 151 152 153 
371 151 153 171 
372 153 152 154 
373 154 152 162 
374 152 160 162 
375 153 154 155 
376 153 155 157 
377 153 157 171 
378 155 154 156 
379 156 154 172 
380 154 162 172 
381 155 156 158 
382 157 155 168 
383 155 158 168 
384 158 156 169 
385 156 161 169 
386 161 156 172 
387 159 157 170 
388 157 159 171 
389 157 168 170 
390 161 166 169 
2 18 2 90
391 17 69 209 
392 95 17 209 
393 65 18 207 
394 18 85 207 
395 89 21 208 
396 21 90 208 
397 94 22 210 
398 22 99 210 
399 66 65 184 
400 184 65 207 
401 67 66 180 
402 180 66 184 
403 68 67 195 
404 67 180 195 
405 69 68 183 
406 183 68 195 
407 69 183 209 
408 85 86 197 
409 85 197 207 
410 86 87 177 
411 86 177 197 
412 87 88 194 
413 177 87 194 
414 88 89 182 
415 88 182 194 
416 182 89 208 
417 90 91 198 
418 90 198 208 
419 91 92 179 
420 91 179 198 
421 92 93 201 
422 179 92 201 
423 93 94 200 
424 93 200 201 
425 200 94 210 
426 96 95 199 
427 199 95 209 
428 97 96 178 
429 178 96 199 
430 98 97 193 
431 97 178 193 
432 99 98 181 
433 181 98 193 
434 99 181 210 
435 177 185 197 
436 185 177 205 
437 177 194 205 
438 193 178 206 
439 196 178 199 
440 178 196 206 
441 192 179 201 
442 179 192 202 
443 198 179 204 
444 179 202 204 
445 180 184 185 
446 180 185 186 
447 180 186 195 
448 181 193 203 
449 200 181 203 
450 181 200 210 
451 194 182 204 
452 182 198 204 
453 198 182 208 
454 183 195 196 
455 183 196 199 
456 183 199 209 
457 185 184 197 
458 197 184 207 
459 186 185 187 
460 187 185 205 
461 186 187 188 
462 186 188 196 
463 195 186 196 
464 188 187 189 
465 189 187 190 
466 190 187 205 
467 188 189 191 
468 188 191 206 
469 196 188 206 
470 189 190 202 
471 191 189 192 
472 192 189 202 
473 190 194 204 
474 194 190 205 
475 202 190 204 
476 191 192 203 
477 193 191 203 
478 191 193 206 
479 192 201 203 
480 201 200 203 
2 19 2 90
481 17 241 70 
482 95 241 17 
483 74 242 19 
484 19 242 100 
485 22 243 99 
486 105 243 22 
487 104 244 23 
488 23 244 109 
489 70 218 71 
490 70 241 218 
491 71 214 72 
492 71 218 214 
493 72 228 73 
494 214 228 72 
495 73 216 74 
496 73 228 216 
497 216 242 74 
498 96 231 95 
499 231 241 95 
500 97 211 96 
501 211 231 96 
502 98 229 97 
503 97 229 211 
504 99 217 98 
505 217 229 98 
506 99 243 217 
507 100 232 101 
508 100 242 232 
509 101 212 102 
510 101 232 212 
511 102 227 103 
512 212 227 102 
513 103 215 104 
514 103 227 215 
515 215 244 104 
516 106 233 105 
517 233 243 105 
518 107 213 106 
519 213 233 106 
520 108 235 107 
521 107 235 213 
522 109 234 108 
523 234 235 108 
524 109 244 234 
525 219 231 211 
526 211 239 219 
527 229 239 211 
528 212 240 227 
529 212 232 230 
530 230 240 212 
531 213 235 226 
532 226 236 213 
533 213 238 233 
534 236 238 213 
535 218 219 214 
536 219 220 214 
537 220 228 214 
538 227 237 215 
539 215 237 234 
540 234 244 215 
541 228 230 216 
542 230 232 216 
543 232 242 216 
544 217 238 229 
545 233 238 217 
546 217 243 233 
547 218 231 219 
548 218 241 231 
549 219 221 220 
550 219 239 221 
551 221 222 220 
552 222 230 220 
553 220 230 228 
554 221 223 222 
555 221 224 223 
556 221 239 224 
557 223 225 222 
558 225 240 222 
559 222 240 230 
560 224 236 223 
561 223 226 225 
562 223 236 226 
563 229 238 224 
564 224 239 229 
565 224 238 236 
566 226 237 225 
567 225 237 227 
568 227 240 225 
569 235 237 226 
570 234 237 235 
2 20 2 90
571 19 277 79 
572 100 277 19 
573 75 275 20 
574 20 275 110 
575 23 278 104 
576 119 278 23 
577 114 276 24 
578 24 276 115 
579 76 252 75 
580 252 275 75 
581 77 245 76 
582 245 252 76 
583 78 263 77 
584 77 263 245 
585 79 251 78 
586 251 263 78 
587 79 277 251 
588 101 267 100 
589 267 277 100 
590 102 247 101 
591 247 267 101 
592 103 261 102 
593 102 261 247 
594 104 249 103 
595 249 261 103 
596 104 278 249 
597 110 265 111 
598 110 275 265 
599 111 248 112 
600 111 265 248 
601 112 262 113 
602 248 262 112 
603 113 250 114 
604 113 262 250 
605 250 276 114 
606 115 266 116 
607 115 276 266 
608 116 246 117 
609 116 266 246 
610 117 269 118 
611 246 269 117 
612 118 268 119 
613 118 269 268 
614 268 278 119 
615 245 253 252 
616 245 254 253 
617 245 263 254 
618 260 269 246 
619 246 270 260 
620 266 272 246 
621 246 272 270 
622 261 274 247 
623 264 267 247 
624 247 274 264 
625 248 265 253 
626 253 273 248 
627 248 273 262 
628 249 271 261 
629 268 271 249 
630 249 278 268 
631 262 272 250 
632 250 272 266 
633 266 276 250 
634 251 264 263 
635 251 267 264 
636 251 277 267 
637 253 265 252 
638 265 275 252 
639 254 255 253 
640 255 273 253 
641 254 256 255 
642 254 264 256 
643 263 264 254 
644 256 257 255 
645 257 258 255 
646 258 273 255 
647 256 259 257 
648 256 274 259 
649 264 274 256 
650 257 270 258 
651 259 260 257 
652 260 270 257 
653 258 272 262 
654 262 273 258 
655 270 272 258 
656 259 271 260 
657 261 271 259 
658 259 274 261 
659 260 271 269 
660 269 271 268 
2 21 2 90
661 18 80 309 
662 85 18 309 
663 84 20 310 
664 20 110 310 
665 21 89 311 
666 120 21 311 
667 114 24 312 
668 24 124 312 
669 80 81 286 
670 80 286 309 
671 81 82 279 
672 81 279 286 
673 82 83 295 
674 279 82 295 
675 83 84 284 
676 83 284 295 
677 284 84 310 
678 86 85 299 
679 299 85 309 
680 87 86 282 
681 282 86 299 
682 88 87 296 
683 87 282 296 
684 89 88 285 
685 285 88 296 
686 89 285 311 
687 110 111 300 
688 110 300 310 
689 111 112 281 
690 111 281 300 
691 112 113 297 
692 281 112 297 
693 113 114 302 
694 297 113 302 
695 302 114 312 
696 121 120 301 
697 301 120 311 
698 122 121 280 
699 280 121 301 
700 123 122 303 
701 122 280 303 
702 124 123 283 
703 283 123 303 
704 124 283 312 
705 286 279 287 
706 287 279 288 
707 288 279 295 
708 280 294 303 
709 294 280 304 
710 280 301 306 
711 304 280 306 
712 281 297 308 
713 281 298 300 
714 298 281 308 
715 287 282 299 
716 282 287 307 
717 296 282 307 
718 294 283 303 
719 283 294 305 
720 302 283 305 
721 283 302 312 
722 295 284 298 
723 298 284 300 
724 300 284 310 
725 285 296 306 
726 301 285 306 
727 285 301 311 
728 286 287 299 
729 286 299 309 
730 287 288 289 
731 287 289 307 
732 289 288 290 
733 290 288 298 
734 288 295 298 
735 289 290 291 
736 289 291 293 
737 289 293 307 
738 291 290 292 
739 292 290 308 
740 290 298 308 
741 291 292 294 
742 293 291 304 
743 291 294 304 
744 294 292 305 
745 292 297 305 
746 297 292 308 
747 296 293 306 
748 293 296 307 
749 293 304 306 
750 297 302 305 
2 22 2 90
751 21 343 90 
752 120 343 21 
753 94 344 22 
754 22 344 105 
755 109 346 23 
756 23 346 119 
757 115 345 24 
758 24 345 124 
759 90 320 91 
760 90 343 320 
761 91 316 92 
762 91 320 316 
763 92 330 93 
764 316 330 92 
765 93 318 94 
766 93 330 318 
767 318 344 94 
768 105 334 106 
769 105 344 334 
770 106 314 107 
771 106 334 314 
772 107 331 108 
773 314 331 107 
774 108 336 109 
775 331 336 108 
776 336 346 109 
777 116 335 115 
778 335 345 115 
779 117 315 116 
780 315 335 116 
781 118 337 117 
782 117 337 315 
783 119 317 118 
784 317 337 118 
785 119 346 317 
786 121 333 120 
787 333 343 120 
788 122 313 121 
789 313 333 121 
790 123 329 122 
791 122 329 313 
792 124 319 123 
793 319 329 123 
794 124 345 319 
795 321 333 313 
796 313 341 321 
797 329 341 313 
798 314 342 331 
799 314 334 332 
800 332 342 314 
801 315 337 328 
802 328 338 315 
803 315 340 335 
804 338 340 315 
805 320 321 316 
806 321 322 316 
807 322 330 316 
808 328 337 317 
809 317 339 328 
810 336 339 317 
811 317 346 336 
812 330 332 318 
813 332 334 318 
814 334 344 318 
815 319 340 329 
816 335 340 319 
817 319 345 335 
818 320 333 321 
819 320 343 333 
820 321 323 322 
821 321 341 323 
822 323 324 322 
823 324 332 322 
824 322 332 330 
825 323 325 324 
826 323 327 325 
827 323 341 327 
828 325 326 324 
829 326 342 324 
830 324 342 332 
831 325 328 326 
832 327 338 325 
833 325 338 328 
834 328 339 326 
835 326 339 331 
836 331 342 326 
837 329 340 327 
838 327 341 329 
839 327 340 338 
840 331 339 336 
2 23 2 8
841 26 348 25 
842 25 348 125 
843 126 348 26 
844 27 347 28 
845 125 347 27 
846 28 347 126 
847 126 347 125 
848 125 348 126 
2 24 2 4
849 25 349 26 
850 30 349 25 
851 26 349 29 
852 29 349 30 
2 25 2 9
853 30 25 350 
854 25 125 350 
855 27 31 351 
856 125 27 351 
857 32 30 350 
858 31 33 351 
859 33 32 125 
860 125 32 350 
861 33 125 351 
2 26 2 4
862 27 28 352 
863 31 27 352 
864 28 34 352 
865 34 31 352 
2 27 2 9
866 29 353 26 
867 26 353 126 
868 28 354 34 
869 126 354 28 
870 35 353 29 
871 34 354 36 
872 36 126 35 
873 126 353 35 
874 36 354 126 
2 28 2 4
875 30 355 29 
876 29 355 37 
877 38 355 30 
878 37 355 38 
2 29 2 4
879 30 32 356 
880 38 30 356 
881 32 39 356 
882 39 38 356 
2 30 2 4
883 32 33 357 
884 35 32 357 
885 33 36 357 
886 36 35 357 
2 31 2 4
887 33 31 358 
888 31 40 358 
889 41 33 358 
890 40 41 358 
2 32 2 4
891 31 34 359 
892 40 31 359 
893 34 42 359 
894 42 40 359 
2 33 2 4
895 29 360 35 
896 37 360 29 
897 35 360 43 
898 43 360 37 
2 34 2 4
899 36 361 34 
900 34 361 42 
901 44 361 36 
902 42 361 44 
2 35 2 4
903 38 362 37 
904 37 362 45 
905 46 362 38 
906 45 362 46 
2 36 2 4
907 32 35 363 
908 39 32 363 
909 35 43 363 
910 43 39 363 
2 37 2 9
911 38 39 364 
912 46 38 364 
913 39 41 127 
914 39 127 364 
915 41 40 365 
916 40 47 365 
917 127 41 365 
918 127 46 364 
919 47 127 365 
2 38 2 4
920 33 366 36 
921 41 366 33 
922 36 366 44 
923 44 366 41 
2 39 2 4
924 40 42 367 
925 47 40 367 
926 42 48 367 
927 48 47 367 
2 40 2 9
928 37 368 43 
929 45 368 37 
930 44 369 42 
931 42 369 48 
932 44 43 128 
933 43 368 128 
934 128 369 44 
935 128 368 45 
936 48 369 128 
2 41 2 8
937 45 46 371 
938 128 45 371 
939 46 127 371 
940 47 48 370 
941 127 47 370 
942 48 128 370 
943 128 127 370 
944 127 128 371 
2 42 2 4
945 39 372 41 
946 43 372 39 
947 41 372 44 
948 44 372 43 
2 43 2 4
949 29 373 30 
950 35 373 29 
951 30 373 32 
952 32 373 35 
2 44 2 4
953 33 374 31 
954 31 374 34 
955 36 374 33 
956 34 374 36 
2 45 2 4
957 37 375 38 
958 43 375 37 
959 38 375 39 
960 39 375 43 
2 46 2 4
961 41 376 40 
962 40 376 42 
963 44 376 41 
964 42 376 44 
3 2 4 90
965 13 55 9 53 
966 55 13 9 8 
967 9 11 14 49 
968 9 13 53 14 
969 54 8 55 56 
970 13 55 53 54 
971 13 55 54 8 
972 129 15 136 13 
973 10 137 11 130 
974 2 14 51 49 
975 1 53 9 55 
976 2 9 49 1 
977 1 53 2 9 
978 9 2 49 14 
979 53 2 9 14 
980 132 131 135 142 
981 139 60 59 64 
982 59 139 64 63 
983 58 61 138 57 
984 58 61 62 138 
985 135 7 60 142 
986 60 139 59 132 
987 58 142 7 135 
988 57 131 138 58 
989 132 138 142 139 
990 138 132 142 131 
991 10 13 129 8 
992 134 136 129 139 
993 137 131 133 130 
994 15 11 137 16 
995 64 60 7 142 
996 7 142 62 12 
997 7 12 64 142 
998 129 15 13 10 
999 137 10 11 15 
1000 142 58 7 62 
1001 132 138 139 15 
1002 132 138 15 131 
1003 60 132 135 142 
1004 134 54 140 6 
1005 10 131 132 15 
1006 59 6 134 140 
1007 4 141 133 52 
1008 133 141 4 61 
1009 133 138 137 141 
1010 136 134 140 139 
1011 131 137 10 130 
1012 142 131 135 58 
1013 139 129 15 136 
1014 139 60 64 142 
1015 59 140 134 139 
1016 134 54 6 56 
1017 54 6 5 140 
1018 133 61 138 141 
1019 63 6 140 5 
1020 61 3 133 57 
1021 139 60 142 132 
1022 6 63 140 59 
1023 50 4 133 52 
1024 133 3 4 50 
1025 3 61 133 4 
1026 138 142 62 58 
1027 61 133 138 57 
1028 142 138 131 58 
1029 59 63 140 139 
1030 131 137 133 138 
1031 139 129 134 132 
1032 133 57 131 138 
1033 139 134 59 132 
1034 131 15 137 138 
1035 129 139 15 132 
1036 15 131 137 10 
1037 134 136 54 129 
1038 132 15 129 10 
1039 50 137 133 130 
1040 13 54 136 129 
1041 11 137 50 130 
1042 136 134 54 140 
1043 133 137 52 141 
1044 129 54 134 56 
1045 8 54 129 56 
1046 50 137 52 133 
1047 54 8 129 13 
1048 137 52 11 50 
1049 137 11 52 16 
1050 49 11 52 50 
1051 52 51 11 49 
1052 52 11 51 16 
1053 14 11 51 49 
1054 14 51 11 16 
3 10 4 48
1055 30 29 349 373 
1056 31 34 374 352 
1057 33 36 347 374 
1058 348 25 26 349 
1059 35 32 348 373 
1060 352 27 28 347 
1061 27 125 347 351 
1062 126 28 347 354 
1063 350 348 25 125 
1064 26 126 348 353 
1065 32 35 348 357 
1066 36 33 347 357 
1067 125 357 126 347 
1068 126 348 357 125 
1069 353 373 348 349 
1070 351 347 352 374 
1071 373 348 349 350 
1072 374 347 352 354 
1073 32 33 357 125 
1074 35 36 126 357 
1075 357 36 126 347 
1076 357 348 32 125 
1077 348 35 126 357 
1078 33 357 125 347 
1079 35 353 373 348 
1080 348 373 32 350 
1081 351 33 347 374 
1082 374 36 347 354 
1083 347 36 126 354 
1084 347 125 33 351 
1085 350 32 348 125 
1086 353 35 126 348 
1087 348 26 353 349 
1088 347 352 27 351 
1089 349 348 25 350 
1090 347 28 352 354 
1091 351 352 31 374 
1092 374 352 34 354 
1093 30 373 349 350 
1094 373 353 29 349 
1095 352 31 27 351 
1096 352 28 34 354 
1097 25 30 349 350 
1098 353 26 29 349 
1099 34 36 374 354 
1100 351 31 33 374 
1101 353 29 35 373 
1102 373 30 32 350 
3 11 4 48
1103 38 37 375 362 
1104 40 42 367 376 
1105 45 46 371 362 
1106 370 367 47 48 
1107 39 43 371 375 
1108 44 41 370 376 
1109 369 48 370 128 
1110 370 47 365 127 
1111 45 128 368 371 
1112 46 371 364 127 
1113 39 43 372 371 
1114 41 44 370 372 
1115 127 370 128 372 
1116 128 371 127 372 
1117 376 367 365 370 
1118 370 376 367 369 
1119 368 371 375 362 
1120 371 375 362 364 
1121 39 41 127 372 
1122 44 43 128 372 
1123 371 128 43 372 
1124 127 41 370 372 
1125 128 370 44 372 
1126 127 371 39 372 
1127 376 365 41 370 
1128 375 371 39 364 
1129 43 368 371 375 
1130 370 44 376 369 
1131 369 370 44 128 
1132 368 128 43 371 
1133 370 365 41 127 
1134 364 371 39 127 
1135 47 365 367 370 
1136 48 370 367 369 
1137 46 371 362 364 
1138 371 368 45 362 
1139 362 375 38 364 
1140 37 368 375 362 
1141 367 365 40 376 
1142 376 42 367 369 
1143 38 46 362 364 
1144 365 40 47 367 
1145 368 37 45 362 
1146 48 367 42 369 
1147 368 43 37 375 
1148 365 41 40 376 
1149 375 39 38 364 
1150 44 42 376 369 
3 12 4 24
1151 30 29 373 355 
1152 32 35 363 373 
1153 43 35 360 363 
1154 356 38 30 355 
1155 43 39 363 375 
1156 32 39 356 363 
1157 37 38 375 355 
1158 37 29 355 360 
1159 373 356 355 363 
1160 355 356 375 363 
1161 375 355 363 360 
1162 363 355 373 360 
1163 363 373 35 360 
1164 43 375 363 360 
1165 356 39 375 363 
1166 355 29 373 360 
1167 355 375 37 360 
1168 356 373 32 363 
1169 30 373 356 355 
1170 356 375 38 355 
1171 29 35 373 360 
1172 32 30 373 356 
1173 38 39 375 356 
1174 375 43 37 360 
3 13 4 24
1175 41 44 366 376 
1176 36 33 366 374 
1177 40 42 376 359 
1178 33 41 366 358 
1179 358 31 40 359 
1180 36 44 361 366 
1181 42 34 361 359 
1182 34 31 374 359 
1183 358 366 374 359 
1184 376 366 358 359 
1185 366 361 374 359 
1186 376 361 366 359 
1187 361 34 374 359 
1188 358 40 376 359 
1189 361 374 36 366 
1190 44 376 361 366 
1191 361 376 42 359 
1192 366 374 33 358 
1193 41 376 366 358 
1194 358 374 31 359 
1195 376 41 40 358 
1196 374 36 34 361 
1197 42 44 376 361 
1198 31 33 374 358 
3 14 4 1620
1199 5 63 418 443 
1200 396 418 63 443 
1201 5 63 6 418 
1202 59 63 396 418 
1203 59 6 63 418 
1204 342 381 403 441 
1205 217 181 193 384 
1206 401 385 425 457 
1207 53 395 2 451 
1208 27 378 422 458 
1209 167 386 263 391 
1210 388 401 385 425 
1211 27 378 386 422 
1212 257 425 385 457 
1213 215 423 424 430 
1214 356 387 421 432 
1215 384 387 193 429 
1216 125 394 383 399 
1217 210 243 344 384 
1218 257 388 385 425 
1219 356 32 399 432 
1220 342 403 314 441 
1221 15 406 411 435 
1222 210 344 200 384 
1223 382 409 408 456 
1224 200 344 318 384 
1225 356 399 387 432 
1226 262 415 426 457 
1227 181 243 210 384 
1228 344 243 233 384 
1229 259 385 388 424 
1230 290 406 411 446 
1231 233 334 384 441 
1232 15 437 138 446 
1233 263 391 386 450 
1234 7 367 388 401 
1235 259 385 257 388 
1236 181 217 243 384 
1237 344 233 334 384 
1238 290 437 406 446 
1239 321 418 396 443 
1240 320 402 393 418 
1241 314 403 384 441 
1242 263 386 167 419 
1243 15 406 138 437 
1244 290 411 406 435 
1245 233 314 334 441 
1246 381 365 421 432 
1247 47 416 388 458 
1248 206 387 382 429 
1249 383 394 379 399 
1250 215 423 227 424 
1251 382 408 219 456 
1252 217 238 384 429 
1253 380 424 423 430 
1254 3 4 404 412 
1255 381 389 365 432 
1256 382 442 409 456 
1257 198 393 320 402 
1258 200 181 210 384 
1259 4 404 298 436 
1260 2 395 185 451 
1261 215 424 249 430 
1262 382 219 442 456 
1263 314 384 334 441 
1264 4 3 404 436 
1265 247 391 450 452 
1266 41 357 366 372 
1267 41 357 372 363 
1268 55 53 54 410 
1269 153 383 448 449 
1270 415 437 426 457 
1271 243 217 233 384 
1272 203 193 384 387 
1273 4 298 406 436 
1274 3 412 404 419 
1275 3 419 404 436 
1276 378 450 391 452 
1277 27 386 394 422 
1278 341 396 398 443 
1279 362 390 37 393 
1280 7 388 367 400 
1281 193 387 206 429 
1282 341 321 396 443 
1283 262 415 297 426 
1284 40 389 47 458 
1285 185 395 205 451 
1286 365 381 47 389 
1287 43 35 129 360 
1288 388 416 380 458 
1289 178 206 382 429 
1290 185 407 2 451 
1291 215 237 423 430 
1292 63 398 396 443 
1293 206 382 387 454 
1294 252 165 404 419 
1295 391 444 378 452 
1296 297 426 415 437 
1297 379 394 383 445 
1298 388 424 385 458 
1299 217 229 238 429 
1300 379 394 386 422 
1301 233 213 314 441 
1302 4 298 404 415 
1303 257 258 425 457 
1304 289 411 290 435 
1305 25 399 383 405 
1306 256 385 259 424 
1307 49 1 383 448 
1308 339 414 380 430 
1309 386 419 263 450 
1310 141 4 61 415 
1311 203 193 181 384 
1312 344 334 318 384 
1313 256 385 424 450 
1314 371 396 127 427 
1315 215 227 249 424 
1316 13 435 411 440 
1317 158 169 386 391 
1318 386 155 431 445 
1319 40 365 47 389 
1320 15 137 138 406 
1321 53 55 1 395 
1322 1 2 53 395 
1323 247 212 391 452 
1324 404 412 253 419 
1325 211 382 178 408 
1326 257 385 255 457 
1327 339 380 414 416 
1328 251 391 263 450 
1329 252 404 253 419 
1330 178 199 231 408 
1331 136 54 13 411 
1332 212 444 391 452 
1333 332 384 314 403 
1334 148 183 405 408 
1335 383 394 153 445 
1336 162 148 405 408 
1337 3 431 419 436 
1338 342 332 314 403 
1339 162 408 405 409 
1340 153 383 151 448 
1341 47 367 388 400 
1342 1 433 383 448 
1343 371 418 396 427 
1344 380 414 388 424 
1345 388 414 260 424 
1346 290 411 291 446 
1347 49 448 383 449 
1348 27 394 125 422 
1349 383 433 151 448 
1350 264 391 251 450 
1351 212 232 267 391 
1352 261 249 227 424 
1353 316 320 393 418 
1354 383 399 379 409 
1355 178 193 206 429 
1356 231 211 178 408 
1357 153 394 383 449 
1358 377 223 441 459 
1359 216 420 391 444 
1360 141 406 4 415 
1361 153 155 394 449 
1362 223 377 224 442 
1363 4 404 412 415 
1364 287 435 448 451 
1365 287 435 417 448 
1366 155 153 394 445 
1367 213 314 441 447 
1368 218 408 164 456 
1369 224 377 223 441 
1370 152 405 383 409 
1371 219 408 218 456 
1372 318 200 384 434 
1373 128 127 371 396 
1374 128 370 127 396 
1375 370 48 47 396 
1376 386 391 169 420 
1377 298 4 406 415 
1378 46 387 384 421 
1379 13 410 435 440 
1380 320 198 316 393 
1381 390 392 205 410 
1382 392 402 182 440 
1383 386 422 378 444 
1384 267 247 212 391 
1385 167 386 158 419 
1386 404 419 170 436 
1387 256 257 259 385 
1388 326 342 381 427 
1389 256 424 274 450 
1390 215 237 227 423 
1391 356 387 38 421 
1392 128 59 396 418 
1393 362 38 390 455 
1394 378 424 385 450 
1395 342 403 381 427 
1396 148 183 195 405 
1397 46 38 387 421 
1398 211 178 382 429 
1399 412 419 385 450 
1400 155 431 394 449 
1401 307 435 410 440 
1402 386 394 379 445 
1403 270 388 257 425 
1404 385 386 378 450 
1405 252 245 165 419 
1406 298 404 284 436 
1407 281 297 248 415 
1408 47 389 381 416 
1409 228 420 216 444 
1410 54 13 411 440 
1411 262 248 297 415 
1412 184 407 150 433 
1413 256 259 274 424 
1414 25 399 405 454 
1415 170 404 165 419 
1416 274 378 424 452 
1417 184 185 407 433 
1418 158 147 169 391 
1419 379 383 409 445 
1420 378 385 424 458 
1421 38 355 37 390 
1422 289 291 290 411 
1423 152 162 405 409 
1424 285 182 402 440 
1425 223 413 377 442 
1426 136 411 13 435 
1427 408 409 164 456 
1428 285 296 182 440 
1429 383 405 399 409 
1430 264 251 263 450 
1431 128 396 371 418 
1432 380 416 339 447 
1433 203 191 193 387 
1434 377 413 223 459 
1435 339 430 380 447 
1436 386 431 394 445 
1437 162 148 160 405 
1438 362 390 393 455 
1439 211 229 178 429 
1440 417 435 51 448 
1441 385 419 386 450 
1442 5 6 392 393 
1443 194 392 182 440 
1444 380 414 271 430 
1445 27 125 351 422 
1446 5 393 392 402 
1447 274 450 378 452 
1448 125 383 25 399 
1449 271 414 380 424 
1450 7 58 401 425 
1451 320 321 402 418 
1452 356 421 39 432 
1453 229 193 178 429 
1454 203 387 384 455 
1455 193 191 206 387 
1456 248 415 262 457 
1457 378 274 424 450 
1458 212 230 391 444 
1459 326 381 342 447 
1460 238 384 429 441 
1461 297 415 281 437 
1462 155 158 386 431 
1463 139 411 15 446 
1464 380 423 237 430 
1465 365 127 381 421 
1466 7 367 48 400 
1467 326 381 416 427 
1468 247 391 264 450 
1469 216 166 391 420 
1470 6 59 45 418 
1471 377 429 224 442 
1472 139 15 138 446 
1473 389 424 380 458 
1474 154 383 153 445 
1475 316 198 179 393 
1476 384 387 46 455 
1477 308 297 281 437 
1478 419 431 170 436 
1479 247 450 274 452 
1480 271 260 414 424 
1481 379 422 386 444 
1482 38 356 30 387 
1483 152 383 405 433 
1484 195 160 148 405 
1485 216 228 166 420 
1486 39 356 38 421 
1487 296 194 182 440 
1488 158 155 386 445 
1489 259 388 260 424 
1490 332 334 314 384 
1491 2 407 448 451 
1492 152 151 153 383 
1493 128 371 45 418 
1494 378 424 389 458 
1495 38 37 362 390 
1496 151 383 152 433 
1497 39 32 357 363 
1498 357 41 39 363 
1499 357 33 41 366 
1500 372 39 41 363 
1501 394 431 386 438 
1502 370 127 396 427 
1503 370 396 47 427 
1504 36 44 366 132 
1505 388 380 424 458 
1506 349 390 30 395 
1507 257 255 258 457 
1508 260 414 388 439 
1509 240 413 444 452 
1510 245 252 253 419 
1511 217 238 233 384 
1512 63 398 411 446 
1513 145 218 164 456 
1514 240 423 413 452 
1515 160 152 162 405 
1516 271 424 380 430 
1517 233 384 238 441 
1518 381 389 380 416 
1519 378 444 391 450 
1520 253 412 404 415 
1521 156 386 420 445 
1522 128 45 59 418 
1523 158 386 156 445 
1524 348 49 9 383 
1525 151 433 407 448 
1526 158 156 155 445 
1527 224 429 377 441 
1528 254 263 419 450 
1529 358 389 31 432 
1530 326 416 381 447 
1531 304 411 398 446 
1532 200 203 181 384 
1533 150 407 151 433 
1534 63 64 398 446 
1535 191 387 203 455 
1536 399 405 382 409 
1537 287 417 279 448 
1538 145 164 409 456 
1539 268 271 414 430 
1540 397 425 250 426 
1541 426 437 62 457 
1542 227 424 423 452 
1543 7 401 388 425 
1544 1 395 383 433 
1545 47 396 48 400 
1546 384 46 434 455 
1547 319 303 329 453 
1548 203 384 200 434 
1549 237 423 380 447 
1550 27 394 386 438 
1551 165 245 144 419 
1552 247 267 264 391 
1553 212 230 232 391 
1554 384 387 377 421 
1555 413 378 444 452 
1556 228 216 230 444 
1557 389 423 380 424 
1558 237 380 430 447 
1559 216 391 230 444 
1560 378 423 389 424 
1561 198 204 393 402 
1562 413 423 378 452 
1563 377 387 384 429 
1564 236 224 223 441 
1565 154 152 383 409 
1566 362 37 45 393 
1567 420 444 228 456 
1568 30 349 29 390 
1569 223 224 221 442 
1570 286 287 279 448 
1571 339 317 414 430 
1572 383 395 25 405 
1573 220 413 379 444 
1574 390 454 189 455 
1575 205 410 177 451 
1576 342 324 403 427 
1577 377 381 421 432 
1578 54 410 13 440 
1579 295 406 298 436 
1580 38 46 387 455 
1581 357 372 363 129 
1582 357 366 372 129 
1583 394 431 155 445 
1584 409 442 379 456 
1585 387 377 421 432 
1586 155 154 153 445 
1587 295 417 406 436 
1588 254 419 412 450 
1589 125 25 350 399 
1590 270 260 388 439 
1591 380 389 381 459 
1592 271 249 424 430 
1593 379 413 220 442 
1594 319 329 428 453 
1595 45 393 6 418 
1596 25 349 30 395 
1597 392 393 204 402 
1598 258 270 257 425 
1599 180 184 150 433 
1600 259 257 260 388 
1601 137 406 15 435 
1602 113 302 250 426 
1603 377 429 384 441 
1604 385 401 57 457 
1605 214 219 218 456 
1606 185 205 177 451 
1607 295 298 284 436 
1608 342 314 331 447 
1609 386 431 419 438 
1610 384 403 46 421 
1611 382 405 399 454 
1612 30 454 390 455 
1613 212 230 444 452 
1614 58 401 425 457 
1615 38 30 355 390 
1616 37 355 29 390 
1617 161 166 228 420 
1618 239 211 382 429 
1619 396 400 47 427 
1620 188 189 390 454 
1621 319 283 303 453 
1622 197 407 185 451 
1623 325 400 396 427 
1624 341 398 313 443 
1625 152 405 160 433 
1626 298 415 406 437 
1627 205 390 190 392 
1628 130 347 28 50 
1629 203 384 434 455 
1630 211 219 239 382 
1631 383 154 409 445 
1632 333 402 321 443 
1633 40 389 358 432 
1634 61 437 415 457 
1635 158 419 386 431 
1636 125 348 25 383 
1637 321 341 313 443 
1638 387 399 377 432 
1639 63 411 398 443 
1640 326 324 342 427 
1641 396 400 327 428 
1642 145 214 218 456 
1643 377 389 381 432 
1644 382 405 196 408 
1645 262 426 425 457 
1646 206 196 178 382 
1647 385 412 255 457 
1648 50 3 431 438 
1649 398 411 304 443 
1650 169 158 386 420 
1651 318 384 332 434 
1652 284 404 149 436 
1653 219 220 442 456 
1654 220 228 444 456 
1655 42 34 135 361 
1656 246 414 260 439 
1657 289 293 411 435 
1658 296 285 182 88 
1659 384 421 377 441 
1660 206 387 191 454 
1661 270 388 425 439 
1662 156 386 158 420 
1663 47 48 367 400 
1664 284 149 295 436 
1665 219 239 382 442 
1666 255 385 256 412 
1667 196 382 206 454 
1668 332 318 334 384 
1669 262 250 425 426 
1670 213 331 314 447 
1671 53 13 410 435 
1672 379 220 444 456 
1673 3 419 431 438 
1674 42 359 40 401 
1675 217 98 193 181 
1676 215 227 103 249 
1677 338 340 400 439 
1678 61 62 437 457 
1679 229 211 178 97 
1680 240 225 413 423 
1681 379 442 220 456 
1682 254 412 385 450 
1683 194 410 392 440 
1684 400 414 315 439 
1685 64 63 139 446 
1686 239 429 382 442 
1687 281 112 248 297 
1688 390 395 188 454 
1689 50 431 394 438 
1690 47 400 388 416 
1691 178 229 97 193 
1692 226 423 447 459 
1693 317 268 414 430 
1694 262 248 112 297 
1695 113 250 262 426 
1696 15 411 136 435 
1697 350 30 32 399 
1698 150 143 180 433 
1699 163 407 286 448 
1700 347 27 28 394 
1701 340 428 400 439 
1702 240 413 222 444 
1703 302 397 250 426 
1704 326 339 416 447 
1705 236 441 223 459 
1706 30 395 390 454 
1707 4 406 52 436 
1708 221 413 223 442 
1709 144 170 165 419 
1710 240 444 230 452 
1711 319 428 397 453 
1712 32 356 39 432 
1713 227 261 424 452 
1714 318 201 200 434 
1715 390 392 37 393 
1716 256 385 254 412 
1717 380 381 447 459 
1718 350 25 30 399 
1719 378 386 444 450 
1720 297 302 113 426 
1721 163 286 146 448 
1722 395 405 383 433 
1723 48 400 396 428 
1724 154 162 152 409 
1725 11 347 130 50 
1726 184 180 185 433 
1727 187 390 205 395 
1728 213 441 226 447 
1729 40 358 41 432 
1730 63 411 139 446 
1731 391 444 386 450 
1732 88 182 296 194 
1733 46 364 38 421 
1734 329 398 428 453 
1735 229 217 98 193 
1736 329 303 398 453 
1737 380 388 414 416 
1738 183 196 405 408 
1739 169 156 158 420 
1740 34 57 352 401 
1741 256 254 385 450 
1742 227 261 103 249 
1743 296 410 194 440 
1744 246 315 414 439 
1745 382 399 379 442 
1746 377 399 387 429 
1747 323 396 418 427 
1748 383 394 49 449 
1749 235 331 213 447 
1750 340 397 428 439 
1751 53 435 410 451 
1752 382 379 399 409 
1753 25 30 399 454 
1754 12 7 428 439 
1755 66 150 180 184 
1756 288 417 287 435 
1757 57 352 401 438 
1758 384 46 403 434 
1759 379 409 382 442 
1760 256 255 257 385 
1761 148 183 68 195 
1762 327 400 338 428 
1763 337 246 315 414 
1764 57 401 385 438 
1765 37 29 360 56 
1766 386 379 420 445 
1767 40 367 42 401 
1768 388 7 425 439 
1769 159 295 149 436 
1770 336 430 339 447 
1771 388 414 400 439 
1772 179 316 393 434 
1773 36 44 132 361 
1774 138 137 141 406 
1775 165 252 76 245 
1776 316 320 91 198 
1777 289 307 293 435 
1778 12 428 397 439 
1779 307 410 435 451 
1780 30 25 395 454 
1781 400 428 7 439 
1782 338 400 315 439 
1783 337 269 246 414 
1784 286 279 146 448 
1785 240 225 222 413 
1786 387 399 30 454 
1787 187 188 390 395 
1788 321 323 396 418 
1789 162 164 408 409 
1790 386 420 379 444 
1791 226 447 441 459 
1792 238 429 224 441 
1793 189 454 188 455 
1794 347 28 50 394 
1795 5 402 392 440 
1796 41 39 32 357 
1797 41 32 33 357 
1798 155 168 158 431 
1799 385 57 412 457 
1800 140 54 136 411 
1801 140 411 63 443 
1802 245 253 412 419 
1803 216 166 176 391 
1804 1 55 26 395 
1805 233 238 213 441 
1806 162 145 164 409 
1807 222 413 220 444 
1808 234 430 336 447 
1809 223 413 225 459 
1810 271 259 260 424 
1811 250 397 272 425 
1812 413 423 225 459 
1813 127 403 381 421 
1814 339 414 328 416 
1815 168 419 158 431 
1816 270 246 260 439 
1817 297 113 262 426 
1818 380 423 389 459 
1819 322 418 403 427 
1820 351 125 33 422 
1821 316 321 320 418 
1822 12 142 62 426 
1823 316 418 393 434 
1824 177 197 185 451 
1825 242 216 176 391 
1826 251 277 176 391 
1827 160 405 195 433 
1828 153 154 152 383 
1829 300 404 298 415 
1830 191 454 387 455 
1831 133 3 50 438 
1832 331 326 342 447 
1833 86 299 197 451 
1834 180 395 185 433 
1835 313 333 321 443 
1836 142 62 426 446 
1837 30 387 454 455 
1838 237 226 423 447 
1839 247 264 274 450 
1840 323 418 322 427 
1841 29 355 30 390 
1842 263 167 245 419 
1843 380 447 423 459 
1844 273 412 415 457 
1845 212 240 230 452 
1846 221 220 413 442 
1847 31 401 438 458 
1848 169 391 166 420 
1849 31 401 352 438 
1850 48 7 400 428 
1851 31 34 352 401 
1852 335 397 340 439 
1853 12 425 397 426 
1854 179 330 316 434 
1855 186 395 180 433 
1856 41 358 33 432 
1857 387 399 382 429 
1858 266 335 116 439 
1859 31 438 27 458 
1860 322 403 324 427 
1861 304 398 294 446 
1862 172 145 409 456 
1863 133 50 28 438 
1864 381 403 127 427 
1865 242 176 277 391 
1866 196 405 382 454 
1867 330 179 201 434 
1868 66 150 143 180 
1869 242 277 267 391 
1870 381 389 377 459 
1871 50 394 28 438 
1872 195 68 148 160 
1873 237 430 234 447 
1874 265 253 404 415 
1875 177 86 197 451 
1876 78 167 263 251 
1877 377 422 389 432 
1878 412 419 3 438 
1879 384 403 332 434 
1880 149 83 284 295 
1881 325 416 400 427 
1882 107 314 213 331 
1883 341 321 323 396 
1884 146 163 81 286 
1885 323 322 324 427 
1886 47 416 381 427 
1887 255 256 254 412 
1888 12 64 142 453 
1889 299 86 282 451 
1890 397 426 305 453 
1891 154 172 409 445 
1892 222 221 220 413 
1893 170 419 168 431 
1894 400 414 388 416 
1895 30 390 38 455 
1896 16 51 417 435 
1897 235 234 336 447 
1898 91 179 316 198 
1899 377 399 429 442 
1900 388 400 7 439 
1901 78 147 167 251 
1902 164 218 145 71 
1903 319 397 283 453 
1904 405 408 382 409 
1905 202 392 390 393 
1906 385 412 57 438 
1907 331 213 107 235 
1908 245 167 144 419 
1909 267 232 242 391 
1910 64 398 446 453 
1911 191 188 454 455 
1912 143 160 180 433 
1913 180 160 195 433 
1914 362 45 46 393 
1915 441 447 381 459 
1916 338 315 340 439 
1917 201 93 318 200 
1918 201 318 330 434 
1919 140 440 411 443 
1920 305 397 302 426 
1921 41 33 32 432 
1922 41 32 39 432 
1923 153 448 171 449 
1924 96 178 199 231 
1925 397 425 12 439 
1926 4 412 61 415 
1927 233 106 334 314 
1928 379 444 420 456 
1929 141 52 4 406 
1930 378 422 413 444 
1931 101 267 212 232 
1932 16 417 406 435 
1933 269 317 268 414 
1934 28 394 27 438 
1935 381 416 380 447 
1936 177 282 86 451 
1937 379 399 422 442 
1938 135 7 58 401 
1939 385 438 401 458 
1940 27 422 31 458 
1941 144 165 76 245 
1942 157 431 155 449 
1943 33 358 31 432 
1944 9 49 1 383 
1945 230 220 228 444 
1946 228 216 166 73 
1947 26 349 25 395 
1948 308 298 406 437 
1949 425 426 62 457 
1950 57 28 34 352 
1951 147 251 176 391 
1952 83 149 159 295 
1953 286 81 146 279 
1954 340 338 400 428 
1955 280 301 121 443 
1956 202 393 390 455 
1957 30 38 387 455 
1958 389 413 378 422 
1959 218 214 145 71 
1960 327 341 396 428 
1961 347 50 11 394 
1962 180 186 185 395 
1963 315 400 328 414 
1964 269 268 271 414 
1965 298 300 284 404 
1966 379 422 413 442 
1967 58 57 401 457 
1968 341 398 396 428 
1969 180 143 67 160 
1970 172 445 420 456 
1971 195 180 67 160 
1972 138 406 141 437 
1973 231 96 178 211 
1974 142 437 62 446 
1975 286 407 299 451 
1976 62 437 426 446 
1977 16 406 137 435 
1978 257 270 260 388 
1979 272 425 397 439 
1980 329 319 123 303 
1981 300 111 265 415 
1982 203 200 201 434 
1983 92 179 330 316 
1984 179 330 201 92 
1985 140 63 5 443 
1986 389 422 378 458 
1987 389 377 413 422 
1988 106 233 213 314 
1989 245 412 254 419 
1990 139 138 142 446 
1991 101 267 247 212 
1992 391 420 386 444 
1993 57 28 352 438 
1994 162 172 145 409 
1995 288 279 287 417 
1996 389 422 31 432 
1997 161 420 228 456 
1998 125 33 422 432 
1999 140 5 440 443 
2000 143 150 151 433 
2001 172 409 445 456 
2002 223 222 225 413 
2003 381 377 421 441 
2004 266 397 335 439 
2005 151 407 163 448 
2006 37 392 45 393 
2007 261 271 249 424 
2008 321 333 320 402 
2009 269 337 317 414 
2010 316 330 418 434 
2011 186 195 405 433 
2012 347 125 27 394 
2013 248 262 273 457 
2014 116 335 315 439 
2015 301 402 333 443 
2016 125 422 399 432 
2017 252 265 253 404 
2018 406 417 52 436 
2019 378 413 389 423 
2020 64 446 142 453 
2021 399 382 429 442 
2022 285 402 306 440 
2023 151 150 163 407 
2024 185 197 184 407 
2025 366 372 129 132 
2026 123 319 283 303 
2027 37 390 56 392 
2028 61 3 57 412 
2029 166 161 228 73 
2030 400 416 47 427 
2031 377 399 422 432 
2032 204 182 392 402 
2033 172 162 154 409 
2034 226 225 423 459 
2035 38 364 39 421 
2036 274 424 261 452 
2037 328 400 325 416 
2038 313 280 121 443 
2039 273 412 253 415 
2040 153 157 155 449 
2041 25 405 395 454 
2042 224 429 239 442 
2043 213 236 226 441 
2044 250 272 262 425 
2045 266 116 246 439 
2046 156 420 172 445 
2047 139 136 15 411 
2048 254 264 263 450 
2049 117 337 269 246 
2050 3 61 4 412 
2051 251 264 267 391 
2052 230 216 232 391 
2053 306 440 402 443 
2054 191 189 188 455 
2055 322 418 330 434 
2056 14 51 16 435 
2057 406 417 288 435 
2058 64 396 63 398 
2059 248 265 111 415 
2060 246 117 337 315 
2061 235 213 226 447 
2062 167 263 245 77 
2063 179 198 204 393 
2064 330 318 332 434 
2065 219 214 220 456 
2066 332 403 322 434 
2067 326 331 339 447 
2068 300 281 111 415 
2069 188 189 187 390 
2070 411 440 304 443 
2071 231 218 219 408 
2072 221 224 239 442 
2073 359 40 401 458 
2074 27 352 28 438 
2075 305 426 446 453 
2076 265 404 300 415 
2077 330 201 93 318 
2078 197 299 407 451 
2079 246 269 260 414 
2080 195 183 196 405 
2081 29 56 37 390 
2082 336 331 235 447 
2083 290 308 406 437 
2084 174 183 148 408 
2085 388 385 401 458 
2086 183 174 209 408 
2087 13 53 14 435 
2088 382 399 387 454 
2089 359 401 31 458 
2090 340 397 319 428 
2091 61 415 412 457 
2092 167 245 144 77 
2093 199 196 183 408 
2094 148 162 164 408 
2095 221 222 223 413 
2096 54 411 140 440 
2097 240 222 230 444 
2098 149 404 170 436 
2099 366 357 36 129 
2100 5 402 440 443 
2101 186 405 395 433 
2102 268 118 317 269 
2103 238 229 224 429 
2104 150 184 207 407 
2105 108 336 235 234 
2106 170 144 168 419 
2107 6 45 392 393 
2108 301 311 343 402 
2109 207 173 150 407 
2110 203 434 192 455 
2111 284 310 149 404 
2112 208 311 182 402 
2113 245 253 254 412 
2114 320 343 198 402 
2115 339 317 328 414 
2116 250 302 312 397 
2117 395 405 186 454 
2118 8 55 56 29 
2119 338 328 315 400 
2120 310 175 149 404 
2121 163 309 286 407 
2122 292 305 426 446 
2123 275 252 165 404 
2124 147 166 169 391 
2125 12 397 428 453 
2126 241 164 218 408 
2127 138 437 142 446 
2128 159 171 417 449 
2129 337 317 118 269 
2130 359 31 40 458 
2131 161 169 166 420 
2132 381 377 441 459 
2133 265 275 310 404 
2134 31 422 389 458 
2135 208 198 343 402 
2136 182 311 285 402 
2137 151 171 153 448 
2138 125 399 32 432 
2139 186 180 195 433 
2140 31 352 27 438 
2141 343 333 301 402 
2142 315 335 340 439 
2143 164 241 174 408 
2144 241 199 209 408 
2145 173 309 163 407 
2146 309 207 197 407 
2147 172 420 161 456 
2148 131 132 135 361 
2149 345 335 266 397 
2150 328 414 400 416 
2151 175 275 165 404 
2152 322 316 330 418 
2153 266 276 345 397 
2154 186 405 196 454 
2155 249 271 268 430 
2156 312 276 250 397 
2157 312 319 345 397 
2158 248 111 281 415 
2159 159 417 436 449 
2160 12 426 397 453 
2161 326 416 325 427 
2162 222 220 230 444 
2163 283 397 305 453 
2164 379 413 422 444 
2165 292 437 290 446 
2166 225 237 226 423 
2167 188 186 196 454 
2168 295 159 417 436 
2169 306 402 301 443 
2170 226 441 236 459 
2171 146 279 417 448 
2172 241 231 199 408 
2173 197 299 309 407 
2174 188 395 186 454 
2175 328 338 325 400 
2176 337 315 328 414 
2177 310 300 265 404 
2178 327 329 341 428 
2179 72 161 228 456 
2180 297 292 426 437 
2181 398 294 446 453 
2182 220 221 219 442 
2183 272 397 266 439 
2184 202 390 189 455 
2185 205 392 194 410 
2186 116 315 246 439 
2187 274 261 247 452 
2188 329 398 341 428 
2189 322 403 418 434 
2190 16 126 14 435 
2191 254 263 245 419 
2192 330 332 322 434 
2193 285 301 306 402 
2194 202 190 390 392 
2195 307 410 296 440 
2196 14 126 13 435 
2197 206 191 188 454 
2198 61 138 141 437 
2199 305 283 302 397 
2200 187 190 205 390 
2201 108 336 331 235 
2202 258 262 425 457 
2203 297 308 292 437 
2204 287 286 299 451 
2205 251 267 277 391 
2206 232 216 242 391 
2207 102 261 227 452 
2208 171 448 417 449 
2209 146 82 159 417 
2210 237 234 235 447 
2211 144 167 158 419 
2212 389 413 377 459 
2213 248 273 415 457 
2214 46 418 403 434 
2215 247 261 102 452 
2216 60 59 64 396 
2217 60 7 48 428 
2218 172 156 161 420 
2219 268 346 278 430 
2220 31 359 34 401 
2221 293 307 296 440 
2222 64 428 398 453 
2223 426 437 292 446 
2224 59 60 132 369 
2225 59 63 64 396 
2226 161 72 145 456 
2227 48 370 128 396 
2228 226 223 225 459 
2229 325 396 323 427 
2230 280 398 304 443 
2231 61 412 57 457 
2232 236 238 224 441 
2233 329 303 122 398 
2234 244 249 278 430 
2235 304 411 293 440 
2236 147 176 166 391 
2237 396 398 64 428 
2238 283 319 312 397 
2239 204 198 182 402 
2240 165 170 149 404 
2241 60 48 396 428 
2242 87 194 296 410 
2243 174 241 209 408 
2244 216 74 176 166 
2245 336 339 331 447 
2246 5 392 54 440 
2247 16 52 406 417 
2248 159 436 157 449 
2249 65 207 150 184 
2250 363 372 43 129 
2251 336 317 339 430 
2252 346 336 234 430 
2253 335 319 340 397 
2254 159 82 295 417 
2255 392 410 54 440 
2256 227 237 225 423 
2257 409 379 445 456 
2258 282 177 410 451 
2259 52 417 51 449 
2260 225 423 240 452 
2261 266 272 250 397 
2262 125 350 32 399 
2263 65 207 173 150 
2264 146 279 82 417 
2265 271 260 269 414 
2266 148 174 69 183 
2267 215 249 244 430 
2268 420 445 379 456 
2269 176 242 74 216 
2270 174 209 69 183 
2271 194 205 190 392 
2272 50 394 431 449 
2273 339 328 326 416 
2274 15 136 13 435 
2275 59 45 128 368 
2276 13 126 15 435 
2277 292 290 291 446 
2278 294 398 303 453 
2279 212 247 102 452 
2280 46 393 434 455 
2281 239 229 211 429 
2282 14 435 53 451 
2283 268 317 346 430 
2284 16 15 126 435 
2285 16 137 15 435 
2286 72 228 214 456 
2287 16 51 52 417 
2288 60 48 369 128 
2289 359 135 34 401 
2290 295 288 406 417 
2291 159 157 171 449 
2292 306 304 440 443 
2293 227 423 225 452 
2294 177 87 282 410 
2295 327 323 325 396 
2296 370 47 127 427 
2297 343 311 208 402 
2298 234 244 346 430 
2299 290 308 298 406 
2300 168 144 158 419 
2301 50 431 3 436 
2302 175 310 275 404 
2303 33 31 422 432 
2304 294 304 280 398 
2305 42 135 359 401 
2306 3 57 412 438 
2307 7 12 425 439 
2308 312 345 276 397 
2309 389 423 413 459 
2310 114 312 250 302 
2311 329 122 313 398 
2312 146 417 171 448 
2313 125 32 33 432 
2314 53 13 54 410 
2315 300 298 281 415 
2316 137 16 52 406 
2317 12 428 64 453 
2318 291 289 293 411 
2319 313 398 280 443 
2320 72 214 145 456 
2321 142 64 139 446 
2322 59 6 45 368 
2323 173 207 309 407 
2324 320 90 198 343 
2325 275 75 165 252 
2326 309 80 163 286 
2327 146 159 171 417 
2328 291 411 304 446 
2329 258 273 262 457 
2330 49 51 2 448 
2331 6 37 56 392 
2332 84 149 284 310 
2333 280 122 303 398 
2334 12 62 425 426 
2335 251 277 79 176 
2336 187 205 185 395 
2337 307 435 287 451 
2338 70 164 218 241 
2339 328 325 326 416 
2340 203 201 192 434 
2341 177 194 87 410 
2342 238 236 213 441 
2343 62 142 138 437 
2344 310 84 149 175 
2345 114 312 276 250 
2346 311 208 182 89 
2347 143 151 152 433 
2348 265 110 310 275 
2349 85 309 207 197 
2350 309 80 173 163 
2351 351 33 31 422 
2352 345 115 266 335 
2353 273 253 248 415 
2354 115 266 276 345 
2355 233 243 344 105 
2356 208 198 90 343 
2357 301 120 343 311 
2358 165 175 75 275 
2359 192 434 393 455 
2360 100 242 277 267 
2361 241 199 95 209 
2362 241 70 164 174 
2363 2 1 49 448 
2364 4 52 50 436 
2365 50 3 4 436 
2366 87 296 282 410 
2367 226 236 223 459 
2368 237 215 234 430 
2369 340 327 338 428 
2370 182 285 311 89 
2371 46 393 418 434 
2372 265 248 253 415 
2373 280 313 122 398 
2374 85 309 197 299 
2375 60 396 64 428 
2376 120 343 333 301 
2377 270 425 272 439 
2378 234 109 336 346 
2379 326 325 324 427 
2380 332 342 324 403 
2381 199 241 95 231 
2382 300 265 110 310 
2383 344 233 105 334 
2384 417 448 51 449 
2385 100 242 267 232 
2386 63 140 139 411 
2387 337 328 317 414 
2388 278 244 104 249 
2389 279 295 82 417 
2390 52 436 417 449 
2391 140 136 139 411 
2392 152 160 143 433 
2393 298 295 288 406 
2394 131 57 34 401 
2395 318 344 200 94 
2396 45 371 46 418 
2397 157 170 431 436 
2398 99 210 181 243 
2399 431 436 50 449 
2400 261 102 227 103 
2401 345 312 124 319 
2402 88 296 87 194 
2403 157 436 431 449 
2404 229 98 97 193 
2405 6 45 37 392 
2406 244 109 234 346 
2407 94 344 200 210 
2408 156 154 155 445 
2409 219 221 239 442 
2410 262 112 113 297 
2411 128 59 60 396 
2412 99 181 217 243 
2413 14 53 2 451 
2414 188 196 206 454 
2415 215 104 244 249 
2416 102 227 212 452 
2417 56 54 6 392 
2418 54 5 6 392 
2419 202 204 392 393 
2420 227 225 240 452 
2421 79 147 251 176 
2422 423 424 378 452 
2423 289 288 287 435 
2424 256 264 254 450 
2425 132 131 36 361 
2426 7 64 12 428 
2427 60 64 7 428 
2428 306 304 293 440 
2429 52 50 436 449 
2430 195 196 186 405 
2431 273 255 412 457 
2432 49 51 448 449 
2433 48 128 60 396 
2434 282 410 307 451 
2435 346 244 278 430 
2436 273 258 255 457 
2437 186 188 187 395 
2438 305 446 294 453 
2439 226 237 235 447 
2440 36 366 129 132 
2441 46 393 45 418 
2442 192 393 202 455 
2443 294 280 303 398 
2444 168 155 157 431 
2445 54 140 5 440 
2446 299 286 309 407 
2447 190 187 189 390 
2448 26 126 9 348 
2449 119 346 278 268 
2450 329 340 319 428 
2451 283 124 312 319 
2452 170 168 157 431 
2453 324 322 332 403 
2454 301 285 311 402 
2455 241 218 231 408 
2456 261 274 259 424 
2457 169 161 156 420 
2458 137 52 141 406 
2459 194 204 182 392 
2460 300 310 284 404 
2461 268 278 249 430 
2462 183 209 199 408 
2463 164 174 148 408 
2464 274 264 256 450 
2465 189 202 190 390 
2466 131 58 57 401 
2467 297 305 302 426 
2468 145 172 161 456 
2469 296 285 306 440 
2470 198 208 182 402 
2471 347 126 11 130 
2472 320 333 343 402 
2473 292 294 305 446 
2474 129 372 43 132 
2475 268 119 346 317 
2476 165 149 175 404 
2477 265 252 275 404 
2478 266 250 276 397 
2479 345 319 335 397 
2480 150 66 65 184 
2481 128 369 60 59 
2482 302 283 312 397 
2483 205 194 177 410 
2484 69 148 183 68 
2485 289 287 307 435 
2486 214 228 220 456 
2487 258 262 272 425 
2488 173 163 150 407 
2489 184 197 207 407 
2490 7 12 62 425 
2491 61 62 138 437 
2492 202 179 204 393 
2493 297 292 305 426 
2494 191 203 192 455 
2495 52 51 49 449 
2496 324 325 323 427 
2497 31 27 351 422 
2498 154 156 172 445 
2499 271 261 259 424 
2500 62 58 7 425 
2501 58 425 62 457 
2502 329 313 341 398 
2503 291 304 294 446 
2504 282 296 307 410 
2505 321 322 323 418 
2506 49 50 52 449 
2507 159 149 170 436 
2508 81 163 80 286 
2509 71 164 218 70 
2510 200 93 318 94 
2511 202 192 179 393 
2512 253 273 255 412 
2513 177 87 86 282 
2514 224 229 239 429 
2515 43 35 363 129 
2516 345 276 24 312 
2517 176 277 19 242 
2518 173 18 309 207 
2519 343 21 208 311 
2520 175 310 20 275 
2521 209 17 241 174 
2522 90 91 320 198 
2523 252 75 165 76 
2524 253 255 254 412 
2525 22 344 210 243 
2526 186 187 185 395 
2527 61 57 58 457 
2528 248 112 281 111 
2529 23 244 278 346 
2530 211 96 178 97 
2531 35 357 363 129 
2532 212 247 101 102 
2533 321 316 322 418 
2534 270 272 246 439 
2535 246 272 266 439 
2536 58 62 61 457 
2537 364 127 39 421 
2538 82 83 159 295 
2539 251 78 147 79 
2540 290 292 308 437 
2541 73 161 228 72 
2542 283 294 303 453 
2543 197 86 85 299 
2544 111 300 265 110 
2545 96 199 95 231 
2546 267 101 100 232 
2547 116 266 115 335 
2548 57 34 28 131 
2549 372 366 44 132 
2550 151 163 146 448 
2551 315 246 117 116 
2552 333 121 120 301 
2553 234 215 244 430 
2554 16 11 14 126 
2555 166 216 74 73 
2556 314 213 106 107 
2557 106 105 233 334 
2558 119 268 118 317 
2559 192 202 189 455 
2560 316 92 179 91 
2561 9 11 126 14 
2562 180 143 66 67 
2563 171 157 153 449 
2564 346 317 336 430 
2565 279 81 146 82 
2566 195 67 68 160 
2567 323 327 341 396 
2568 72 145 214 71 
2569 83 149 284 84 
2570 157 159 170 436 
2571 107 108 331 235 
2572 122 280 121 313 
2573 250 113 114 302 
2574 272 270 258 425 
2575 340 329 327 428 
2576 133 57 3 438 
2577 336 108 109 234 
2578 76 144 245 77 
2579 282 287 299 451 
2580 303 123 329 122 
2581 280 304 306 443 
2582 298 288 290 406 
2583 294 283 305 453 
2584 285 182 88 89 
2585 280 306 301 443 
2586 304 291 293 411 
2587 282 307 287 451 
2588 32 35 357 363 
2589 39 43 363 372 
2590 36 33 357 366 
2591 41 44 372 366 
2592 293 296 306 440 
2593 130 28 133 50 
2594 283 124 319 123 
2595 217 98 181 99 
2596 18 85 309 207 
2597 207 173 18 65 
2598 312 276 24 114 
2599 80 18 309 173 
2600 19 176 242 74 
2601 115 276 24 345 
2602 242 277 19 100 
2603 22 344 243 105 
2604 75 175 20 275 
2605 17 241 95 209 
2606 209 69 17 174 
2607 17 70 241 174 
2608 21 343 120 311 
2609 311 21 208 89 
2610 208 90 21 343 
2611 310 110 20 275 
2612 310 20 84 175 
2613 99 22 210 243 
2614 22 344 94 210 
2615 244 23 109 346 
2616 93 201 330 92 
2617 244 104 23 278 
2618 131 10 132 36 
2619 192 189 191 455 
2620 126 28 130 347 
2621 202 204 190 392 
2622 295 279 288 417 
2623 10 8 129 35 
2624 6 59 134 368 
2625 103 104 215 249 
2626 35 36 357 129 
2627 77 167 263 78 
2628 369 132 59 44 
2629 1 9 26 55 
2630 292 291 294 446 
2631 312 24 345 124 
2632 79 277 19 176 
2633 190 204 194 392 
2634 151 146 171 448 
2635 346 278 23 119 
2636 57 133 28 438 
2637 56 6 134 37 
2638 227 240 212 452 
2639 11 10 130 126 
2640 44 43 372 132 
2641 337 118 117 269 
2642 60 132 369 42 
2643 43 134 129 132 
2644 132 60 135 42 
2645 42 34 359 135 
2646 7 60 48 135 
2647 135 34 131 361 
2648 130 131 133 28 
2649 35 36 129 10 
2650 128 43 44 134 
2651 369 132 44 42 
2652 134 43 44 132 
2653 59 128 44 134 
2654 15 11 16 126 
2655 11 10 126 15 
2656 56 360 134 129 
2657 134 44 59 132 
2658 34 36 131 361 
2659 57 28 133 131 
2660 8 360 56 129 
2661 135 42 361 132 
2662 36 35 126 10 
2663 131 10 36 354 
2664 360 8 35 129 
2665 129 10 36 132 
2666 43 134 360 129 
2667 6 37 368 134 
2668 354 34 36 131 
2669 48 60 42 135 
2670 29 8 360 56 
2671 128 44 369 59 
2672 360 134 37 56 
2673 8 35 29 360 
2674 361 42 44 132 
2675 37 43 134 360 
2676 354 28 34 131 
2677 126 36 10 354 
2678 368 37 43 134 
2679 37 45 6 368 
2680 42 60 48 369 
2681 26 29 8 353 
2682 8 29 35 353 
2683 29 26 8 55 
2684 446 406 15 437 
2685 446 15 406 411 
2686 429 217 193 384 
2687 429 193 217 229 
2688 399 394 422 125 
2689 399 422 394 379 
2690 433 407 395 185 
2691 2 395 407 185 
2692 441 342 447 314 
2693 441 447 342 381 
2694 458 416 389 47 
2695 458 389 416 380 
2696 49 125 383 348 
2697 49 383 125 394 
2698 418 443 402 5 
2699 402 443 418 321 
2700 418 5 393 6 
2701 418 393 5 402 
2702 399 356 30 32 
2703 399 30 356 387 
2704 394 11 125 49 
2705 394 125 11 347 
2706 126 11 125 347 
2707 39 432 127 41 
2708 39 127 432 421 
2709 365 127 432 41 
2710 365 432 127 421 
2711 448 1 407 2 
2712 448 407 1 433 
2713 395 407 1 2 
2714 395 1 407 433 
2715 408 178 196 382 
2716 408 196 178 199 
2717 408 211 219 231 
2718 408 219 211 382 
2719 281 437 298 308 
2720 298 437 281 415 
2721 419 385 438 412 
2722 419 438 385 386 
2723 55 26 390 29 
2724 55 390 26 395 
2725 349 390 26 29 
2726 349 26 390 395 
2727 365 432 40 41 
2728 40 432 365 389 
2729 391 158 167 386 
2730 391 167 158 147 
2731 47 458 401 40 
2732 401 458 47 388 
2733 401 367 47 40 
2734 47 367 401 388 
2735 9 8 26 55 
2736 1 383 26 9 
2737 348 383 26 25 
2738 348 26 383 9 
2739 451 286 448 287 
2740 451 448 286 407 
2741 290 435 288 289 
2742 288 435 290 406 
2743 141 437 415 61 
2744 415 437 141 406 
2745 435 293 440 307 
2746 435 440 293 411 
2747 400 327 325 396 
2748 400 325 327 338 
2749 56 55 390 29 
2750 131 28 10 354 
2751 131 10 28 130 
2752 126 10 28 354 
2753 126 28 10 130 
2754 455 362 46 393 
2755 455 46 362 38 
2756 251 167 391 147 
2757 251 391 167 263 
2758 47 127 381 365 
2759 47 381 127 427 
2760 403 441 421 384 
2761 421 441 403 381 
2762 121 443 333 313 
2763 333 443 121 301 
2764 438 458 378 27 
2765 378 458 438 385 
2766 378 386 438 27 
2767 438 386 378 385 
2768 422 442 377 413 
2769 377 442 422 399 
2770 127 46 421 364 
2771 127 421 46 403 
2772 142 453 426 12 
2773 426 453 142 446 
2774 31 40 389 358 
2775 389 40 31 458 
2776 435 51 451 14 
2777 435 451 51 448 
2778 2 451 51 14 
2779 2 51 451 448 
2780 9 126 13 14 
2781 135 48 401 42 
2782 135 401 48 7 
2783 367 401 48 42 
2784 367 48 401 7 
2785 401 131 135 34 
2786 401 135 131 58 
2787 10 13 126 15 
2788 128 134 368 43 
2789 368 134 128 59 
2790 49 50 394 11 
2791 394 50 49 449 
2792 395 451 410 205 
2793 410 451 395 53 
2794 395 55 410 53 
2795 125 11 348 49 
2796 125 348 11 126 
2797 9 348 11 49 
2798 9 11 348 126 
2799 54 55 392 56 
2800 54 392 55 410 
2801 390 392 55 56 
2802 390 55 392 410 
2803 427 371 403 127 
2804 427 403 371 418 
2805 46 403 371 127 
2806 46 371 403 418 
2807 434 179 192 393 
2808 434 192 179 201 
2809 9 126 8 13 
2810 10 8 126 13 
2811 35 126 8 353 
2812 35 8 126 10 
2813 383 26 395 1 
2814 383 395 26 25 
2815 126 26 8 353 
2816 126 8 26 9 
2817 410 395 390 55 
2818 390 395 410 205 
$EndElements
